<svg xmlns="http://www.w3.org/2000/svg" viewBox="0 0 100 100" width="200px" height="200px"><path fill="#c7ede6" d="M87.2,56.7c1.1-2.2,1.8-4.6,1.8-7.2c0-6.6-4.2-12.3-10-14.5c0,0,0,0,0,0c0-11.6-9.4-21-21-21 c-9.8,0-18,6.7-20.3,15.8c-1.5-0.5-3-0.8-4.7-0.8c-7.7,0-14,5.8-14.9,13.3C12.9,43.4,9,48,9,53.5C9,59.9,14.1,65,20.5,65 c0.2,0,0.4,0,0.5,0c0,0.2,0,0.3,0,0.5C21,76.8,30.2,86,41.5,86c6.4,0,12.2-3,15.9-7.6c2.2,2.2,5.2,3.6,8.6,3.6 c4.7,0,8.7-2.7,10.7-6.5c1.1,0.3,2.2,0.5,3.3,0.5c6.1,0,11-4.9,11-11C91,61.7,89.5,58.7,87.2,56.7z"/><path fill="#fdfcef" d="M76.5,60.5V61h3v-0.5c0,0,4.2,0,5.5,0c2.5,0,4.5-2,4.5-4.5c0-2.3-1.8-4.2-4.1-4.5c0-0.2,0.1-0.4,0.1-0.5 c0-2.5-2-4.5-4.5-4.5c-1.4,0-2.7,0.7-3.5,1.7c-0.1-2.6-2.3-4.7-5-4.7c-2.8,0-5,2.2-5,5c0,0.4,0.1,0.9,0.2,1.3 C67,49,66.1,48.5,65,48.5c-1.8,0-3.2,1.3-3.5,3.1c-0.2,0-0.4-0.1-0.5-0.1c-2.5,0-4.5,2-4.5,4.5s2,4.5,4.5,4.5s9.5,0,9.5,0H76.5z"/><path fill="#472b29" d="M72.5,43c-3,0-5.5,2.5-5.5,5.5c0,0,0,0,0,0c-0.6-0.4-1.3-0.5-2-0.5c-1.8,0-3.4,1.3-3.9,3c0,0-0.1,0-0.1,0 c-2.8,0-5,2.2-5,5s2.2,5,5,5h15.5c0.3,0,0.5-0.2,0.5-0.5S76.8,60,76.5,60H61c-2.2,0-4-1.8-4-4s1.8-4,4-4c0.1,0,0.2,0,0.3,0l0.1,0 c0,0,0,0,0.1,0c0.2,0,0.5-0.2,0.5-0.4c0.2-1.5,1.5-2.6,3-2.6c0.9,0,1.7,0.4,2.3,1.1c0.1,0.1,0.2,0.2,0.4,0.2c0.1,0,0.2,0,0.2-0.1 c0.2-0.1,0.3-0.3,0.3-0.6c-0.1-0.4-0.2-0.8-0.2-1.2c0-2.5,2-4.5,4.5-4.5c2.4,0,4.3,1.9,4.5,4.3c0,0.2,0.2,0.4,0.3,0.5 c0.1,0,0.1,0,0.2,0c0.2,0,0.3-0.1,0.4-0.2c0.8-1,1.9-1.5,3.1-1.5c2.2,0,4,1.8,4,4c0,0.1,0,0.2,0,0.3l0,0.1c0,0.1,0,0.3,0.1,0.4 s0.2,0.2,0.3,0.2c2.1,0.2,3.6,1.9,3.6,4c0,2.2-1.8,4-4,4h-5.5c-0.3,0-0.5,0.2-0.5,0.5s0.2,0.5,0.5,0.5H85c2.8,0,5-2.2,5-5 c0-2.4-1.7-4.4-4-4.9c0,0,0-0.1,0-0.1c0-2.8-2.2-5-5-5c-1.2,0-2.3,0.4-3.2,1.2C77.2,44.8,75.1,43,72.5,43L72.5,43z"/><path fill="#472b29" d="M71 50c-1.4 0-2.6 1-2.9 2.3-.4-.2-.8-.3-1.2-.3-1.2 0-2.2.9-2.4 2.1-.2 0-.4-.1-.6-.1-1.5 0-2.8 1.2-2.9 2.7 0 .1.1.3.2.3 0 0 0 0 0 0 .1 0 .2-.1.2-.2.1-1.3 1.2-2.3 2.4-2.3.2 0 .5 0 .7.1 0 0 0 0 .1 0 .1 0 .1 0 .2-.1.1 0 .1-.1.1-.2 0-1 .8-1.9 1.9-1.9.4 0 .9.2 1.2.5 0 0 .1.1.2.1 0 0 .1 0 .1 0 .1 0 .1-.1.2-.2.1-1.3 1.2-2.3 2.5-2.3.2 0 .4 0 .7.1 0 0 0 0 .1 0 .1 0 .2-.1.2-.2 0-.1 0-.3-.2-.3C71.5 50 71.3 50 71 50L71 50zM84.9 51.5c-1.3 0-2.5.9-2.9 2.2 0 .1 0 .3.2.3 0 0 0 0 .1 0 .1 0 .2-.1.2-.2.3-1.1 1.3-1.8 2.4-1.8.1 0 .2 0 .3 0 0 0 0 0 0 0 .1 0 .2-.1.2-.2 0-.1-.1-.3-.2-.3C85.2 51.5 85 51.5 84.9 51.5L84.9 51.5z"/><path fill="#fff" d="M15.5 51h-10C5.2 51 5 50.8 5 50.5S5.2 50 5.5 50h10c.3 0 .5.2.5.5S15.8 51 15.5 51zM18.5 51h-1c-.3 0-.5-.2-.5-.5s.2-.5.5-.5h1c.3 0 .5.2.5.5S18.8 51 18.5 51zM23.5 53h-9c-.3 0-.5-.2-.5-.5s.2-.5.5-.5h9c.3 0 .5.2.5.5S23.8 53 23.5 53zM12.5 53h-1c-.3 0-.5-.2-.5-.5s.2-.5.5-.5h1c.3 0 .5.2.5.5S12.8 53 12.5 53zM9.5 53h-2C7.2 53 7 52.8 7 52.5S7.2 52 7.5 52h2c.3 0 .5.2.5.5S9.8 53 9.5 53zM15.5 55h-2c-.3 0-.5-.2-.5-.5s.2-.5.5-.5h2c.3 0 .5.2.5.5S15.8 55 15.5 55zM18.5 46c-.2 0-.8 0-1 0-.3 0-.5.2-.5.5s.2.5.5.5c.2 0 .8 0 1 0 .3 0 .5-.2.5-.5S18.8 46 18.5 46zM18.5 48c-.2 0-4.8 0-5 0-.3 0-.5.2-.5.5s.2.5.5.5c.2 0 4.8 0 5 0 .3 0 .5-.2.5-.5S18.8 48 18.5 48zM23.5 50c-.2 0-2.8 0-3 0-.3 0-.5.2-.5.5s.2.5.5.5c.2 0 2.8 0 3 0 .3 0 .5-.2.5-.5S23.8 50 23.5 50zM72.5 24h-10c-.3 0-.5-.2-.5-.5s.2-.5.5-.5h10c.3 0 .5.2.5.5S72.8 24 72.5 24zM76.5 24h-2c-.3 0-.5-.2-.5-.5s.2-.5.5-.5h2c.3 0 .5.2.5.5S76.8 24 76.5 24zM81.5 26h-10c-.3 0-.5-.2-.5-.5s.2-.5.5-.5h10c.3 0 .5.2.5.5S81.8 26 81.5 26zM69.5 26h-1c-.3 0-.5-.2-.5-.5s.2-.5.5-.5h1c.3 0 .5.2.5.5S69.8 26 69.5 26zM66.5 26h-2c-.3 0-.5-.2-.5-.5s.2-.5.5-.5h2c.3 0 .5.2.5.5S66.7 26 66.5 26zM75.5 22h-5c-.3 0-.5-.2-.5-.5s.2-.5.5-.5h5c.3 0 .5.2.5.5S75.8 22 75.5 22zM72.5 28h-2c-.3 0-.5-.2-.5-.5s.2-.5.5-.5h2c.3 0 .5.2.5.5S72.8 28 72.5 28z"/><path fill="#fbb03b" d="M52 26.7A23.3 23.3 0 1 0 52 73.3A23.3 23.3 0 1 0 52 26.7Z"/><path fill="#472b29" d="M52,74c-13.2,0-24-10.7-24-24s10.7-24,24-24s24,10.7,24,24S65.2,74,52,74z M52,27.5 c-12.4,0-22.5,10.1-22.5,22.5c0,12.4,10.1,22.5,22.5,22.5c12.4,0,22.5-10.1,22.5-22.5C74.5,37.6,64.4,27.5,52,27.5z"/><path fill="#e0fcf8" d="M51.9 30.6A19.6 19.5 0 1 0 51.9 69.6A19.6 19.5 0 1 0 51.9 30.6Z"/><path fill="#472b29" d="M70.6,45c-0.2,0-0.4-0.1-0.5-0.4c-0.1-0.3-0.2-0.5-0.3-0.8c-0.4-1-0.8-2.1-1.4-3c-0.1-0.2-0.1-0.5,0.2-0.7 c0.2-0.1,0.5-0.1,0.7,0.2c0.6,1,1.1,2.1,1.5,3.2c0.1,0.3,0.2,0.6,0.3,0.9c0.1,0.3-0.1,0.5-0.3,0.6C70.7,45,70.7,45,70.6,45z"/><path fill="#fabf82" d="M63.3,61c-0.2-1.2-0.7-2-1.9-2.3c-0.1,0-0.1,0-0.2-0.1c-0.1,0-0.2-0.1-0.3-0.1c-0.7-0.3-5-1.9-5-1.9 c-0.4-0.1-0.6-0.3-0.7-0.6c-0.2-0.5-0.1-1.7-0.1-1.7s-1.8,0.6-2.9,0.8c-1.1,0.1-3.5-1.3-3.5-1.3s-0.1,1.8-0.1,2.1 c-0.1,0.3-0.4,0.6-0.7,0.7L43.7,58c-0.5,0.1-0.9,0.3-1.3,0.5c-1,0.6-1.6,1.6-1.8,2.4c0,0-0.3,1.9-0.3,2c0,0.3-0.1,0.6-0.1,0.9 c4.5,3,8.1,3.9,14.3,3.6c2.8-0.1,7-1.5,9.2-2.6C63.5,62.4,63.3,61,63.3,61z"/><path fill="#88cdd7" d="M61.4,58.7c-0.1,0-0.1,0-0.2-0.1c-0.1,0-0.2-0.1-0.3-0.1c-0.4-0.2-2.3-0.9-3.6-1.4l-0.1,0 c-1.5,0.7-3.5,1.9-5.4,1.9c-1.9,0-3.8-1-5.4-1.9l-0.2,0l-2.6,0.9c-0.5,0.1-0.9,0.3-1.3,0.5c-1,0.6-1.6,1.6-1.8,2.4 c0,0-0.3,1.9-0.3,2c0,0.3-0.1,2.1-0.1,2.5c4.5,3,8.1,3.9,14.3,3.6c2.8-0.1,7-2.3,9.1-3.4c-0.1-2.4-0.3-4.7-0.3-4.7 C63.1,59.8,62.6,59,61.4,58.7z"/><path fill="#be7841" d="M45.5,47.1c-0.1-0.2-2.3-5-0.6-8.4c0.7-1.4,1.9-2.3,3.7-2.7c1-0.7,2.2-1.1,3.4-1.1c1,0,2,0.3,3,0.8 c0.5,0.3,0.9,0.5,1.2,0.7c1.1,0.6,1.3,0.8,1.9,0.8c0.1,0,0.1,0,0.2,0c0.2,0,0.3,0,0.3,0c0.7,0,0.9,0.5,0.9,0.7 c0.1,0.7-0.1,1.2-0.3,1.7c-0.2,0.4-0.3,0.7-0.2,1c1.1,3.6-0.6,6.5-0.7,6.6l-0.9,1.6l0-1.8c0,0,0-2.5-0.5-4.2 c-0.8,0.4-1.8,0.6-2.8,0.6c-1.9,0-3.9-0.7-6-1.9c-1.4,1.2-1.6,4.3-1.6,5.5l0,2.3L45.5,47.1z"/><path fill="#472b29" d="M52,35.5c0.9,0,1.8,0.2,2.7,0.7c2,1.1,2.4,1.5,3.3,1.5c0.1,0,0.2,0,0.2,0c0.1,0,0.2,0,0.3,0 c0.2,0,0.4,0,0.4,0.3c0.1,1.1-0.8,1.9-0.5,2.7c1,3.4-0.6,6.2-0.6,6.2s0-3.1-0.8-4.9c-0.8,0.5-1.9,0.8-3,0.8c-1.8,0-3.9-0.7-6-2 c-2.1,1.4-2.1,6.1-2.1,6.1s-4-8.9,2.9-10.4C49.7,35.9,50.8,35.5,52,35.5 M52,34.5L52,34.5c-1.3,0-2.6,0.4-3.6,1.1 c-1.9,0.5-3.2,1.4-4,2.9c-1.8,3.5,0.5,8.6,0.6,8.8l1.9,4.2l0-4.6c0-0.9,0.2-3.6,1.2-4.8c2,1.2,4,1.8,5.9,1.8 c0.9,0,1.7-0.1,2.5-0.4c0.3,1.3,0.4,2.8,0.4,3.5l0,3.7l1.9-3.2c0.1-0.1,1.9-3.2,0.7-7c0-0.1,0.1-0.4,0.2-0.6 c0.2-0.5,0.5-1.2,0.4-1.9c-0.1-0.6-0.5-1.1-1.4-1.1c-0.1,0-0.2,0-0.3,0l-0.1,0c-0.1,0-0.1,0-0.2,0c-0.4,0-0.6-0.1-1.6-0.7 c-0.3-0.2-0.7-0.4-1.2-0.7C54.2,34.7,53.1,34.5,52,34.5L52,34.5L52,34.5z"/><path fill="#00a5a5" d="M44.2,68c-0.2,0-0.3-0.1-0.3-0.3v-2.3c0-0.2,0.1-0.3,0.3-0.3s0.3,0.1,0.3,0.3v2.3C44.5,67.9,44.3,68,44.2,68z"/><g><path fill="#00a5a5" d="M59.4,68.4c-0.2,0-0.3-0.1-0.3-0.3v-2.7c0-0.2,0.1-0.3,0.3-0.3s0.3,0.1,0.3,0.3v2.7 C59.7,68.3,59.5,68.4,59.4,68.4z"/></g><g><path fill="#fddbbc" d="M58.9,45.6c-0.1,0-0.1,0-0.2,0c-0.6,0-0.5,0.2-0.5-0.2c0-0.6-0.2-3.1-0.2-3.2c0-2.6-2.7-4.7-6-4.8v0 c0,0,0,0-0.1,0c0,0,0,0-0.1,0v0c-3.4,0.1-6,2.2-6,4.8c0,0.1-0.1,2.6,0,3.2c0,0.3-0.1,0.1-0.7,0.2c-0.1,0-0.1,0-0.2,0 c-0.6,0-1.1,0.4-1.2,0.9c0.1,0,0.4,2.2,0.8,3c0.3,0.5,0.6,0.5,1,0.8c0.2,0.2,0.3,0.4,0.3,0.6c0.2,0.9,0.9,1.7,1.5,2.4 c0.3,0.3,2.6,2.7,4.5,2.6c2-0.1,4.2-2.3,4.5-2.6c0.7-0.7,1.3-1.4,1.5-2.4c0.1-0.2,0.1-0.4,0.3-0.6c0.4-0.3,0.8-0.4,1-0.8 c0.5-0.8,0.7-2.9,0.8-3C60,46.1,59.5,45.7,58.9,45.6z"/></g><g><path fill="#512c2b" d="M51.9,49.7c0.4,0,0.8-0.2,1-0.5c0,0,0-0.1,0-0.1l0,0c0,0-0.1,0-0.1,0c-0.2,0.2-0.5,0.4-0.9,0.4 s-0.7-0.1-0.9-0.4c0,0,0,0-0.1,0c0,0,0,0,0,0c0,0,0,0.1,0,0.1C51.1,49.5,51.5,49.7,51.9,49.7z"/></g><g><path fill="#512c2b" d="M50.6,43.4l0.3-0.5c-1.1-0.2-2.3-0.2-3.3,0.1l0.3,0.5C48.7,43.2,49.7,43.2,50.6,43.4z"/></g><g><path fill="#512c2b" d="M55.9,43.4l0.3-0.5c-1.1-0.2-2.3-0.2-3.3,0.1l0.3,0.5C54,43.2,55,43.2,55.9,43.4z"/></g><g><path fill="#512c2b" d="M49.1,45.1c-0.3,0-0.5,0.2-0.6,0.4c0,0,0.1,0,0.1,0c0.2,0,0.4,0.2,0.4,0.4s-0.2,0.4-0.4,0.4 c-0.1,0-0.1,0-0.2-0.1c0.1,0.4,0.4,0.7,0.7,0.7c0.4,0,0.7-0.4,0.7-0.9C49.8,45.5,49.5,45.1,49.1,45.1z"/></g><g><path fill="#512c2b" d="M54.6,45.1c-0.2,0-0.4,0.1-0.5,0.3c0,0,0.1,0,0.1,0c0.2,0,0.4,0.2,0.4,0.4c0,0.2-0.2,0.4-0.4,0.4 c-0.1,0-0.2-0.1-0.3-0.2c0,0.5,0.3,0.9,0.7,0.9c0.4,0,0.7-0.4,0.7-0.9C55.3,45.5,55,45.1,54.6,45.1z"/></g><g><path fill="#512c2b" d="M54.9,50.8C55,50.8,55,50.7,54.9,50.8L54.9,50.8c0-0.1-0.1-0.1-0.1-0.1c-0.7,0.5-1.7,0.8-3,0.8 s-2.3-0.3-3-0.8c0,0,0,0,0,0c0,0,0,0-0.1,0c0,0,0,0.1,0,0.1c0.7,0.6,1.9,1,3.1,1C53.1,51.8,54.2,51.4,54.9,50.8z"/></g><g><path fill="#512c2b" d="M52.7,53.8C52.7,53.8,52.7,53.8,52.7,53.8c0.1-0.1,0-0.2,0-0.2h-1.5c0,0-0.1,0-0.1,0.1s0,0.1,0.1,0.1H52.7z"/></g><g><path fill="#895d3d" d="M59.1,48.5l-0.6-0.1l0.1-0.8l-0.4,0.2l-0.2-0.6l0.9-0.4c0.1,0,0.2,0,0.3,0c0.1,0.1,0.1,0.2,0.1,0.3L59.1,48.5 z"/></g><g><path fill="#895d3d" d="M44.8,48.3L44.7,47c0-0.1,0-0.2,0.1-0.3c0.1-0.1,0.2-0.1,0.3,0l0.9,0.4l-0.2,0.6l-0.4-0.2l0.1,0.8L44.8,48.3z"/></g><g><path fill="#472b29" d="M45.7,50.9C45.7,50.9,45.7,50.9,45.7,50.9c-0.1,0-0.2-0.1-0.2-0.2l0.1-5c0-0.1,0.1-0.2,0.2-0.2c0,0,0,0,0,0 c0.1,0,0.2,0.1,0.2,0.2l-0.1,5C45.9,50.8,45.8,50.9,45.7,50.9z"/></g><g><path fill="#472b29" d="M58.1,50.9c-0.1,0-0.2-0.1-0.2-0.2l-0.1-5c0-0.1,0.1-0.2,0.2-0.2c0,0,0,0,0,0c0.1,0,0.2,0.1,0.2,0.2l0.1,5 C58.3,50.8,58.2,50.9,58.1,50.9C58.1,50.9,58.1,50.9,58.1,50.9z"/></g><g><path fill="#472b29" d="M51.9,56.2c-1.2,0-3.2-1.4-3.4-1.6c-0.1-0.1-0.1-0.2-0.1-0.3c0.1-0.1,0.2-0.1,0.3-0.1c0.6,0.4,2.4,1.6,3.3,1.5 c1.1-0.1,2.8-1.4,2.8-1.4c0.1-0.1,0.3-0.1,0.3,0.1c0.1,0.1,0.1,0.3-0.1,0.3c-0.1,0.1-1.9,1.3-3.1,1.5C52,56.2,52,56.2,51.9,56.2z"/></g><g><path fill="#472b29" d="M63.6,66.3c-0.3,0-0.5-0.2-0.5-0.5c-0.1-2.4-0.3-4.7-0.3-4.7c-0.2-1.1-0.6-1.6-1.6-1.9c-0.1,0-0.1,0-0.2-0.1 c-0.1,0-0.2-0.1-0.3-0.1c-0.7-0.3-5-1.9-5-1.9c-0.4-0.1-0.8-0.4-1-0.9c-0.1-0.1-0.2-0.5-0.2-1.5c0-0.2,0.1-0.3,0.2-0.4 c0.7-0.5,1.2-0.9,1.3-1c0.8-0.8,1.2-1.5,1.4-2.2c0.1-0.3,0.2-0.6,0.5-0.9c0.1-0.1,0.3-0.2,0.4-0.3c0.2-0.1,0.4-0.2,0.5-0.4 c0.4-0.8,0.7-2.2,0.7-2.7c-0.1-0.3-0.4-0.5-0.7-0.5c-0.1,0-0.1,0-0.2,0c0,0-0.1,0-0.1,0c-0.3,0-0.6,0-0.7-0.2 c-0.2-0.2-0.2-0.4-0.1-0.6c0-0.5-0.1-1.9-0.2-2.6c0-0.3-0.1-0.5-0.1-0.5c0-2.3-2.4-4.2-5.6-4.3c0,0,0,0,0,0c0,0,0,0,0,0 c-3.1,0.1-5.6,2-5.6,4.3l0,0.3c0,0.7-0.1,2.4,0,2.9c0,0.1,0,0.4-0.2,0.6c-0.2,0.2-0.5,0.2-0.6,0.1c-0.1,0-0.2,0-0.4,0 c-0.1,0-0.1,0-0.2,0c-0.3,0-0.7,0.2-0.7,0.5c0,0.5,0.4,2,0.7,2.7c0.1,0.2,0.2,0.3,0.5,0.4c0.1,0.1,0.3,0.2,0.4,0.3 c0.4,0.3,0.4,0.6,0.5,0.9c0.2,0.7,0.6,1.4,1.4,2.2c0.1,0.1,0.6,0.5,1.3,0.9c0.1,0.1,0.2,0.3,0.2,0.4C49.1,55.8,49,56,49,56.1 c-0.1,0.6-0.6,0.9-1.1,1l-4.1,1.5c-0.5,0.1-0.9,0.3-1.2,0.5c-0.9,0.6-1.3,1-1.6,2.1c-0.3,0.9-0.3,3-0.3,3.8c0,0.3,0,0.5,0,0.5 c0,0.3-0.3,0.5-0.5,0.5c-0.3,0-0.5-0.3-0.5-0.5c0-0.1,0-0.2,0-0.5c0-1,0.1-3,0.3-4.1c0.4-1.5,1-2.1,2-2.7c0.4-0.2,0.9-0.4,1.4-0.6 l4.1-1.5c0.3-0.1,0.4-0.2,0.4-0.3c0,0,0-0.3,0.1-1c-0.6-0.4-1-0.8-1.2-0.9c-0.9-0.9-1.5-1.7-1.7-2.6c-0.1-0.2-0.1-0.3-0.1-0.3 c-0.1-0.1-0.2-0.1-0.3-0.2c-0.3-0.2-0.6-0.4-0.9-0.8c-0.5-0.9-0.9-2.6-0.9-3.3c0,0,0-0.1,0-0.1c0.2-0.7,0.8-1.3,1.7-1.3 c0.1,0,0.2,0,0.2,0c0.1,0,0.1,0,0.2,0c0-0.6,0-1.6,0-2.6l0-0.3c0-2.8,2.8-5.2,6.4-5.3c0,0,0.1,0,0.1,0c0,0,0.1,0,0.1,0v0 c3.7,0.1,6.5,2.5,6.5,5.3c0,0,0,0.2,0,0.4c0.1,0.9,0.2,1.9,0.2,2.5c0.1,0,0.2,0,0.2,0c0.8,0.1,1.5,0.6,1.7,1.3c0,0,0,0.1,0,0.1 c0,0.6-0.4,2.3-0.9,3.3c-0.2,0.4-0.6,0.6-0.9,0.8c-0.1,0.1-0.2,0.1-0.3,0.2c-0.1,0.1-0.1,0.1-0.1,0.3c-0.2,0.9-0.8,1.7-1.7,2.6 c-0.1,0.1-0.6,0.5-1.2,1c0,0.5,0.1,0.8,0.1,0.9c0.1,0.2,0.2,0.3,0.4,0.4c0.2,0.1,4.4,1.6,5.1,1.9c0.1,0,0.2,0.1,0.3,0.1 c0,0,0.1,0,0.2,0.1c1.3,0.4,2,1.2,2.3,2.7c0,0.1,0.2,2.3,0.3,4.8C64.1,66,63.9,66.2,63.6,66.3C63.6,66.3,63.6,66.3,63.6,66.3z"/></g><g><path fill="#472b29" d="M52,70c-11,0-20-9-20-20c0-11,9-20,20-20c5.7,0,11.2,2.5,15,6.7c0.3,0.3,0.6,0.7,0.8,1 c0.2,0.2,0.1,0.5-0.1,0.7c-0.2,0.2-0.5,0.1-0.7-0.1c-0.3-0.3-0.5-0.6-0.8-0.9c-3.6-4.1-8.8-6.4-14.3-6.4c-10.5,0-19,8.5-19,19 c0,10.5,8.5,19,19,19c10.5,0,19-8.5,19-19c0-1-0.1-1.9-0.2-2.8c0-0.3,0.1-0.5,0.4-0.6c0.3,0,0.5,0.1,0.6,0.4c0.1,1,0.2,2,0.2,3 C72,61.1,63,70,52,70z"/></g><g><path fill="#be7841" d="M59,38c0-0.3-0.4-0.3-0.7-0.3c-1.1,0.1-1.3-0.3-3.6-1.5c-2.2-1.2-4.5-0.7-6,0.3c-6.9,1.5-2.9,10.4-2.9,10.4 s0-4.7,2.1-6.1c3.6,2.3,7,2.6,9.1,1.2c0.8,1.8,0.8,4.9,0.8,4.9s1.7-2.8,0.6-6.2C58.3,39.9,59.2,39.1,59,38L59,38z"/></g><g><path fill="#472b29" d="M58.3,46.9l-0.5,0c0,0,0-2.8-0.7-4.5c-2.3,1.3-5.7,0.8-9.1-1.3c-1.9,1.4-1.9,5.7-1.9,5.8l-0.5,0 c0-0.2,0-4.8,2.3-6.3c0.1-0.1,0.2-0.1,0.3,0c3.4,2.1,6.8,2.6,9,1.2c0.1,0,0.1,0,0.2,0c0.1,0,0.1,0.1,0.2,0.1 C58.3,43.7,58.3,46.8,58.3,46.9z"/></g><g><path fill="#fdfcef" d="M36.5,73.5c0,0,1.6,0,3.5,0s3.5-1.6,3.5-3.5c0-1.8-1.3-3.2-3.1-3.5c0-0.2,0.1-0.4,0.1-0.5 c0-1.9-1.6-3.5-3.5-3.5c-1,0-2,0.5-2.6,1.2c-0.4-1.8-2-3.2-3.9-3.2c-2.2,0-4,1.8-4,4c0,0.2,0,0.4,0.1,0.6c-0.4-0.3-1-0.6-1.6-0.6 c-1.2,0-2.2,0.9-2.5,2.1c-0.2,0-0.4-0.1-0.5-0.1c-1.9,0-3.5,1.6-3.5,3.5s1.6,3.5,3.5,3.5s7.5,0,7.5,0V74h7V73.5z"/><path fill="#472b29" d="M38.3 69c-.1 0-.3-.1-.3-.3 0-1.2 1-2.2 2.2-2.2 0 0 .7 0 1.2.1.1 0 .2.2.2.3 0 .1-.2.2-.3.2C40.9 67 40.2 67 40.2 67c-.9 0-1.7.8-1.7 1.7C38.5 68.9 38.4 69 38.3 69zM31.5 73A.5.5 0 1 0 31.5 74 .5.5 0 1 0 31.5 73z"/><path fill="#472b29" d="M40,74h-3.5c-0.3,0-0.5-0.2-0.5-0.5s0.2-0.5,0.5-0.5H40c1.7,0,3-1.3,3-3c0-1.5-1.1-2.8-2.6-3 c-0.1,0-0.3-0.1-0.3-0.2s-0.1-0.2-0.1-0.4c0-0.2,0-0.3,0-0.5c0-1.7-1.3-3-3-3c-0.8,0-1.6,0.4-2.2,1c-0.1,0.1-0.3,0.2-0.5,0.1 c-0.2,0-0.3-0.2-0.4-0.4c-0.3-1.6-1.8-2.8-3.4-2.8c-1.9,0-3.5,1.6-3.5,3.5c0,0.1,0,0.3,0,0.4c0,0.2-0.1,0.4-0.2,0.5 s-0.4,0.1-0.6,0C25.9,65.2,25.4,65,25,65c-1,0-1.8,0.7-2,1.6c0,0.3-0.3,0.4-0.6,0.4c-0.2,0-0.3,0-0.5,0c-1.7,0-3,1.3-3,3 s1.3,3,3,3h7.5c0.3,0,0.5,0.2,0.5,0.5S29.8,74,29.5,74H22c-2.2,0-4-1.8-4-4s1.8-4,4-4c0.1,0,0.1,0,0.2,0c0.4-1.2,1.5-2,2.8-2 c0.3,0,0.7,0.1,1,0.2c0.2-2.3,2.1-4.2,4.5-4.2c1.8,0,3.5,1.1,4.2,2.8c0.7-0.5,1.5-0.8,2.3-0.8c2.2,0,4,1.8,4,4c0,0,0,0.1,0,0.1 c1.7,0.4,3,2,3,3.9C44,72.2,42.2,74,40,74z"/><path fill="#472b29" d="M34.5,73c-0.2,0-0.8,0-1,0c-0.3,0-0.5,0.2-0.5,0.5s0.2,0.5,0.5,0.5c0.2,0,0.8,0,1,0c0.3,0,0.5-0.2,0.5-0.5 S34.8,73,34.5,73z"/></g></svg>