<svg xmlns="http://www.w3.org/2000/svg" viewBox="0 0 100 100" width="100px" height="100px"><path fill="#c8ede6" d="M87.234,55.551c0.3-0.616,0.566-1.264,0.796-1.943c2.633-7.77-1.349-17.078-9.733-19.325 C77.391,22.9,69.391,15.09,60.356,13.758c-10.341-1.525-19.814,5.044-22.966,15.485c-3.799-1.346-7.501-1.182-10.99,0.857 c-1.583,0.732-3.031,1.812-4.33,3.233c-1.907,2.086-3.147,4.719-3.652,7.495c-0.748,0.118-1.483,0.236-2.176,0.484 c-4.04,1.449-6.589,4.431-7.288,8.923c-0.435,2.797,0.443,5.587,0.933,6.714c1.935,4.455,6.422,6.98,10.981,6.312 c0.227-0.033,0.557,0.069,0.752,0.233c0.241,7.12,3.698,13.417,8.884,17.014c8.321,5.772,19.027,3.994,25.781-3.921 c2.894,2.96,6.338,4.398,10.384,3.876c4.023-0.519,7.147-2.739,9.426-6.349c1.053,0.283,2.051,0.691,3.083,0.804 c4.042,0.442,7.297-1.184,9.732-4.8c0.083-0.124,0.203-0.219,0.306-0.328c0.348-0.798,0.696-1.596,1.044-2.394 c0.155-1.211,0.429-2.423,0.443-3.632C90.742,60.508,89.411,57.54,87.234,55.551z"/><path fill="#fdfcef" d="M67.674,36.423c0,0-11.691,0-11.762,0c-2.7,0-4.888-2.189-4.888-4.889 c0-2.355,1.666-4.321,3.884-4.784c-0.026-0.206-0.043-0.415-0.043-0.628c0-2.796,2.267-5.063,5.063-5.063 c1.651,0,3.113,0.794,4.037,2.017c0.236-3.113,3.017-5.514,6.27-5.116c2.379,0.291,4.346,2.13,4.784,4.486 c0.14,0.756,0.126,1.489-0.014,2.177c0.638-0.687,1.546-1.119,2.557-1.119c1.85,0,3.361,1.441,3.48,3.261 c0.84-0.186,1.754-0.174,2.717,0.188c1.84,0.691,3.15,2.423,3.227,4.387c0.109,2.789-2.12,5.085-4.885,5.085 c-0.21,0-0.948,0-1.118,0H70.832"/><path fill="#472b29" d="M55.912,36.923h11.762c0.276,0,0.5-0.224,0.5-0.5s-0.224-0.5-0.5-0.5H55.912 c-2.42,0-4.389-1.969-4.389-4.389c0-2.066,1.466-3.873,3.486-4.295c0.255-0.053,0.426-0.293,0.394-0.552 c-0.023-0.186-0.039-0.374-0.039-0.565c0-2.517,2.047-4.563,4.562-4.563c1.438,0,2.765,0.663,3.638,1.818 c0.125,0.166,0.338,0.237,0.54,0.178c0.199-0.059,0.342-0.234,0.357-0.441c0.104-1.377,0.779-2.671,1.85-3.549 c1.083-0.888,2.456-1.282,3.86-1.109c2.166,0.266,3.956,1.943,4.353,4.081c0.124,0.667,0.12,1.335-0.013,1.986 c-0.044,0.22,0.062,0.442,0.262,0.544c0.2,0.104,0.443,0.06,0.595-0.104c0.575-0.618,1.353-0.959,2.19-0.959 c1.569,0,2.878,1.228,2.981,2.794c0.01,0.146,0.082,0.279,0.199,0.366c0.117,0.089,0.268,0.12,0.408,0.089 c0.841-0.185,1.637-0.132,2.433,0.167c1.669,0.627,2.835,2.209,2.903,3.938c0.047,1.207-0.387,2.35-1.221,3.218 c-0.835,0.869-1.959,1.348-3.164,1.348H70.828c-0.276,0-0.5,0.224-0.5,0.5s0.224,0.5,0.5,0.5h11.271 c1.479,0,2.858-0.588,3.884-1.654c1.025-1.066,1.558-2.469,1.5-3.95c-0.083-2.126-1.51-4.069-3.55-4.835 c-0.8-0.301-1.626-0.398-2.468-0.299c-0.377-1.822-1.998-3.182-3.905-3.182c-0.684,0-1.354,0.18-1.944,0.51 c0-0.386-0.035-0.772-0.106-1.159c-0.477-2.562-2.621-4.573-5.215-4.891c-1.679-0.205-3.32,0.266-4.616,1.328 c-1.003,0.823-1.716,1.951-2.038,3.193c-1.012-0.916-2.319-1.426-3.714-1.426c-3.067,0-5.562,2.496-5.562,5.563 c0,0.083,0.002,0.166,0.007,0.248c-2.254,0.673-3.848,2.776-3.848,5.164C50.523,34.507,52.94,36.923,55.912,36.923z"/><path fill="#fdfcef" d="M70.507,25.655c1.808-0.119,3.365,1.13,3.476,2.789c0.014,0.206,0.005,0.409-0.025,0.606 c0.349-0.394,0.865-0.661,1.458-0.7c1.085-0.071,2.022,0.645,2.158,1.62c0.197-0.054,0.403-0.09,0.616-0.104 c1.582-0.104,2.944,0.989,3.042,2.441"/><path fill="#472b29" d="M81.231,32.556c0.006,0,0.012,0,0.017-0.001c0.138-0.009,0.242-0.128,0.233-0.266 c-0.107-1.587-1.588-2.789-3.308-2.674c-0.137,0.009-0.273,0.026-0.409,0.053c-0.274-0.968-1.256-1.645-2.366-1.567 c-0.425,0.027-0.823,0.159-1.164,0.382c0-0.019-0.002-0.037-0.003-0.056c-0.12-1.795-1.787-3.16-3.742-3.021 c-0.138,0.009-0.242,0.128-0.233,0.266c0.009,0.138,0.124,0.255,0.266,0.232c1.651-0.105,3.108,1.037,3.21,2.557 c0.012,0.184,0.004,0.37-0.023,0.553c-0.017,0.109,0.041,0.217,0.141,0.264s0.219,0.022,0.293-0.061 c0.323-0.365,0.78-0.584,1.287-0.617c0.951-0.034,1.775,0.556,1.894,1.404c0.01,0.071,0.05,0.135,0.11,0.175 c0.06,0.039,0.133,0.051,0.204,0.032c0.187-0.051,0.377-0.083,0.567-0.097c1.44-0.092,2.687,0.896,2.775,2.209 C80.991,32.455,81.101,32.556,81.231,32.556z"/><path fill="#fdfcef" d="M53.932,27.323c1.699-0.801,3.664-0.234,4.389,1.267c0.09,0.186,0.157,0.379,0.201,0.574"/><path fill="#472b29" d="M58.522,29.414c0.018,0,0.037-0.002,0.056-0.006c0.134-0.031,0.219-0.165,0.188-0.3 c-0.049-0.217-0.123-0.428-0.219-0.627c-0.783-1.621-2.902-2.239-4.721-1.385c-0.125,0.06-0.179,0.208-0.12,0.333 c0.059,0.126,0.209,0.176,0.333,0.12c1.574-0.744,3.394-0.227,4.058,1.149c0.08,0.165,0.141,0.34,0.182,0.521 C58.305,29.336,58.408,29.414,58.522,29.414z"/><path fill="#fff" d="M15.899 52H5.869c-.276 0-.5-.224-.5-.5s.224-.5.5-.5h10.03c.276 0 .5.224.5.5S16.176 52 15.899 52zM19.28 51.5c0-.276-.224-.5-.5-.5h-1.446c-.276 0-.5.224-.5.5s.224.5.5.5h1.446C19.057 52 19.28 51.776 19.28 51.5zM23.335 51.5c0-.276-.224-.5-.5-.5h-2.546c-.276 0-.5.224-.5.5s.224.5.5.5h2.546C23.112 52 23.335 51.776 23.335 51.5zM23.335 53.5c0-.276-.224-.5-.5-.5h-9.616c-.276 0-.5.224-.5.5s.224.5.5.5h9.616C23.112 54 23.335 53.776 23.335 53.5zM11.987 53.5c0-.276-.224-.5-.5-.5h-.58c-.276 0-.5.224-.5.5s.224.5.5.5h.58C11.763 54 11.987 53.776 11.987 53.5zM9.611 53.5c0-.276-.224-.5-.5-.5H7.654c-.276 0-.5.224-.5.5s.224.5.5.5h1.457C9.387 54 9.611 53.776 9.611 53.5zM18.746 49.5c0-.276-.224-.5-.5-.5h-5.027c-.276 0-.5.224-.5.5s.224.5.5.5h5.027C18.523 50 18.746 49.776 18.746 49.5zM18.746 47.5c0-.276-.224-.5-.5-.5h-1.257c-.276 0-.5.224-.5.5s.224.5.5.5h1.257C18.523 48 18.746 47.776 18.746 47.5zM15.477 55.5c0-.276-.224-.5-.5-.5h-1.758c-.276 0-.5.224-.5.5s.224.5.5.5h1.758C15.254 56 15.477 55.776 15.477 55.5zM87.744 64h-10.03c-.276 0-.5-.224-.5-.5s.224-.5.5-.5h10.031c.276 0 .5.224.5.5S88.021 64 87.744 64zM91.125 63.5c0-.276-.224-.5-.5-.5h-1.446c-.276 0-.5.224-.5.5s.224.5.5.5h1.446C90.902 64 91.125 63.776 91.125 63.5zM95.18 63.5c0-.276-.224-.5-.5-.5h-2.546c-.276 0-.5.224-.5.5s.224.5.5.5h2.546C94.956 64 95.18 63.776 95.18 63.5zM93.154 59.5c0-.276-.224-.5-.5-.5h-9.616c-.276 0-.5.224-.5.5s.224.5.5.5h9.616C92.93 60 93.154 59.776 93.154 59.5zM81.806 59.5c0-.276-.224-.5-.5-.5h-.58c-.276 0-.5.224-.5.5s.224.5.5.5h.58C81.583 60 81.806 59.776 81.806 59.5zM79.429 59.5c0-.276-.224-.5-.5-.5h-1.456c-.276 0-.5.224-.5.5s.224.5.5.5h1.456C79.206 60 79.429 59.776 79.429 59.5zM90.591 61.5c0-.276-.224-.5-.5-.5h-5.027c-.276 0-.5.224-.5.5s.224.5.5.5h5.027C90.367 62 90.591 61.776 90.591 61.5zM90.591 59.5c0-.276-.224-.5-.5-.5h-1.257c-.276 0-.5.224-.5.5s.224.5.5.5h1.257C90.367 60 90.591 59.776 90.591 59.5zM84.108 61.5c0-.276-.224-.5-.5-.5H81.85c-.276 0-.5.224-.5.5s.224.5.5.5h1.758C83.885 62 84.108 61.776 84.108 61.5z"/><path fill="#fdfcef" d="M37.178,78.287c1.883,0,3.517,0,3.54,0c2.11,0,3.821-1.674,3.821-3.739 c0-1.802-1.302-3.305-3.035-3.66c0.02-0.158,0.034-0.317,0.034-0.48c0-2.139-1.772-3.873-3.957-3.873 c-1.29,0-2.433,0.607-3.155,1.543c-0.185-2.381-2.358-4.218-4.9-3.913c-1.859,0.223-3.397,1.629-3.739,3.431 c-0.11,0.578-0.098,1.139,0.011,1.665c-0.498-0.525-1.208-0.856-1.998-0.856c-1.446,0-2.627,1.102-2.72,2.494 c-0.657-0.142-1.371-0.133-2.123,0.143c-1.438,0.528-2.462,1.853-2.522,3.356c-0.085,2.133,1.657,3.889,3.818,3.889 c0.164,0,0.741,0,0.874,0h7.934 M30.701,78.287h0.36"/><path fill="#472b29" d="M40.718,78.788h-3.54c-0.276,0-0.5-0.224-0.5-0.5s0.224-0.5,0.5-0.5h3.54 c1.831,0,3.321-1.453,3.321-3.239c0-1.524-1.108-2.858-2.636-3.17c-0.256-0.053-0.429-0.294-0.396-0.554 c0.018-0.137,0.03-0.275,0.03-0.417c0-1.86-1.551-3.373-3.457-3.373c-1.092,0-2.098,0.491-2.76,1.349 c-0.126,0.164-0.341,0.231-0.539,0.174c-0.198-0.06-0.339-0.234-0.355-0.44c-0.079-1.02-0.565-1.944-1.369-2.604 c-0.829-0.68-1.885-0.979-2.973-0.853c-1.646,0.197-3.006,1.442-3.307,3.027c-0.094,0.495-0.091,0.99,0.009,1.472 c0.045,0.219-0.06,0.441-0.258,0.545c-0.197,0.102-0.44,0.063-0.594-0.1c-0.428-0.451-1.009-0.7-1.635-0.7 c-1.169,0-2.145,0.891-2.221,2.027c-0.01,0.146-0.082,0.278-0.198,0.366c-0.116,0.087-0.264,0.12-0.406,0.089 c-0.639-0.138-1.243-0.098-1.846,0.125c-1.262,0.463-2.144,1.631-2.195,2.905c-0.035,0.876,0.283,1.709,0.895,2.346 c0.635,0.66,1.496,1.024,2.423,1.024h8.807c0.276,0,0.5,0.224,0.5,0.5s-0.224,0.5-0.5,0.5h-8.807 c-1.185,0-2.331-0.485-3.144-1.331c-0.803-0.836-1.219-1.929-1.173-3.078c0.067-1.675,1.212-3.204,2.849-3.806 c0.61-0.225,1.24-0.304,1.88-0.244c0.344-1.396,1.629-2.424,3.135-2.424c0.493,0,0.977,0.113,1.414,0.323 c0.009-0.242,0.037-0.484,0.083-0.727c0.381-2.009,2.096-3.585,4.17-3.833c1.365-0.167,2.685,0.218,3.726,1.071 c0.748,0.613,1.278,1.409,1.546,2.302c0.791-0.648,1.786-1.007,2.842-1.007c2.458,0,4.457,1.962,4.457,4.373 c0,0.034,0,0.068-0.001,0.103c1.764,0.555,3.003,2.188,3.003,4.038C45.039,76.886,43.101,78.788,40.718,78.788z M31.061,78.788 h-0.36c-0.276,0-0.5-0.224-0.5-0.5s0.224-0.5,0.5-0.5h0.36c0.276,0,0.5,0.224,0.5,0.5S31.337,78.788,31.061,78.788z"/><path fill="#472b29" d="M39.011 72.984c-.018 0-.036-.002-.055-.006-.135-.03-.22-.164-.189-.299.037-.164.094-.325.17-.479.604-1.224 2.272-1.677 3.722-1.007.125.058.18.206.122.331-.058.126-.207.179-.332.122-1.201-.556-2.577-.208-3.063.774-.058.118-.102.242-.13.367C39.229 72.905 39.126 72.984 39.011 72.984zM33.852 78.788h-1.107c-.276 0-.5-.224-.5-.5s.224-.5.5-.5h1.107c.276 0 .5.224.5.5S34.129 78.788 33.852 78.788z"/><path fill="#bebacb" d="M31.26,72.3c-0.86,0-1.56-0.699-1.56-1.56V65.7h5.6v5.04c0,0.86-0.7,1.56-1.56,1.56H31.26z"/><path fill="#472b29" d="M34.6,66.4v4.34c0,0.474-0.386,0.86-0.86,0.86h-2.48c-0.474,0-0.86-0.386-0.86-0.86V66.4H34.6 M36,65h-7v5.74c0,1.248,1.012,2.26,2.26,2.26h2.48c1.248,0,2.26-1.012,2.26-2.26V65L36,65z"/><path fill="#bebacb" d="M67.26,72.3c-0.86,0-1.56-0.699-1.56-1.56V65.7h5.6v5.04c0,0.86-0.699,1.56-1.56,1.56H67.26z"/><path fill="#472b29" d="M70.6,66.4v4.34c0,0.474-0.386,0.86-0.86,0.86h-2.48c-0.474,0-0.86-0.386-0.86-0.86V66.4H70.6 M72,65h-7v5.74c0,1.248,1.012,2.26,2.26,2.26h2.48c1.248,0,2.26-1.012,2.26-2.26V65L72,65z"/><path fill="#ef7d99" d="M28.204,47.5h5.593c0.937,0,1.704-0.767,1.704-1.704v-1.593c0-0.937-0.767-1.704-1.704-1.704h-5.593 c-0.937,0-1.704,0.767-1.704,1.704v1.593C26.5,46.733,27.267,47.5,28.204,47.5z"/><path fill="#472b29" d="M33.796,48.2h-5.593c-1.325,0-2.404-1.078-2.404-2.403v-1.594c0-1.325,1.079-2.403,2.404-2.403 h5.593c1.325,0,2.404,1.078,2.404,2.403v1.594C36.2,47.122,35.122,48.2,33.796,48.2z M28.204,43.2c-0.553,0-1.003,0.45-1.003,1.003 v1.594c0,0.553,0.45,1.003,1.003,1.003h5.593c0.553,0,1.003-0.45,1.003-1.003v-1.594c0-0.553-0.45-1.003-1.003-1.003H28.204z"/><path fill="#ef7d99" d="M67.204,47.5h5.593c0.937,0,1.704-0.767,1.704-1.704v-1.593c0-0.937-0.767-1.704-1.704-1.704h-5.593 c-0.937,0-1.704,0.767-1.704,1.704v1.593C65.5,46.733,66.267,47.5,67.204,47.5z"/><path fill="#472b29" d="M72.797,48.2h-5.594c-1.325,0-2.403-1.078-2.403-2.403v-1.594c0-1.325,1.078-2.403,2.403-2.403 h5.594c1.325,0,2.403,1.078,2.403,2.403v1.594C75.2,47.122,74.122,48.2,72.797,48.2z M67.203,43.2c-0.553,0-1.003,0.45-1.003,1.003 v1.594c0,0.553,0.45,1.003,1.003,1.003h5.594c0.553,0,1.003-0.45,1.003-1.003v-1.594c0-0.553-0.45-1.003-1.003-1.003H67.203z"/><path fill="#ef7d99" d="M31.913,66.3c-1.771,0-3.213-1.441-3.213-3.213v-7.506c0.002-0.021,0.017-0.131,0.018-0.151 c0.003-0.067-0.003-0.134-0.018-0.198c0.014-3.841,0.531-4.555,2.387-7.116c0.708-0.977,1.589-2.192,2.689-3.913 c0.947-1.48,1.306-3.36,1.654-5.179c0.752-3.93,1.401-7.323,7.183-7.323h16.775c5.781,0,6.431,3.394,7.182,7.323 c0.348,1.818,0.708,3.698,1.654,5.179c1.1,1.721,1.98,2.936,2.688,3.912c1.858,2.564,2.375,3.276,2.388,7.129 c-0.015,0.059-0.021,0.12-0.018,0.182c0.001,0.021,0.012,0.128,0.015,0.149l0.003,7.513c0,1.771-1.441,3.213-3.213,3.213H31.913z"/><path fill="#472b29" d="M59.387,32.4c5.203,0,5.745,2.833,6.495,6.755c0.36,1.883,0.733,3.83,1.752,5.424 c1.111,1.738,1.998,2.962,2.712,3.947c1.828,2.522,2.238,3.088,2.254,6.641c-0.016,0.097-0.022,0.196-0.017,0.295 c0.003,0.059,0.009,0.117,0.017,0.182v7.444c0,1.386-1.127,2.513-2.513,2.513H31.913c-1.386,0-2.513-1.127-2.513-2.513v-7.443 c0.008-0.06,0.014-0.12,0.017-0.182c0.005-0.096-0.001-0.192-0.017-0.286c0.015-3.561,0.425-4.125,2.254-6.649 c0.713-0.984,1.601-2.209,2.712-3.947c1.019-1.594,1.392-3.541,1.752-5.424c0.75-3.922,1.292-6.755,6.495-6.755h7.936h0.902 H59.387 M59.387,31h-7.936h-0.902h-7.936c-9.276,0-6.645,8.475-9.426,12.825C29.093,50.227,28,49.656,28,55.394l0.019-0.001 C28.016,55.457,28,55.517,28,55.581v7.505C28,65.248,29.752,67,31.913,67h38.174C72.248,67,74,65.248,74,63.087v-7.505 c0-0.065-0.016-0.125-0.019-0.188L74,55.394c0-5.737-1.093-5.166-5.186-11.569C66.033,39.475,68.663,31,59.387,31L59.387,31z"/><path fill="#84a7d7" d="M35.717,47.3c-1.151-0.459-2.876-1.149-3.016-1.604c-0.009-0.028,0.029-0.099,0.064-0.149 c0.294-0.433,0.606-0.901,0.938-1.417c0.95-1.473,1.311-3.342,1.66-5.15c0.754-3.905,1.405-7.278,7.207-7.278h16.824 c5.802,0,6.452,3.373,7.206,7.278c0.349,1.809,0.71,3.678,1.66,5.151c0.35,0.542,0.678,1.033,0.985,1.484 c0.051,0.074,0.055,0.11,0.055,0.11c-0.086,0.396-1.837,1.092-2.883,1.508l-0.17,0.067H35.717z"/><path fill="#472b29" d="M59.394,32.4c5.224,0,5.767,2.815,6.519,6.711c0.362,1.874,0.735,3.811,1.759,5.398 c0.249,0.387,0.488,0.748,0.716,1.087c-0.528,0.309-1.519,0.703-2.228,0.985L66.112,46.6h-30.26 c-0.759-0.303-1.756-0.708-2.263-1.023c0.224-0.334,0.458-0.689,0.703-1.068c1.023-1.587,1.397-3.524,1.759-5.398 c0.752-3.896,1.295-6.711,6.519-6.711h7.96h0.905H59.394 M59.394,31h-7.96h-0.905h-7.96c-9.303,0-6.665,8.425-9.454,12.75 c-0.329,0.509-0.638,0.974-0.928,1.401c-0.814,1.195,1.154,1.954,3.395,2.849h30.798c2.241-0.895,4.235-1.62,3.442-2.781 c-0.304-0.446-0.629-0.933-0.975-1.469C66.059,39.425,68.697,31,59.394,31L59.394,31z"/><path fill="#fde751" d="M34,58.3c-1.268,0-2.3-1.031-2.3-2.3s1.032-2.3,2.3-2.3h4c1.268,0,2.3,1.031,2.3,2.3 s-1.032,2.3-2.3,2.3H34z"/><path fill="#472b29" d="M38,54.4c0.882,0,1.6,0.718,1.6,1.6s-0.718,1.6-1.6,1.6h-4c-0.882,0-1.6-0.718-1.6-1.6 s0.718-1.6,1.6-1.6H38 M38,53h-4c-1.657,0-3,1.343-3,3s1.343,3,3,3h4c1.657,0,3-1.343,3-3S39.657,53,38,53L38,53z"/><g><path fill="#fde751" d="M64,58.3c-1.269,0-2.3-1.031-2.3-2.3s1.031-2.3,2.3-2.3h4c1.269,0,2.3,1.031,2.3,2.3 s-1.031,2.3-2.3,2.3H64z"/><path fill="#472b29" d="M68,54.4c0.882,0,1.6,0.718,1.6,1.6s-0.718,1.6-1.6,1.6h-4c-0.882,0-1.6-0.718-1.6-1.6 s0.718-1.6,1.6-1.6H68 M68,53h-4c-1.657,0-3,1.343-3,3s1.343,3,3,3h4c1.657,0,3-1.343,3-3S69.657,53,68,53L68,53z"/></g><g><path fill="#472b29" d="M73.5,63h-17c-0.276,0-0.5-0.224-0.5-0.5s0.224-0.5,0.5-0.5h17c0.276,0,0.5,0.224,0.5,0.5 S73.776,63,73.5,63z"/></g><g><path fill="#472b29" d="M45.5,63h-13c-0.276,0-0.5-0.224-0.5-0.5s0.224-0.5,0.5-0.5h13c0.276,0,0.5,0.224,0.5,0.5 S45.776,63,45.5,63z"/></g><g><path fill="#472b29" d="M44.5,45h-8c-0.276,0-0.5-0.224-0.5-0.5s0.224-0.5,0.5-0.5h8c0.276,0,0.5,0.224,0.5,0.5 S44.776,45,44.5,45z"/></g><g><path fill="#472b29" d="M51.5,45h-4c-0.276,0-0.5-0.224-0.5-0.5s0.224-0.5,0.5-0.5h4c0.276,0,0.5,0.224,0.5,0.5 S51.776,45,51.5,45z"/></g><g><path fill="#472b29" d="M53.5,63h-5c-0.276,0-0.5-0.224-0.5-0.5s0.224-0.5,0.5-0.5h5c0.276,0,0.5,0.224,0.5,0.5 S53.776,63,53.5,63z"/></g><g><path fill="#472b29" d="M46.5,59c-0.276,0-0.5-0.224-0.5-0.5v-4c0-0.276,0.224-0.5,0.5-0.5s0.5,0.224,0.5,0.5v4 C47,58.776,46.776,59,46.5,59z"/></g><g><path fill="#472b29" d="M43.5,59c-0.276,0-0.5-0.224-0.5-0.5v-4c0-0.276,0.224-0.5,0.5-0.5s0.5,0.224,0.5,0.5v4 C44,58.776,43.776,59,43.5,59z"/></g><g><path fill="#472b29" d="M49.5,59c-0.276,0-0.5-0.224-0.5-0.5v-4c0-0.276,0.224-0.5,0.5-0.5s0.5,0.224,0.5,0.5v4 C50,58.776,49.776,59,49.5,59z"/></g><g><path fill="#472b29" d="M52.5,59c-0.276,0-0.5-0.224-0.5-0.5v-4c0-0.276,0.224-0.5,0.5-0.5s0.5,0.224,0.5,0.5v4 C53,58.776,52.776,59,52.5,59z"/></g><g><path fill="#472b29" d="M55.5,59c-0.276,0-0.5-0.224-0.5-0.5v-4c0-0.276,0.224-0.5,0.5-0.5s0.5,0.224,0.5,0.5v4 C56,58.776,55.776,59,55.5,59z"/></g><g><path fill="#472b29" d="M58.5,59c-0.276,0-0.5-0.224-0.5-0.5v-4c0-0.276,0.224-0.5,0.5-0.5s0.5,0.224,0.5,0.5v4 C59,58.776,58.776,59,58.5,59z"/></g><g><path fill="#472b29" d="M65.265,47.463h-1.4c0-2.616-2.128-4.744-4.744-4.744s-4.744,2.128-4.744,4.744h-1.4 c0-3.388,2.757-6.145,6.145-6.145S65.265,44.075,65.265,47.463z"/></g><g><path fill="#ef7d99" d="M52.111,37.5h-3.223c-0.764,0-1.389-0.625-1.389-1.389v-0.223c0-0.764,0.625-1.389,1.389-1.389 h3.223c0.764,0,1.389,0.625,1.389,1.389v0.223C53.5,36.875,52.875,37.5,52.111,37.5z"/><path fill="#472b29" d="M52.111,38.2h-3.223c-1.152,0-2.089-0.938-2.089-2.089v-0.223c0-1.151,0.937-2.089,2.089-2.089 h3.223c1.151,0,2.089,0.938,2.089,2.089v0.223C54.2,37.263,53.263,38.2,52.111,38.2z M48.889,35.2c-0.38,0-0.688,0.309-0.688,0.688 v0.223c0,0.38,0.309,0.688,0.688,0.688h3.223c0.38,0,0.688-0.309,0.688-0.688v-0.223c0-0.38-0.309-0.688-0.688-0.688H48.889z"/></g></svg>