<svg xmlns="http://www.w3.org/2000/svg" viewBox="0 0 100 100" width="100px" height="100px"><path fill="#c7ede6" d="M88.136,56.788c0.299-0.614,0.563-1.259,0.792-1.935c2.622-7.739-1.343-17.008-9.693-19.245c-0.903-11.338-8.87-19.115-17.867-20.442C51.07,13.648,41.635,20.19,38.496,30.588c-3.784-1.34-7.471-1.177-10.945,0.853c-1.576,0.729-3.018,1.805-4.312,3.22c-1.9,2.077-3.134,4.7-3.637,7.465c-0.745,0.117-1.477,0.235-2.167,0.482c-4.023,1.443-6.562,4.413-7.258,8.886c-0.434,2.785,0.441,5.564,0.929,6.687c1.927,4.436,6.396,6.952,10.936,6.286c0.226-0.033,0.554,0.069,0.749,0.232c0.24,7.091,3.683,13.362,8.848,16.944c8.287,5.748,18.949,3.977,25.675-3.905c2.882,2.948,6.313,4.38,10.342,3.86c4.006-0.517,7.117-2.728,9.387-6.322c1.048,0.282,2.043,0.689,3.071,0.801c4.025,0.44,7.294-1.161,9.692-4.78c0.918-1.385,1.786-3.181,1.786-6.328C91.592,61.725,90.304,58.77,88.136,56.788z"/><path fill="#fdfcef" d="M70.147,66.166c0,0,11.643,0,11.714,0c2.689,0,4.868-2.18,4.868-4.869c0-2.346-1.659-4.303-3.868-4.765c0.025-0.205,0.043-0.413,0.043-0.625c0-2.785-2.257-5.042-5.042-5.042c-1.644,0-3.1,0.791-4.02,2.008c-0.235-3.1-3.004-5.491-6.244-5.095c-2.369,0.29-4.328,2.121-4.764,4.467c-0.14,0.752-0.125,1.483,0.014,2.168c-0.635-0.684-1.539-1.115-2.546-1.115c-1.843,0-3.347,1.435-3.466,3.248c-0.837-0.185-1.747-0.173-2.706,0.187c-1.832,0.688-3.137,2.413-3.214,4.369c-0.108,2.778,2.111,5.064,4.864,5.064c0.209,0,0.944,0,1.114,0h10.109"/><path fill="#472b29" d="M81.861,66.665H70.147c-0.276,0-0.5-0.224-0.5-0.5s0.224-0.5,0.5-0.5h11.714c2.408,0,4.368-1.96,4.368-4.368c0-2.058-1.459-3.855-3.471-4.275c-0.254-0.053-0.426-0.292-0.394-0.551c0.022-0.186,0.039-0.372,0.039-0.564c0-2.505-2.037-4.542-4.542-4.542c-1.433,0-2.753,0.659-3.621,1.81c-0.126,0.166-0.342,0.236-0.54,0.178c-0.2-0.059-0.342-0.234-0.358-0.441c-0.104-1.371-0.775-2.658-1.842-3.533c-1.077-0.883-2.44-1.274-3.843-1.104c-2.155,0.264-3.938,1.935-4.334,4.062c-0.123,0.664-0.118,1.33,0.014,1.978c0.045,0.22-0.062,0.442-0.262,0.544c-0.196,0.105-0.442,0.061-0.595-0.104c-0.571-0.615-1.345-0.954-2.18-0.954c-1.562,0-2.865,1.221-2.967,2.779c-0.01,0.146-0.082,0.28-0.198,0.367c-0.117,0.089-0.271,0.12-0.408,0.089c-0.841-0.186-1.632-0.129-2.423,0.166c-1.661,0.625-2.823,2.2-2.89,3.921c-0.047,1.201,0.385,2.339,1.216,3.203s1.949,1.341,3.148,1.341h11.224c0.276,0,0.5,0.224,0.5,0.5s-0.224,0.5-0.5,0.5H55.78c-1.474,0-2.848-0.585-3.869-1.647s-1.553-2.46-1.495-3.936c0.083-2.117,1.505-4.054,3.538-4.817c0.797-0.298,1.621-0.398,2.457-0.298c0.376-1.814,1.989-3.168,3.891-3.168c0.681,0,1.347,0.178,1.934,0.505c-0.001-0.382,0.035-0.767,0.106-1.15c0.475-2.553,2.611-4.556,5.195-4.872c1.671-0.207,3.307,0.264,4.598,1.322c1,0.819,1.709,1.941,2.03,3.178c1.007-0.91,2.309-1.417,3.697-1.417c3.056,0,5.542,2.486,5.542,5.542c0,0.083-0.002,0.165-0.007,0.246c2.245,0.671,3.832,2.767,3.832,5.145C87.229,64.257,84.821,66.665,81.861,66.665z"/><path fill="#fdfcef" d="M67.325,55.441c-1.801-0.118-3.351,1.126-3.462,2.778c-0.014,0.205-0.005,0.407,0.025,0.604c-0.347-0.392-0.862-0.659-1.452-0.697c-1.08-0.071-2.013,0.643-2.149,1.613c-0.197-0.054-0.401-0.09-0.614-0.104c-1.576-0.103-2.932,0.985-3.029,2.431"/><path fill="#472b29" d="M56.644,62.315c-0.006,0-0.011,0-0.017-0.001c-0.138-0.009-0.242-0.128-0.232-0.266c0.106-1.581,1.564-2.784,3.295-2.663c0.134,0.008,0.27,0.025,0.406,0.053c0.274-0.965,1.24-1.636,2.356-1.562c0.423,0.026,0.819,0.158,1.157,0.379c0.001-0.018,0.002-0.035,0.004-0.053c0.121-1.786,1.768-3.153,3.728-3.011c0.138,0.009,0.242,0.128,0.232,0.266c-0.008,0.137-0.106,0.255-0.266,0.232c-1.654-0.084-3.094,1.033-3.196,2.546c-0.012,0.181-0.004,0.366,0.023,0.55c0.017,0.109-0.041,0.217-0.142,0.264c-0.099,0.046-0.22,0.021-0.293-0.061c-0.321-0.363-0.776-0.581-1.28-0.614c-0.953-0.046-1.768,0.552-1.885,1.398c-0.011,0.071-0.051,0.135-0.11,0.175s-0.134,0.051-0.204,0.032c-0.189-0.052-0.379-0.084-0.563-0.097c-1.448-0.08-2.675,0.893-2.765,2.198C56.884,62.213,56.775,62.315,56.644,62.315z"/><path fill="#fdfcef" d="M83.832,57.103c-1.692-0.798-3.649-0.233-4.371,1.261c-0.09,0.186-0.156,0.377-0.2,0.571"/><path fill="#472b29" d="M79.26,59.186c-0.019,0-0.037-0.002-0.057-0.007c-0.134-0.03-0.218-0.165-0.187-0.3c0.05-0.218,0.124-0.428,0.219-0.624c0.779-1.615,2.888-2.234,4.702-1.379c0.125,0.06,0.179,0.208,0.12,0.333c-0.06,0.125-0.211,0.177-0.333,0.12c-1.566-0.739-3.38-0.226-4.039,1.144c-0.079,0.162-0.14,0.337-0.183,0.52C79.477,59.108,79.374,59.186,79.26,59.186z"/><path fill="#fff" d="M18.089 48.859H8.1c-.276 0-.5-.224-.5-.5s.224-.5.5-.5h9.989c.276 0 .5.224.5.5S18.366 48.859 18.089 48.859zM20.958 48.859h-1.439c-.276 0-.5-.224-.5-.5s.224-.5.5-.5h1.439c.276 0 .5.224.5.5S21.235 48.859 20.958 48.859zM24.997 48.859h-2.535c-.276 0-.5-.224-.5-.5s.224-.5.5-.5h2.535c.276 0 .5.224.5.5S25.273 48.859 24.997 48.859zM24.997 50.716H15.42c-.276 0-.5-.224-.5-.5s.224-.5.5-.5h9.576c.276 0 .5.224.5.5S25.273 50.716 24.997 50.716zM13.696 50.716h-.578c-.276 0-.5-.224-.5-.5s.224-.5.5-.5h.578c.276 0 .5.224.5.5S13.972 50.716 13.696 50.716zM11.329 50.716h-1.45c-.276 0-.5-.224-.5-.5s.224-.5.5-.5h1.45c.276 0 .5.224.5.5S11.605 50.716 11.329 50.716zM20.427 47.001H15.42c-.276 0-.5-.224-.5-.5s.224-.5.5-.5h5.007c.276 0 .5.224.5.5S20.704 47.001 20.427 47.001zM20.427 45.145h-1.253c-.276 0-.5-.224-.5-.5s.224-.5.5-.5h1.253c.276 0 .5.224.5.5S20.704 45.145 20.427 45.145zM17.171 52.574H15.42c-.276 0-.5-.224-.5-.5s.224-.5.5-.5h1.751c.276 0 .5.224.5.5S17.448 52.574 17.171 52.574zM71.049 22.69H61.06c-.276 0-.5-.224-.5-.5s.224-.5.5-.5h9.989c.276 0 .5.224.5.5S71.326 22.69 71.049 22.69zM73.918 22.69h-1.439c-.276 0-.5-.224-.5-.5s.224-.5.5-.5h1.439c.276 0 .5.224.5.5S74.195 22.69 73.918 22.69zM77.956 22.69h-2.535c-.276 0-.5-.224-.5-.5s.224-.5.5-.5h2.535c.276 0 .5.224.5.5S78.233 22.69 77.956 22.69zM75.939 18.975h-9.576c-.276 0-.5-.224-.5-.5s.224-.5.5-.5h9.576c.276 0 .5.224.5.5S76.215 18.975 75.939 18.975zM64.638 18.975H64.06c-.276 0-.5-.224-.5-.5s.224-.5.5-.5h.578c.276 0 .5.224.5.5S64.914 18.975 64.638 18.975zM62.271 18.975h-1.45c-.276 0-.5-.224-.5-.5s.224-.5.5-.5h1.45c.276 0 .5.224.5.5S62.547 18.975 62.271 18.975zM73.386 20.832h-5.007c-.276 0-.5-.224-.5-.5s.224-.5.5-.5h5.007c.276 0 .5.224.5.5S73.663 20.832 73.386 20.832z"/><path fill="#fff" d="M73.386 18.975h-1.252c-.276 0-.5-.224-.5-.5s.224-.5.5-.5h1.252c.276 0 .5.224.5.5S73.663 18.975 73.386 18.975zM66.93 20.832h-1.751c-.276 0-.5-.224-.5-.5s.224-.5.5-.5h1.751c.276 0 .5.224.5.5S67.206 20.832 66.93 20.832z"/><path fill="#c0e5e4" d="M65.454,66.166H32.053c-2.567,0-4.667-2.1-4.667-4.667V41.74c0-2.567,2.1-4.667,4.667-4.667h33.401c2.567,0,4.667,2.1,4.667,4.667v19.759C70.121,64.066,68.021,66.166,65.454,66.166z"/><path fill="#472b29" d="M65.454,66.866h-33.4c-2.959,0-5.366-2.407-5.366-5.366V41.74c0-2.959,2.407-5.366,5.366-5.366h33.4c2.959,0,5.367,2.407,5.367,5.366v19.76C70.821,64.458,68.413,66.866,65.454,66.866z M32.053,37.774c-2.187,0-3.966,1.779-3.966,3.966v19.76c0,2.187,1.779,3.966,3.966,3.966h33.4c2.188,0,3.967-1.779,3.967-3.966V41.74c0-2.187-1.779-3.966-3.967-3.966H32.053z"/><path fill="#a8dbdb" d="M29.52,64.357c0.844,0.909,1.43,1.086,2.719,1.086h33.262c1.289,0,1.675,0.011,2.519-0.897L48.77,47.02L29.52,64.357z"/><path fill="#e0fcf8" d="M68.02,38.729c-0.844-0.802-1.43-0.958-2.719-0.958H32.039c-1.289,0-1.675-0.01-2.519,0.792l19.709,15.465L68.02,38.729z"/><path fill="#472b29" d="M49.315 54.86c-.081 0-.162-.026-.23-.079L28.456 38.723c-.163-.127-.192-.363-.065-.526.129-.164.363-.192.526-.065l20.391 15.873 19.274-15.866c.158-.132.397-.108.527.051.132.16.109.396-.051.527L49.553 54.774C49.484 54.831 49.4 54.86 49.315 54.86zM29.248 65.291c-.103 0-.205-.042-.279-.125-.139-.154-.125-.392.029-.529l12.783-11.421c.154-.138.392-.125.529.029.139.154.125.392-.029.529L29.498 65.196C29.427 65.26 29.337 65.291 29.248 65.291zM68.259 65.291c-.089 0-.179-.031-.25-.096L55.226 53.775c-.154-.138-.168-.375-.029-.529.138-.154.376-.167.529-.029l12.783 11.421c.154.138.168.375.029.529C68.465 65.249 68.362 65.291 68.259 65.291z"/><path fill="#e1e0d8" d="M56.999,32.411c-0.002,2.933,1.808,5.707,4.921,7.54l0,0c0,1.584-0.462,3.338-1.039,4.454c-0.205,0.396,0.116,0.857,0.559,0.809c2.872-0.315,5.594-1.734,7.04-3.152h1.64c7.247,0,13.121-4.321,13.121-9.651s-5.875-9.651-13.121-9.651S56.999,27.081,56.999,32.411"/><path fill="#472b29" d="M61.379,45.717c-0.349,0-0.677-0.17-0.876-0.461c-0.22-0.321-0.245-0.735-0.066-1.081c0.461-0.891,0.926-2.428,0.978-3.945c-3.131-1.934-4.918-4.771-4.915-7.82c0-5.596,6.11-10.149,13.621-10.149s13.621,4.554,13.621,10.15c0,5.598-6.11,10.151-13.621,10.151h-1.44c-1.464,1.355-4.197,2.821-7.186,3.149C61.456,45.715,61.417,45.717,61.379,45.717z M70.121,23.26c-6.959,0-12.621,4.104-12.621,9.15c0,0,0,0,0,0.001c-0.003,2.767,1.701,5.357,4.674,7.108c0.152,0.09,0.246,0.254,0.246,0.431c0,1.56-0.43,3.398-1.094,4.684l0.114,0.58l-0.055-0.497c2.856-0.313,5.446-1.739,6.745-3.013c0.093-0.091,0.219-0.143,0.35-0.143h1.641c6.959,0,12.621-4.105,12.621-9.151S77.08,23.26,70.121,23.26z M56.999,32.411h0.01H56.999z"/><path fill="#472b29" d="M76.202 28.864h-3.613c-.138 0-.25-.112-.25-.25s.112-.25.25-.25h3.613c.138 0 .25.112.25.25S76.339 28.864 76.202 28.864zM70.983 28.864h-7.628c-.138 0-.25-.112-.25-.25s.112-.25.25-.25h7.628c.138 0 .25.112.25.25S71.121 28.864 70.983 28.864zM77.807 31.272H67.771c-.138 0-.25-.112-.25-.25s.112-.25.25-.25h10.036c.138 0 .25.112.25.25S77.945 31.272 77.807 31.272zM66.165 31.272h-4.817c-.138 0-.25-.112-.25-.25s.112-.25.25-.25h4.817c.138 0 .25.112.25.25S66.303 31.272 66.165 31.272zM73.792 33.681H61.348c-.138 0-.25-.112-.25-.25s.112-.25.25-.25h12.444c.138 0 .25.112.25.25S73.93 33.681 73.792 33.681zM70.522 36.491h-7.167c-.138 0-.25-.112-.25-.25s.112-.25.25-.25h7.167c.138 0 .25.112.25.25S70.66 36.491 70.522 36.491z"/><path fill="#f1bc19" d="M77.368 34.178A5.005 5.005 0 1 0 77.368 44.188A5.005 5.005 0 1 0 77.368 34.178Z"/><path fill="#472b29" d="M77.369,44.689c-3.036,0-5.506-2.47-5.506-5.506c0-3.035,2.47-5.505,5.506-5.505c3.035,0,5.505,2.47,5.505,5.505C82.873,42.219,80.404,44.689,77.369,44.689z M77.369,34.678c-2.484,0-4.506,2.021-4.506,4.505s2.021,4.506,4.506,4.506s4.505-2.021,4.505-4.506S79.853,34.678,77.369,34.678z"/><path fill="#472b29" d="M78.649,37.971l-0.189,1.577c-0.008,0.058-0.014,0.114-0.017,0.167c-0.003,0.053-0.005,0.103-0.005,0.149c0,0.15,0.062,0.225,0.186,0.225c0.174,0,0.332-0.123,0.475-0.369c0.14-0.242,0.21-0.519,0.21-0.829c0-0.493-0.172-0.896-0.517-1.21c-0.342-0.318-0.78-0.478-1.313-0.478c-0.557,0-1.025,0.19-1.406,0.571c-0.378,0.378-0.568,0.847-0.568,1.406c0,0.308,0.068,0.611,0.204,0.907c0.138,0.278,0.331,0.508,0.58,0.688c0.332,0.24,0.749,0.36,1.249,0.36c0.469,0,0.959-0.119,1.472-0.357l0.045-0.024l0.156,0.433l-0.036,0.018c-0.523,0.252-1.067,0.378-1.634,0.378c-0.627,0-1.151-0.151-1.574-0.454c-0.31-0.22-0.553-0.502-0.727-0.844c-0.172-0.36-0.258-0.727-0.258-1.099c0-0.679,0.239-1.248,0.718-1.709c0.479-0.461,1.069-0.691,1.772-0.691c0.647,0,1.188,0.198,1.625,0.595c0.435,0.392,0.652,0.884,0.652,1.475c0,0.457-0.118,0.848-0.354,1.174c-0.238,0.33-0.518,0.496-0.838,0.496c-0.256,0-0.431-0.121-0.523-0.363c-0.246,0.252-0.521,0.378-0.823,0.378c-0.33,0-0.606-0.119-0.826-0.357c-0.216-0.236-0.324-0.538-0.324-0.904c0-0.394,0.121-0.719,0.363-0.973c0.242-0.26,0.547-0.39,0.913-0.39c0.336,0,0.608,0.13,0.814,0.39l0.042-0.333H78.649z M78.036,39.131c0-0.186-0.063-0.341-0.189-0.466c-0.13-0.124-0.288-0.186-0.475-0.186c-0.202,0-0.367,0.078-0.496,0.234c-0.13,0.154-0.195,0.351-0.195,0.592c0,0.208,0.052,0.379,0.156,0.514c0.104,0.134,0.238,0.201,0.402,0.201c0.21,0,0.395-0.089,0.556-0.267C77.956,39.574,78.036,39.367,78.036,39.131z"/><path fill="#fdfcef" d="M36.082,69.114c1.876,0,3.502,0,3.526,0c2.101,0,3.805-1.667,3.805-3.724c0-1.794-1.297-3.292-3.023-3.645c0.02-0.157,0.033-0.316,0.033-0.478c0-2.13-1.764-3.857-3.941-3.857c-1.285,0-2.423,0.605-3.142,1.536c-0.184-2.371-2.348-4.2-4.88-3.897c-1.851,0.222-3.383,1.622-3.723,3.417c-0.109,0.576-0.098,1.134,0.011,1.659c-0.496-0.523-1.203-0.853-1.99-0.853c-1.44,0-2.616,1.097-2.709,2.484c-0.654-0.142-1.365-0.132-2.115,0.143c-1.432,0.526-2.452,1.846-2.512,3.342c-0.085,2.125,1.65,3.873,3.802,3.873c0.163,0,0.738,0,0.87,0h7.901 M29.632,69.114h0.358"/><path fill="#472b29" d="M39.608,69.614h-3.525c-0.276,0-0.5-0.224-0.5-0.5s0.224-0.5,0.5-0.5h3.525c1.822,0,3.305-1.446,3.305-3.224c0-1.518-1.103-2.845-2.622-3.154c-0.256-0.053-0.429-0.293-0.396-0.552c0.017-0.137,0.029-0.275,0.029-0.417c0-1.852-1.543-3.357-3.44-3.357c-1.087,0-2.088,0.489-2.747,1.343c-0.125,0.164-0.339,0.231-0.539,0.174c-0.197-0.06-0.339-0.234-0.354-0.44c-0.079-1.015-0.563-1.936-1.363-2.592c-0.824-0.677-1.873-0.977-2.959-0.849c-1.639,0.196-2.992,1.436-3.292,3.015c-0.094,0.49-0.09,0.982,0.009,1.463c0.046,0.219-0.06,0.441-0.258,0.545c-0.197,0.103-0.439,0.063-0.595-0.1c-0.426-0.449-1.003-0.696-1.626-0.696c-1.164,0-2.135,0.887-2.21,2.018c-0.01,0.146-0.082,0.278-0.198,0.366c-0.116,0.087-0.264,0.122-0.406,0.089c-0.635-0.136-1.236-0.098-1.836,0.124c-1.257,0.461-2.135,1.623-2.185,2.892c-0.035,0.871,0.281,1.7,0.89,2.334c0.632,0.657,1.488,1.02,2.412,1.02h8.771c0.276,0,0.5,0.224,0.5,0.5s-0.224,0.5-0.5,0.5h-8.771c-1.181,0-2.323-0.483-3.133-1.327c-0.8-0.831-1.214-1.92-1.169-3.065c0.066-1.669,1.208-3.192,2.839-3.792c0.608-0.223,1.235-0.301,1.872-0.243c0.344-1.39,1.623-2.414,3.124-2.414c0.49,0,0.971,0.112,1.405,0.32c0.009-0.239,0.036-0.479,0.082-0.72c0.38-2.001,2.089-3.572,4.155-3.819c1.361-0.164,2.675,0.216,3.712,1.067c0.744,0.61,1.272,1.402,1.54,2.291c0.788-0.645,1.778-1.002,2.83-1.002c2.448,0,4.44,1.955,4.44,4.357c0,0.033-0.001,0.067-0.001,0.101c1.756,0.552,2.99,2.18,2.99,4.022C43.913,67.719,41.982,69.614,39.608,69.614z M29.99,69.614h-0.358c-0.276,0-0.5-0.224-0.5-0.5s0.224-0.5,0.5-0.5h0.358c0.276,0,0.5,0.224,0.5,0.5S30.266,69.614,29.99,69.614z"/><path fill="#472b29" d="M37.908 63.833c-.018 0-.036-.002-.055-.006-.135-.03-.22-.164-.189-.299.037-.165.094-.325.168-.477.604-1.221 2.269-1.672 3.708-1.003.126.058.181.206.122.331-.058.126-.209.18-.331.122-1.198-.553-2.566-.208-3.05.771-.058.116-.101.238-.129.365C38.125 63.754 38.022 63.833 37.908 63.833zM32.77 69.614h-1.103c-.276 0-.5-.224-.5-.5s.224-.5.5-.5h1.103c.276 0 .5.224.5.5S33.046 69.614 32.77 69.614z"/></svg>