<?xml version="1.0" encoding="UTF-8"?>
<svg xmlns="http://www.w3.org/2000/svg" xmlns:xlink="http://www.w3.org/1999/xlink" width="50pt" height="50pt" viewBox="0 0 50 50" version="1.1">
<g id="surface22644385">
<path style=" stroke:none;fill-rule:nonzero;fill:rgb(100%,100%,100%);fill-opacity:1;" d="M 25 2 C 12.265625 2 2 12.265625 2 25 C 2 37.734375 12.265625 48 25 48 C 37.734375 48 48 37.734375 48 25 C 48 12.265625 37.734375 2 25 2 Z M 25 4 C 36.664062 4 46 13.335938 46 25 C 46 36.664062 36.664062 46 25 46 C 13.335938 46 4 36.664062 4 25 C 4 13.335938 13.335938 4 25 4 Z M 24 10 L 24 12.800781 C 18.398438 13.101562 17.5 17.300781 17.5 19.199219 C 17.5 23.800781 20.699219 24.898438 24 25.699219 L 24 35.5 C 22.199219 35.199219 18.800781 34 19 29.300781 L 16.902344 29.300781 C 17.101562 36 21.398438 36.898438 24.101562 37.199219 L 24.101562 40 L 26.101562 40 L 26.101562 37.199219 C 32.800781 36.699219 33.300781 31.699219 33.300781 30.699219 C 33.199219 26.097656 29.5 25 26 24.199219 L 26 14.5 C 29.898438 15 30.5 18.402344 30.5 19.902344 L 32.597656 19.902344 C 32.800781 17.101562 30.800781 13 26 12.800781 L 26 10 Z M 24 14.5 L 24 23.699219 C 21.5 23 19.5 22.101562 19.5 19.398438 C 19.5 17.300781 20.300781 14.800781 24 14.5 Z M 26 26.300781 C 28.800781 27 31.199219 27.800781 31.199219 30.800781 C 31.199219 31.5 31 35.199219 26 35.601562 Z M 26 26.300781 "/>
</g>
</svg>
