<?xml version="1.0" encoding="UTF-8"?>
<svg xmlns="http://www.w3.org/2000/svg" xmlns:xlink="http://www.w3.org/1999/xlink" width="64pt" height="64pt" viewBox="0 0 64 64" version="1.1">
<g id="surface22058215">
<path style=" stroke:none;fill-rule:nonzero;fill:rgb(100%,100%,100%);fill-opacity:1;" d="M 32 0 C 14.398438 0 0 14.398438 0 32 C 0 49.601562 14.398438 64 32 64 C 49.601562 64 64 49.601562 64 32 C 64 14.398438 49.601562 0 32 0 Z M 32 5.332031 C 46.667969 5.332031 58.667969 17.332031 58.667969 32 C 58.667969 46.667969 46.667969 58.667969 32 58.667969 C 17.332031 58.667969 5.332031 46.667969 5.332031 32 C 5.332031 17.332031 17.332031 5.332031 32 5.332031 Z M 31.46875 10.667969 L 31.46875 15.46875 C 28.535156 15.734375 26.398438 16.800781 24.53125 18.402344 C 22.664062 20.269531 21.863281 22.136719 21.863281 24.800781 C 21.863281 27.46875 22.664062 29.597656 24.265625 31.199219 C 25.867188 32.53125 28.535156 33.863281 32 35.199219 C 33.601562 35.730469 34.664062 36.535156 35.199219 37.066406 C 35.730469 37.601562 36 38.667969 36 39.734375 C 36 40.800781 35.730469 41.601562 35.199219 42.136719 C 34.664062 42.667969 33.863281 42.933594 32.53125 42.933594 C 30.929688 42.933594 29.867188 42.664062 29.066406 41.863281 C 28.269531 41.066406 27.734375 39.734375 27.734375 38.136719 L 20.265625 38.136719 L 20.265625 38.402344 C 20.265625 41.867188 21.332031 44.265625 23.199219 45.863281 C 25.066406 47.464844 27.734375 48.535156 30.667969 48.800781 L 30.667969 53.332031 L 34.136719 53.332031 L 34.136719 49.066406 C 37.070312 48.800781 39.46875 48 41.066406 46.402344 C 42.667969 44.800781 43.46875 42.667969 43.46875 40 C 43.46875 37.066406 42.402344 34.933594 40.800781 33.332031 C 39.203125 31.734375 36.535156 30.398438 33.066406 29.332031 C 31.46875 28.535156 30.398438 27.730469 29.863281 27.199219 C 29.332031 26.664062 29.066406 25.867188 29.066406 24.800781 C 29.066406 23.734375 29.332031 22.933594 29.863281 22.136719 C 30.398438 21.335938 31.199219 21.066406 32.53125 21.066406 C 33.597656 21.066406 34.398438 21.601562 35.199219 22.136719 C 35.996094 22.667969 36.265625 23.734375 36.265625 25.332031 L 43.734375 25.332031 C 43.734375 22.667969 42.933594 20.535156 41.332031 18.667969 C 39.734375 16.800781 37.332031 15.734375 34.667969 15.46875 L 34.667969 10.667969 Z M 31.46875 10.667969 "/>
</g>
</svg>
