<svg xmlns="http://www.w3.org/2000/svg" viewBox="0 0 100 100" width="500px" height="500px"><path fill="#c7ede6" d="M87.215,56.71C88.35,54.555,89,52.105,89,49.5c0-6.621-4.159-12.257-10.001-14.478 C78.999,35.015,79,35.008,79,35c0-11.598-9.402-21-21-21c-9.784,0-17.981,6.701-20.313,15.757C36.211,29.272,34.638,29,33,29 c-7.692,0-14.023,5.793-14.89,13.252C12.906,43.353,9,47.969,9,53.5C9,59.851,14.149,65,20.5,65c0.177,0,0.352-0.012,0.526-0.022 C21.022,65.153,21,65.324,21,65.5C21,76.822,30.178,86,41.5,86c6.437,0,12.175-2.972,15.934-7.614C59.612,80.611,62.64,82,66,82 c4.65,0,8.674-2.65,10.666-6.518C77.718,75.817,78.837,76,80,76c6.075,0,11-4.925,11-11C91,61.689,89.53,58.727,87.215,56.71z"/><path fill="#fff" d="M75.405 75H65.5c-.276 0-.5-.224-.5-.5s.224-.5.5-.5h9.905c.276 0 .5.224.5.5S75.682 75 75.405 75zM78.5 75h-1c-.276 0-.5-.224-.5-.5s.224-.5.5-.5h1c.276 0 .5.224.5.5S78.777 75 78.5 75zM83.491 77H74.5c-.276 0-.5-.224-.5-.5s.224-.5.5-.5h8.991c.276 0 .5.224.5.5S83.767 77 83.491 77zM72.5 77h-1c-.276 0-.5-.224-.5-.5s.224-.5.5-.5h1c.276 0 .5.224.5.5S72.777 77 72.5 77zM69.5 77h-2c-.276 0-.5-.224-.5-.5s.224-.5.5-.5h2c.276 0 .5.224.5.5S69.777 77 69.5 77zM75.5 79h-2c-.276 0-.5-.224-.5-.5s.224-.5.5-.5h2c.276 0 .5.224.5.5S75.776 79 75.5 79zM78.5 70c-.177 0-.823 0-1 0-.276 0-.5.224-.5.5 0 .276.224.5.5.5.177 0 .823 0 1 0 .276 0 .5-.224.5-.5C79 70.224 78.776 70 78.5 70zM78.5 72c-.177 0-4.823 0-5 0-.276 0-.5.224-.5.5 0 .276.224.5.5.5.177 0 4.823 0 5 0 .276 0 .5-.224.5-.5C79 72.224 78.776 72 78.5 72zM83.5 74c-.177 0-2.823 0-3 0-.276 0-.5.224-.5.5 0 .276.224.5.5.5.177 0 2.823 0 3 0 .276 0 .5-.224.5-.5C84 74.224 83.776 74 83.5 74z"/><g><path fill="#fff" d="M47.5 20h-10c-.276 0-.5-.224-.5-.5s.224-.5.5-.5h10c.276 0 .5.224.5.5S47.776 20 47.5 20zM51.5 20h-2c-.276 0-.5-.224-.5-.5s.224-.5.5-.5h2c.276 0 .5.224.5.5S51.776 20 51.5 20zM56.5 22h-10c-.276 0-.5-.224-.5-.5s.224-.5.5-.5h10c.276 0 .5.224.5.5S56.777 22 56.5 22zM44.5 22h-1c-.276 0-.5-.224-.5-.5s.224-.5.5-.5h1c.276 0 .5.224.5.5S44.776 22 44.5 22zM41.375 22H39.5c-.276 0-.5-.224-.5-.5s.224-.5.5-.5h1.875c.276 0 .5.224.5.5S41.651 22 41.375 22zM50.5 18h-5c-.276 0-.5-.224-.5-.5s.224-.5.5-.5h5c.276 0 .5.224.5.5S50.777 18 50.5 18zM47.5 24h-2c-.276 0-.5-.224-.5-.5s.224-.5.5-.5h2c.276 0 .5.224.5.5S47.776 24 47.5 24z"/></g><g><path fill="#fdfcef" d="M63.125,38c0,0-3.64,0-6.125,0s-4.5-2.015-4.5-4.5c0-2.333,1.782-4.229,4.055-4.455 C56.533,28.864,56.5,28.687,56.5,28.5c0-2.485,2.015-4.5,4.5-4.5c1.438,0,2.703,0.686,3.527,1.736C64.667,23.1,66.829,21,69.5,21 c2.761,0,5,2.239,5,5c0,0.446-0.077,0.87-0.187,1.282C74.955,26.505,75.914,26,77,26c1.781,0,3.234,1.335,3.455,3.055 C80.636,29.033,80.813,29,81,29c2.485,0,4.5,2.015,4.5,4.5S83.485,38,81,38s-9.5,0-9.5,0h-5.375v0.5h-3V38z"/><path fill="#472b29" d="M69.5,20.5c3.033,0,5.5,2.467,5.5,5.5c0,0.016,0,0.031,0,0.047c0.602-0.354,1.29-0.547,2-0.547 c1.831,0,3.411,1.261,3.858,3.005C80.905,28.502,80.952,28.5,81,28.5c2.757,0,5,2.243,5,5s-2.243,5-5,5H66.125 c-0.276,0-0.5-0.224-0.5-0.5s0.224-0.5,0.5-0.5H81c2.206,0,4-1.794,4-4s-1.794-4-4-4c-0.117,0-0.23,0.017-0.343,0.032 l-0.141,0.019c-0.021,0.003-0.041,0.004-0.062,0.004c-0.246,0-0.462-0.185-0.495-0.437C79.768,27.625,78.496,26.5,77,26.5 c-0.885,0-1.723,0.401-2.301,1.1c-0.098,0.118-0.241,0.182-0.386,0.182c-0.078,0-0.156-0.018-0.228-0.056 c-0.209-0.107-0.314-0.346-0.254-0.573C73.946,26.718,74,26.352,74,26c0-2.481-2.019-4.5-4.5-4.5 c-2.381,0-4.347,1.872-4.474,4.263c-0.011,0.208-0.15,0.387-0.349,0.45c-0.05,0.016-0.101,0.024-0.152,0.024 c-0.15,0-0.296-0.069-0.392-0.192C63.362,25.063,62.221,24.5,61,24.5c-2.206,0-4,1.794-4,4c0,0.117,0.017,0.23,0.032,0.343 l0.019,0.141c0.016,0.134-0.022,0.268-0.106,0.373c-0.084,0.105-0.207,0.172-0.34,0.185C54.549,29.747,53,31.449,53,33.5 c0,2.206,1.794,4,4,4h6.125c0.276,0,0.5,0.224,0.5,0.5s-0.224,0.5-0.5,0.5H57c-2.757,0-5-2.243-5-5 c0-2.397,1.689-4.413,4.003-4.877C56.001,28.582,56,28.541,56,28.5c0-2.757,2.243-5,5-5c1.176,0,2.293,0.416,3.183,1.164 C64.781,22.26,66.945,20.5,69.5,20.5L69.5,20.5z"/><path fill="#472b29" d="M71 27.5c1.403 0 2.609.999 2.913 2.341.367-.222.786-.341 1.212-.341 1.202 0 2.198.897 2.353 2.068.203-.045.396-.068.585-.068 1.529 0 2.811 1.2 2.918 2.732.009.138-.094.257-.232.267-.006 0-.012 0-.018 0-.13 0-.24-.101-.249-.232C80.393 32.996 79.33 32 78.063 32c-.229 0-.47.042-.738.127-.022.007-.045.01-.067.01-.055 0-.11-.02-.156-.054C77.038 32.037 77 31.955 77 31.875 77 30.841 76.159 30 75.125 30c-.447 0-.885.168-1.231.473-.047.041-.106.063-.165.063-.032 0-.063-.006-.093-.019-.088-.035-.148-.117-.155-.212C73.377 29.012 72.288 28 71 28c-.208 0-.425.034-.682.107-.023.007-.047.01-.07.01-.109 0-.207-.073-.239-.182-.038-.133.039-.271.172-.309C70.483 27.54 70.744 27.5 71 27.5L71 27.5zM57.117 29c1.326 0 2.508.897 2.874 2.182.038.133-.039.271-.172.309-.023.007-.046.01-.068.01-.109 0-.209-.072-.24-.182-.305-1.071-1.289-1.818-2.393-1.818-.117 0-.23.014-.342.029-.012.002-.023.003-.035.003-.121 0-.229-.092-.246-.217-.019-.137.077-.263.214-.281C56.842 29.016 56.978 29 57.117 29L57.117 29z"/></g><g><path fill="#d8ad8f" d="M75.315,60.065c-0.469-0.328-6.486-2.411-6.486-2.411c-0.382-0.102-0.595-0.411-0.663-0.756 c-0.082-0.417-0.125-1.084-0.147-1.744c1.62-0.889,2.89-2.192,3.882-3.807c0.165-0.268,0.294-0.751,0.297-1.065 c0.006-0.623,0.006-1.247,0.008-1.87c0.384-0.054,0.65-0.272,0.801-0.751c0.25-0.79,0.623-2.436,0.628-2.451 c0.335-1.023-0.162-1.551-1.135-1.532c0.121-0.075,0.493-0.455,0.64-0.749c0.023,0.001,0.046,0.004,0.07,0.004 c0.095,0,0.187-0.008,0.279-0.02c1.28,0.413,3.23,0.161,3.743-2.845c-0.47,0.604-1.252,0.859-1.907,0.8 c-0.005-0.273-0.065-0.534-0.172-0.77c0.379-0.355,0.615-0.849,0.615-1.397c0-1.078-0.912-1.953-2.036-1.953 c-0.008,0-0.016,0.001-0.024,0.001c0.079-0.239,0.122-0.494,0.122-0.758c0-1.386-1.171-2.509-2.616-2.509 c-0.248,0-0.488,0.035-0.715,0.097c0.001-0.033,0.005-0.064,0.005-0.097c0-1.642-1.462-2.973-3.266-2.973 c-1.043,0-1.969,0.446-2.567,1.139c-0.665-0.417-1.501-0.667-2.411-0.667c-2.163,0-3.917,1.402-3.917,3.132 c0,0.076,0.008,0.151,0.014,0.226c-0.508,0.244-0.9,0.64-1.072,1.152c-0.17,0.505,0.388,1.916,0.366,1.966l0,0 c-0.142,0.002-1.5,0.101-1.2,1.489c0.065,0.3,0.551,4.6,0.81,4.728c-0.972-0.019-1.468,0.512-1.132,1.535 c0.005,0.014,0.378,1.661,0.628,2.451c0.168,0.531,0.477,0.743,0.933,0.763c0.005,0.527,0.006,1.054-0.017,1.579 c-0.029,0.661,0.171,1.239,0.542,1.776c0.949,1.374,2.147,2.497,3.598,3.342c-0.022,0.661-0.064,1.336-0.145,1.778 c-0.063,0.347-0.281,0.655-0.663,0.756l-4.919,1.69c-0.492,0.135-0.965,0.327-1.381,0.596c-2.171,1.403-2.3,4.195-2.257,4.354 h12.469h12.469C77.428,64.135,77.333,61.475,75.315,60.065z"/><path fill="#efa21b" d="M68.118,40.625c0.43,0.858,1.362,1.454,2.445,1.454c0.265,0,0.521-0.037,0.763-0.104 c0.379,0.449,0.967,0.739,1.629,0.739c0.093,0,0.184-0.008,0.273-0.019c1.201,0.377,3.159,0.605,3.749-1.93 c-0.453,0.344-1.301,0.436-1.691,0.194c-0.005-0.269-0.069-0.715-0.175-0.948c0.376-0.349,0.611-0.835,0.611-1.374 c0-1.061-0.906-1.92-2.023-1.92c-0.008,0-0.016,0.001-0.024,0.001c0.078-0.235,0.121-0.485,0.121-0.745 c0-1.363-1.164-2.467-2.6-2.467c-0.247,0-0.485,0.035-0.711,0.096c0.001-0.032,0.005-0.063,0.005-0.096 c0-1.615-1.453-2.923-3.245-2.923c-1.036,0-1.956,0.439-2.551,1.12c-0.661-0.41-1.491-0.656-2.396-0.656 c-2.149,0-3.892,1.379-3.892,3.08c0,0.075,0.008,0.149,0.014,0.223c-0.505,0.24-0.894,0.629-1.066,1.133 c-0.011,0.034,0.311,1.706,0.358,1.895c0.347,0.451,0.88,0.823,1.539,1.022c0.675,0.203,1.356,0.186,1.929-0.003 c0.475,1.585,2.31,2.767,4.502,2.767C66.577,41.162,67.411,40.965,68.118,40.625z"/><path fill="#b2876b" d="M64.913,64.235h12.383c0.042-0.153-0.052-2.719-2.057-4.079c-0.466-0.316-6.441-2.326-6.441-2.326 c-0.38-0.098-0.627-0.373-0.77-0.683c-0.236-0.512-0.134-2.062-0.134-2.062s-1.476,0.893-2.678,1.121 c-1.179,0.117-3.207-1.026-3.207-1.026s-0.104,1.509-0.184,1.935c-0.063,0.334-0.417,0.617-0.797,0.715l-4.885,1.63 c-0.489,0.13-0.959,0.316-1.371,0.575c-2.156,1.353-2.284,4.047-2.242,4.2H64.913z"/><path fill="#6d3c14" d="M57.904,37.71c-0.121,0.021-0.341,0.105-0.437,0.123c-0.763,0.148-0.697,0.793-0.697,0.793 l0.719,4.613c0.023-0.399,0.124-3.955,1.256-4.927C58.685,38.285,57.958,37.814,57.904,37.71z" opacity=".34"/><path fill="#472b29" d="M63.71 43.07c-1.267-.36-3.422-.452-4.704-.246-.073.012-.125.064-.125.125.001.061.054.113.127.124.026.004 3.228.386 4.234.683.017.005.035.007.052.007.05 0 .099-.02.128-.056l.365-.447c.027-.033.033-.074.018-.111C63.791 43.112 63.755 43.083 63.71 43.07zM66.24 43.07c1.267-.36 3.422-.452 4.704-.246.073.012.125.064.125.125-.001.061-.054.113-.127.124-.026.004-3.228.386-4.234.683-.017.005-.035.007-.052.007-.05 0-.099-.02-.128-.056l-.365-.447c-.027-.033-.033-.074-.018-.111C66.159 43.112 66.195 43.083 66.24 43.07zM61.476 44.503c-.319 0-.599.208-.76.523.04-.012.082-.021.126-.021.261 0 .473.234.473.522 0 .288-.212.522-.473.522-.086 0-.165-.027-.234-.071.112.473.458.818.869.818.501 0 .907-.513.907-1.146C62.382 45.016 61.977 44.503 61.476 44.503zM68.414 44.503c-.272 0-.516.152-.682.392.052-.022.108-.035.166-.035.261 0 .473.234.473.522 0 .288-.212.522-.473.522-.162 0-.305-.09-.39-.227.012.62.412 1.119.906 1.119.501 0 .907-.513.907-1.146C69.321 45.016 68.915 44.503 68.414 44.503z"/><path fill="#472b29" d="M64.928,50.405c0.53,0,1.044-0.229,1.376-0.613c0.074-0.086,0.064-0.217-0.023-0.291 c-0.088-0.074-0.219-0.064-0.294,0.021c-0.228,0.258-0.615,0.406-1.059,0.406s-0.831-0.148-1.059-0.406 c-0.072-0.082-0.207-0.093-0.294-0.02c-0.087,0.074-0.097,0.205-0.022,0.291C63.884,50.176,64.398,50.405,64.928,50.405z" opacity=".41"/><path fill="#472b29" d="M65.098,56.375c-1.275,0-3.306-1.138-3.396-1.188c-0.12-0.068-0.163-0.221-0.095-0.341 c0.067-0.12,0.218-0.163,0.341-0.095c0.021,0.012,2.197,1.234,3.288,1.117c1.115-0.113,2.749-1.127,2.766-1.137 c0.117-0.073,0.271-0.036,0.344,0.079c0.073,0.117,0.038,0.271-0.08,0.345c-0.071,0.044-1.749,1.085-2.979,1.211 C65.226,56.372,65.163,56.375,65.098,56.375z"/><path fill="#e2900e" d="M75.286,40.889c-0.005-0.267-0.069-0.711-0.175-0.942c0.376-0.346,0.611-0.829,0.611-1.364 c0-1.053-0.906-1.907-2.023-1.907c-0.008,0-0.016,0.001-0.024,0.001c0.078-0.234,0.121-0.482,0.121-0.74 c0-1.353-1.164-2.45-2.6-2.45c-0.247,0-0.485,0.035-0.711,0.095c0.001-0.032,0.005-0.063,0.005-0.095 c0-1.604-1.453-2.903-3.245-2.903c-0.807,0-1.541,0.266-2.108,0.702c0.265,0.269,0.09-0.037,0.265,0.269 c0.847-0.311,2.283-0.11,3.192,0.382c1.574,0.852,2.21,3.133,1.437,4.541c-0.015,0.028-0.034,0.054-0.05,0.081 c0.228,0.054,0.453,0.137,0.67,0.254c1.261,0.682,1.754,2.199,1.102,3.387c-0.124,0.227-0.282,0.424-0.463,0.592 c0.007,0.004,0.014,0.007,0.022,0.01c0.683,0.369,1.067,1.053,1.072,1.746c0.182,0.049,0.371,0.082,0.57,0.082 c0.093,0,0.184-0.008,0.273-0.019c1.201,0.374,3.159,0.601,3.749-1.917C76.524,41.038,75.676,41.129,75.286,40.889z"/><path fill="#472b29" d="M74.489,43.311c-0.499,0-0.988-0.121-1.274-0.317c-0.714,0.053-1.431-0.207-1.923-0.699 c-1.27,0.269-2.599-0.283-3.253-1.3c-0.713,0.297-1.512,0.453-2.326,0.453c-2.184,0-4.076-1.1-4.721-2.707 c-0.584,0.135-1.227,0.11-1.837-0.073c-0.783-0.233-1.432-0.695-1.828-1.301c-0.091-0.139-0.052-0.324,0.087-0.415 c0.138-0.092,0.324-0.052,0.415,0.087c0.313,0.479,0.859,0.863,1.498,1.055c0.594,0.178,1.22,0.177,1.762-0.001 c0.078-0.024,0.161-0.02,0.232,0.02c0.072,0.037,0.125,0.102,0.148,0.179c0.447,1.482,2.231,2.558,4.244,2.558 c0.824,0,1.626-0.176,2.322-0.509c0.146-0.074,0.323-0.011,0.397,0.136c0.493,0.977,1.736,1.509,2.881,1.197 c0.114-0.032,0.233,0.006,0.308,0.095c0.393,0.463,1.035,0.693,1.65,0.618c0.098-0.003,0.184,0.021,0.249,0.087 c0.203,0.205,1.153,0.377,1.735,0.088c0.146-0.073,0.328-0.015,0.402,0.135c0.074,0.148,0.014,0.328-0.135,0.402 C75.225,43.245,74.855,43.311,74.489,43.311z"/><path fill="#ba8964" d="M60.455 48.190000000000005A1.241 1.26 0 1 0 60.455 50.71 1.241 1.26 0 1 0 60.455 48.190000000000005zM69.999 48.190000000000005A1.241 1.26 0 1 0 69.999 50.71 1.241 1.26 0 1 0 69.999 48.190000000000005z" opacity=".8"/><path fill="#8e7469" d="M63.01 46.793A.14.142 0 1 0 63.01 47.077000000000005.14.142 0 1 0 63.01 46.793zM63.15 47.876999999999995A.14.142 0 1 0 63.15 48.161.14.142 0 1 0 63.15 47.876999999999995zM64.112 47.284A.14.142 0 1 0 64.112 47.568000000000005.14.142 0 1 0 64.112 47.284zM66.136 47.263999999999996A.14.142 0 1 0 66.136 47.548.14.142 0 1 0 66.136 47.263999999999996zM66.685 48.205A.14.142 0 1 0 66.685 48.489000000000004.14.142 0 1 0 66.685 48.205zM67.34 47.275999999999996A.14.142 0 1 0 67.34 47.56.14.142 0 1 0 67.34 47.275999999999996z" opacity=".8"/><path fill="#472b29" d="M57.889 48.716c-.153 0-.284-.117-.298-.272l-.438-4.782c-.015-.165.106-.311.271-.326.169-.007.312.107.326.271l.438 4.782c.015.165-.106.311-.271.326C57.908 48.716 57.898 48.716 57.889 48.716zM72.143 48.648c-.006 0-.013 0-.019 0-.166-.011-.292-.152-.281-.318l.285-4.666c.01-.165.161-.283.317-.281.166.011.292.152.281.318l-.285 4.666C72.432 48.526 72.3 48.648 72.143 48.648z"/><path fill="#6d1b18" d="M62.264,51.702c-0.033,0.128-0.052,0.259-0.052,0.394c0,1.154,1.276,2.089,2.851,2.089 c1.575,0,2.851-0.935,2.851-2.089c0-0.135-0.019-0.266-0.052-0.394H62.264z"/><path fill="#ee3e54" d="M66.568,53.863c-0.25-0.292-0.83-0.497-1.506-0.497c-0.676,0-1.256,0.205-1.506,0.497 c0.438,0.201,0.951,0.322,1.506,0.322C65.617,54.185,66.13,54.064,66.568,53.863z"/><path fill="#fdfcef" d="M63.081,51.702c-0.001,0.012-0.006,0.024-0.006,0.037v0.353c0,0.309,0.407,0.561,0.905,0.561h2.166 c0.498,0,0.905-0.253,0.905-0.561v-0.353c0-0.013-0.005-0.024-0.006-0.037H63.081z"/><path fill="#472b29" d="M65.062,54.435c-1.709,0-3.101-1.049-3.101-2.338c0-0.151,0.02-0.301,0.06-0.457 c0.029-0.11,0.128-0.188,0.242-0.188h5.597c0.114,0,0.213,0.077,0.242,0.188c0.041,0.156,0.06,0.306,0.06,0.457 C68.163,53.386,66.772,54.435,65.062,54.435z M62.47,51.952c-0.006,0.049-0.009,0.097-0.009,0.145 c0,1.014,1.167,1.838,2.601,1.838s2.601-0.824,2.601-1.838c0-0.048-0.003-0.096-0.009-0.145H62.47z"/><path fill="#00a5a5" d="M77.513,65.5c-0.136-2.926-0.521-4.837-2.289-5.38c-0.523-0.16-2.492-1.109-2.492-1.109 s-5.1,2.854-7.31,3.304c-3.531,0.72-8.211,1.14-12.748,0.672c-0.027,0.111-0.064,1.275-0.106,2.513H77.513z"/><path fill="#472b29" d="M77.476,66H52.57c-0.137,0-0.268-0.057-0.363-0.156c-0.094-0.099-0.144-0.232-0.137-0.37 l0.012-0.233c0.087-1.669,0.124-2.283,0.171-2.534c0.005-0.041,0.016-0.082,0.031-0.12c0.288-0.94,0.903-2.222,2.211-3.066 c0.431-0.278,0.943-0.5,1.521-0.658l4.888-1.68c0.237-0.064,0.31-0.238,0.334-0.374c0.056-0.307,0.099-0.79,0.126-1.411 c-1.384-0.854-2.56-1.976-3.499-3.335c-0.456-0.659-0.662-1.34-0.63-2.081c0.017-0.382,0.02-0.763,0.019-1.145 c-0.438-0.15-0.744-0.494-0.912-1.025c-0.147-0.465-0.354-1.271-0.617-2.396c-0.275-0.858-0.083-1.363,0.125-1.644 c0.152-0.206,0.42-0.438,0.883-0.543c-0.082-0.471-0.206-1.206-0.361-2.133c-0.166-0.989-0.319-1.908-0.349-2.044 c-0.156-0.725,0.059-1.187,0.266-1.447c0.201-0.252,0.458-0.405,0.698-0.5c-0.277-0.687-0.311-1.299-0.102-1.804 c0.217-0.526,0.567-0.952,1.021-1.246c0.038-1.977,2.004-3.574,4.416-3.574c0.83,0,1.625,0.187,2.322,0.543 c0.703-0.648,1.65-1.014,2.656-1.014c1.896,0,3.47,1.299,3.729,2.982c1.796-0.154,3.364,1.261,3.364,3 c0,0.108-0.006,0.217-0.018,0.324c1.127,0.259,1.957,1.23,1.957,2.385c0,0.557-0.19,1.083-0.541,1.513 c0.014,0.047,0.026,0.095,0.037,0.143c0.383-0.057,0.798-0.243,1.072-0.596c0.141-0.18,0.387-0.244,0.596-0.149 c0.21,0.092,0.33,0.315,0.291,0.541c-0.294,1.722-0.733,2.745-2.213,3.228c-0.723,0.193-1.354,0.186-1.786,0.141 c0.106,0.082,0.188,0.171,0.25,0.255c0.207,0.28,0.398,0.783,0.134,1.589c-0.272,1.176-0.479,1.981-0.626,2.445 c-0.15,0.476-0.412,0.801-0.779,0.972c-0.001,0.501-0.002,1.003-0.007,1.504c-0.004,0.416-0.164,0.984-0.372,1.322 c-1.016,1.654-2.292,2.941-3.796,3.83c0.034,0.76,0.086,1.159,0.126,1.363c0.027,0.14,0.102,0.317,0.301,0.37 c1.459,0.508,6.141,2.152,6.632,2.476c2.089,1.376,2.175,2.788,2.231,3.723l0.091,2.11c0.006,0.136-0.044,0.269-0.139,0.366 C77.742,65.944,77.612,66,77.476,66z M53.097,65h23.857l-0.068-1.57c-0.053-0.866-0.112-1.848-1.783-2.947 c-0.333-0.201-3.534-1.365-6.375-2.356c-0.492-0.129-0.875-0.556-0.99-1.132c-0.076-0.388-0.128-1.001-0.156-1.824 c-0.006-0.188,0.094-0.364,0.259-0.455c1.468-0.807,2.712-2.028,3.696-3.631c0.113-0.184,0.222-0.576,0.224-0.809 c0.005-0.569,0.006-1.14,0.007-1.71v-0.156c0-0.249,0.184-0.46,0.431-0.494c0.152-0.021,0.287-0.066,0.395-0.407 c0.139-0.438,0.339-1.22,0.596-2.319c0.004-0.019,0.032-0.13,0.038-0.147c0.098-0.3,0.102-0.543,0.008-0.671 c-0.096-0.129-0.341-0.189-0.662-0.193c-0.257-0.012-0.426-0.143-0.489-0.358c-0.064-0.216,0.024-0.447,0.216-0.566 c0.077-0.057,0.36-0.355,0.457-0.548c0.092-0.182,0.284-0.279,0.489-0.274c0.057,0.003,0.126,0.01,0.229,0.03 c0.263,0.053,0.958,0.19,1.817-0.039c0.61-0.199,0.964-0.518,1.214-1.206c-0.369,0.132-0.767,0.187-1.162,0.151 c-0.254-0.023-0.45-0.234-0.455-0.489c-0.003-0.201-0.046-0.395-0.127-0.573c-0.088-0.195-0.042-0.425,0.114-0.571 c0.295-0.275,0.457-0.642,0.457-1.031c0-0.801-0.689-1.453-1.536-1.453c-0.161,0-0.323-0.076-0.417-0.207 c-0.094-0.13-0.132-0.297-0.082-0.449c0.064-0.194,0.097-0.396,0.097-0.6c0-1.292-1.345-2.306-2.699-1.93 c-0.152,0.042-0.316,0.009-0.441-0.089c-0.125-0.099-0.195-0.25-0.191-0.408c0.005-1.446-1.236-2.556-2.761-2.556 c-0.861,0-1.658,0.352-2.188,0.966c-0.162,0.186-0.434,0.229-0.644,0.097c-0.618-0.387-1.36-0.592-2.146-0.592 c-1.884,0-3.417,1.181-3.417,2.633c0,0.056,0.006,0.109,0.011,0.164c0.019,0.208-0.092,0.422-0.28,0.513 c-0.378,0.182-0.657,0.482-0.827,0.893c-0.14,0.339-0.024,0.881,0.318,1.487c0.076,0.135,0.107,0.339,0.047,0.481 c-0.077,0.184-0.255,0.303-0.454,0.306c-0.093,0.002-0.479,0.055-0.649,0.271c-0.105,0.134-0.128,0.339-0.069,0.612 c0.03,0.138,0.188,1.078,0.357,2.09c0.185,1.101,0.414,2.471,0.451,2.63c0.035,0.15-0.001,0.309-0.099,0.428 c-0.097,0.12-0.252,0.203-0.398,0.186c-0.33-0.001-0.563,0.064-0.659,0.192c-0.095,0.129-0.091,0.373,0.012,0.688 c0.004,0.014,0.03,0.12,0.034,0.135c0.256,1.1,0.457,1.881,0.596,2.32c0.108,0.339,0.24,0.403,0.478,0.413 c0.266,0.012,0.476,0.229,0.479,0.496c0.004,0.536,0.006,1.07-0.018,1.605c-0.022,0.522,0.122,0.989,0.454,1.47 c0.913,1.322,2.069,2.397,3.438,3.195c0.159,0.092,0.254,0.265,0.248,0.448c-0.027,0.822-0.079,1.444-0.153,1.851 c-0.105,0.578-0.49,1.008-1.027,1.15l-4.884,1.679c-0.509,0.141-0.927,0.32-1.272,0.543c-1.068,0.69-1.572,1.767-1.807,2.549 c0,0.001-0.001,0.002-0.001,0.003C53.2,63.07,53.145,64.082,53.097,65z"/><path fill="#472b29" d="M57.027 63.469c-1.315 0-2.648-.073-3.985-.22-.09-.01-.156-.091-.146-.181s.093-.164.182-.145c4.226.463 8.411.183 12.102-.811 1.076-.29 2.144-.653 3.175-1.08.085-.033.18.005.215.089s-.005.18-.089.215c-1.044.432-2.126.799-3.215 1.093C62.705 63.119 59.909 63.469 57.027 63.469zM69.683 60.785c-.061 0-.121-.035-.149-.094-.039-.082-.004-.18.078-.219.504-.24 1.155-.577 1.66-.859.079-.044.18-.016.224.064.044.08.016.18-.063.224-.51.284-1.169.625-1.679.868C69.731 60.78 69.707 60.785 69.683 60.785z"/></g><g><path fill="#e5ac80" d="M51.269,65.5c-0.151-2.758-0.378-4.36-0.378-4.36c-0.299-1.585-0.945-2.514-2.469-2.974 c-0.066-0.02-0.155-0.052-0.255-0.091c-0.116-0.05-0.261-0.109-0.433-0.176c-0.923-0.39-6.407-2.413-6.407-2.413 c-0.452-0.115-0.746-0.437-0.916-0.799c-0.281-0.599-0.172-2.153-0.172-2.153s-2.293,0.784-3.724,1.052 c-1.403,0.136-4.42-1.678-4.42-1.678s-0.071,2.243-0.166,2.742c-0.075,0.391-0.497,0.722-0.949,0.837l-5.262,1.908 c-0.582,0.152-1.141,0.37-1.632,0.673c-1.324,0.817-1.995,2.045-2.336,3.073c0,0-0.346,2.449-0.333,2.538 c-0.033,0.343-0.067,0.72-0.101,1.117c0.364,0.247,0.724,0.481,1.081,0.706H51.269z"/><path fill="#fdfcef" d="M51.083 65.5c-.244-2.266.011-4.162-.333-4.667-.409-.6-1.39-1.409-3.5-2.833-1.323-.893-2.651-1.435-4.667-2.083L37.352 65.5H51.083zM35.215 65.5L30 56.167c-2.118.557-3.44.733-4.833 1.583-2.107 1.288-2.652 1.601-3.083 2.167-.418.547-.438 3-.833 5.583H35.215z"/><path fill="#f1bc19" d="M37.191 65.72c-.067 0-.136-.014-.202-.043-.252-.111-.367-.406-.255-.659 2.377-5.379 5.833-8.901 5.978-9.049.195-.196.51-.199.707-.004.196.194.198.511.004.707-.035.035-3.475 3.547-5.774 8.75C37.566 65.608 37.384 65.72 37.191 65.72zM35.454 65.71c-.204 0-.395-.125-.469-.327-1.976-5.381-5.818-8.684-5.857-8.717-.21-.179-.236-.494-.058-.704.179-.211.493-.236.705-.058.166.141 4.082 3.508 6.148 9.133.095.26-.038.547-.297.643C35.57 65.7 35.511 65.71 35.454 65.71z"/><path fill="#edbc94" d="M45.201,41.545c-0.086-0.006-0.174-0.007-0.266-0.007c-0.713-0.035-0.916,0.25-0.884-0.191 c0.057-0.783-0.052-3.96-0.052-4.12c0-3.292-3.437-5.977-7.731-6.125v-0.01c-0.029,0.001-0.057,0.004-0.086,0.005 c-0.029-0.001-0.057-0.004-0.086-0.005v0.01c-4.294,0.149-7.731,2.834-7.731,6.125c0,0.16-0.109,3.337-0.052,4.12 c0.032,0.441-0.17,0.157-0.884,0.191c-0.091,0-0.179,0.001-0.266,0.007c-0.782,0.052-1.414,0.549-1.549,1.165 c0.096,0.058,0.452,2.756,1.028,3.819c0.322,0.593,0.824,0.676,1.341,1.059c0.286,0.212,0.341,0.452,0.419,0.769 c0.29,1.175,1.094,2.173,1.975,3.026c0.435,0.421,3.323,3.5,5.804,3.344c2.493-0.093,5.369-2.923,5.804-3.344 c0.882-0.852,1.686-1.851,1.975-3.026c0.078-0.317,0.133-0.557,0.419-0.769c0.516-0.383,1.019-0.466,1.341-1.059 c0.576-1.063,0.932-3.761,1.028-3.819C46.615,42.095,45.982,41.597,45.201,41.545z"/><path fill="#512c2b" d="M36.227 47.498c.504 0 .993-.22 1.308-.589.032-.037.027-.093-.009-.125l0 0c-.037-.031-.093-.028-.125.009-.257.293-.684.461-1.174.461-.49 0-.917-.168-1.174-.461-.018-.02-.042-.03-.067-.03-.021 0-.041.007-.058.021-.037.032-.041.088-.009.125C35.233 47.278 35.722 47.498 36.227 47.498zM34.617 39.945l.32-.615c-1.353-.317-2.911-.267-4.197.132l.403.599C32.201 39.713 33.5 39.668 34.617 39.945zM41.393 39.945l.32-.615c-1.353-.317-2.911-.267-4.197.132l.403.599C38.976 39.713 40.276 39.668 41.393 39.945zM32.67 40.812c-.325 0-.61.215-.775.54.041-.013.084-.022.128-.022.267 0 .483.241.483.539 0 .298-.216.539-.483.539-.087 0-.168-.028-.239-.073.114.488.467.844.885.844.511 0 .925-.53.925-1.183C33.594 41.342 33.18 40.812 32.67 40.812zM39.744 40.812c-.277 0-.526.157-.695.405.053-.022.11-.036.17-.036.267 0 .483.241.483.539 0 .298-.216.539-.483.539-.165 0-.311-.093-.398-.235.012.64.42 1.155.923 1.155.511 0 .925-.53.925-1.183C40.669 41.342 40.255 40.812 39.744 40.812zM40.136 48.87c.038-.031.043-.087.013-.124l0 0c-.03-.038-.087-.044-.125-.014-.834.664-2.218 1.046-3.798 1.046-1.58 0-2.964-.381-3.798-1.046-.016-.013-.036-.019-.055-.019-.026 0-.052.011-.069.033-.031.038-.025.094.013.124.941.769 2.403 1.228 3.91 1.228C37.733 50.098 39.195 49.639 40.136 48.87zM29.191 38.518c.377-1.605.49-1.919.744-2.357 1.626-1.896 1.282-3.304.824-3.199-2.317 1.834-2.608 5.103-2.639 6.853.066 1.023.241 2.027.568 2.932C28.954 41.354 28.861 39.922 29.191 38.518zM43.111 38.518c-.377-1.605-.49-1.919-.744-2.357-1.626-1.896-1.282-3.304-.824-3.199 2.317 1.834 2.608 5.103 2.639 6.853-.066 1.023-.241 2.027-.568 2.932C43.348 41.354 43.442 39.922 43.111 38.518z"/><path fill="#d3a47d" d="M45.325 45.159l-.597-.066.133-1.18-.623.27L44 43.632l1.098-.476c.098-.042.211-.03.298.034.086.063.131.168.12.274L45.325 45.159zM27.279 44.906l-.191-1.694c-.012-.106.034-.211.12-.274.086-.064.2-.077.298-.034l1.098.476-.238.551-.623-.27.133 1.18L27.279 44.906z"/><path fill="#472b29" d="M28.347 48.231c-.001 0-.002 0-.004 0-.11-.002-.198-.094-.196-.204l.122-6.388c.002-.109.091-.196.2-.196.001 0 .002 0 .004 0 .11.002.198.094.196.204l-.122 6.388C28.544 48.145 28.456 48.231 28.347 48.231zM44.139 48.231c-.109 0-.198-.087-.2-.196l-.121-6.388c-.002-.11.086-.202.196-.204.001 0 .003 0 .004 0 .109 0 .198.087.2.196l.121 6.388c.002.11-.086.202-.196.204C44.142 48.231 44.14 48.231 44.139 48.231z"/><path fill="#512c2b" d="M37.944,53.033c-0.836-0.151-1.516-1.036-1.635-1.555c-0.119,0.518-0.799,1.403-1.635,1.555 c-2.07,0.375-4.127-1.401-5.637-3.252c0.242,0.657,0.559,1.336,0.951,1.71c1.679,1.602,3.765,3.022,5.054,3.514 c0.232,0.089,0.742,0.129,1.266,0.125c0.524,0.003,1.034-0.037,1.266-0.125c1.29-0.492,3.375-1.912,5.054-3.514 c0.392-0.374,0.71-1.053,0.951-1.71C42.071,51.633,40.014,53.408,37.944,53.033z"/><path fill="#ee3e54" d="M43.399,41.239l-0.034-0.003c-0.028-0.002-0.057-0.006-0.085-0.01 c-0.048-0.007-0.097-0.013-0.145-0.014c-0.275-0.006-0.55-0.015-0.825-0.024c-0.481-0.015-0.978-0.031-1.467-0.031 c-0.847,0-1.538,0.049-2.174,0.154l-0.218,0.035c-0.545,0.088-1.108,0.178-1.639,0.411c-0.4,0.176-0.797,0.191-1.167,0.043 c-0.045-0.018-0.09-0.037-0.134-0.056c-0.148-0.062-0.3-0.127-0.459-0.156l-0.361-0.068c-0.614-0.117-1.25-0.237-1.881-0.305 c-0.454-0.049-0.907-0.054-1.345-0.058c-0.186-0.002-0.367-0.004-0.548-0.009l-0.578,0.024c-0.465,0.019-0.907,0.038-1.349,0.061 c-0.327,0.017-0.78,0.061-0.935,0.242c-0.043,0.051-0.062,0.111-0.055,0.174c0.02,0.185,0.055,0.371,0.089,0.552 c0.037,0.195,0.075,0.396,0.092,0.593c0.014,0.157,0.25,0.279,0.583,0.434c0.098,0.046,0.191,0.089,0.238,0.121 c0.058,0.039,0.105,0.115,0.15,0.188l0.026,0.042c0.051,0.08,0.099,0.161,0.147,0.243c0.08,0.136,0.163,0.276,0.257,0.407 c0.082,0.114,0.198,0.215,0.328,0.286c0.129,0.07,0.284,0.125,0.461,0.164c1.085,0.236,2.228,0.315,3.519,0.242 c0.69-0.039,1.136-0.378,1.363-1.036c0.061-0.176,0.13-0.352,0.197-0.523c0.04-0.101,0.079-0.202,0.117-0.303 c0.062-0.166,0.166-0.243,0.335-0.243h0c0.041,0.001,0.081,0.001,0.122,0.001l0.29-0.001c0.309,0,0.349,0.029,0.476,0.35 l0.06,0.151c0.12,0.305,0.244,0.619,0.385,0.921c0.145,0.311,0.401,0.519,0.743,0.603c0.167,0.041,0.327,0.067,0.475,0.078 c0.273,0.02,0.555,0.03,0.839,0.03c0.739,0,1.517-0.066,2.376-0.202c0.698-0.11,1.113-0.405,1.346-0.954 c0.067-0.158,0.183-0.319,0.346-0.48c0.034-0.034,0.181-0.092,0.311-0.143c0.285-0.113,0.473-0.192,0.518-0.295 c0.015,0.004,0.032,0.008,0.05,0.008c0.052,0,0.09-0.035,0.095-0.087c0.011-0.111,0.025-0.232,0.038-0.356 c0.031-0.28,0.063-0.57,0.079-0.82C44.467,41.366,43.928,41.285,43.399,41.239z M39.125,41.725 c0.284-0.03,0.577-0.062,0.866-0.078c0.104-0.006,0.216-0.009,0.351-0.009c0.094,0,0.189,0.001,0.283,0.003 c0.095,0.001,0.19,0.003,0.285,0.003h0.063l0,0c0.127,0.011,0.255-0.011,0.382-0.001c0.339,0.026,0.689,0.053,1.029,0.104 c0.34,0.051,0.455,0.204,0.439,0.584c-0.023,0.548-0.139,1.047-0.343,1.483c-0.059,0.126-0.199,0.233-0.309,0.29 c-0.411,0.213-0.892,0.338-1.427,0.37c-0.618,0.037-1.248,0.039-1.858,0.042l-0.299,0.001c-0.424,0-0.736-0.195-0.955-0.595 c-0.273-0.499-0.397-0.991-0.38-1.503c0.006-0.183,0.086-0.289,0.275-0.365c0.373-0.15,0.798-0.245,1.338-0.3L39.125,41.725z M35.074,42.623c-0.039,0.578-0.227,1.098-0.557,1.546c-0.152,0.206-0.366,0.311-0.692,0.338 c-0.376,0.031-0.721,0.047-1.053,0.047h0c-0.76,0-1.44-0.081-2.08-0.247c-0.214-0.056-0.423-0.138-0.62-0.244 c-0.103-0.055-0.201-0.162-0.245-0.264c-0.211-0.495-0.322-0.995-0.329-1.486c-0.005-0.387,0.104-0.525,0.449-0.568 c0.385-0.048,0.779-0.077,1.16-0.105c0.165-0.012,0.329-0.024,0.494-0.038c1.141,0.021,2.065,0.134,2.907,0.356 c0.057,0.015,0.118,0.035,0.194,0.064C35.033,42.147,35.1,42.254,35.074,42.623z"/><path fill="#f1bc19" d="M50.896 62.122l-11.696-.31-.259.517 11.98.317C50.913 62.472 50.905 62.297 50.896 62.122zM50.774 60.719l-10.882-.288-.26.518 11.209.297C50.825 61.059 50.802 60.883 50.774 60.719zM50.965 63.522l-12.456-.33-.259.518 12.742.338C50.982 63.874 50.974 63.699 50.965 63.522zM41.018 58.189l8.14.216c-.188-.041-.314-.03-.314-.03s-.644-.226-1.556-.545l-6.011-.159L41.018 58.189zM30.081 56.003l.103-.024c-.401.144-.866.311-1.354.488l1.481.066L30.081 56.003zM50.387 59.465c-.053-.054-.094-.101-.15-.157l-9.651-.256-.26.517 10.224.271C50.498 59.703 50.444 59.577 50.387 59.465zM41.709 56.808l2.856.076c-.581-.201-1.146-.395-1.653-.568l-.943-.025L41.709 56.808zM21.503 64.14c-.017.179-.033.353-.048.523l13.552.359-.231-.53L21.503 64.14zM34.16 63.077l-12.523-.332c-.017.173-.034.347-.051.523l12.805.339L34.16 63.077zM51.038 64.923l-13.221-.35-.26.517 13.51.358C51.057 65.277 51.047 65.101 51.038 64.923zM33.544 61.662L21.782 61.35c-.018.163-.037.338-.057.523l12.05.319L33.544 61.662zM30.697 57.417l-4.104-.135c-.532.195-1.001.366-1.337.489l5.671.177L30.697 57.417zM32.313 58.833l-8.675-.23c-.225.15-.46.321-.685.506l9.591.254L32.313 58.833zM32.928 60.247l-10.784-.286c-.114.17-.196.344-.24.519l11.255.298L32.928 60.247z"/><g><path fill="#472b29" d="M51.104,66H21.375c-0.135,0-0.265-0.055-0.359-0.151c-0.094-0.098-0.145-0.229-0.141-0.363 c0.065-2.188,0.194-3.609,0.394-4.345c0.495-1.828,1.218-2.542,2.556-3.368c0.5-0.309,1.094-0.555,1.768-0.73l5.218-1.895 c0.359-0.094,0.599-0.31,0.628-0.462c0.016-0.083,0.057-0.386,0.107-1.415c-0.738-0.524-1.337-0.994-1.517-1.17 c-1.172-1.146-1.843-2.194-2.112-3.299c-0.075-0.308-0.101-0.396-0.233-0.496c-0.148-0.111-0.296-0.193-0.437-0.272 c-0.355-0.201-0.758-0.428-1.044-0.962c-0.639-1.192-1.087-3.372-1.087-4.099c0-0.035,0.004-0.071,0.011-0.105 c0.186-0.858,1.01-1.505,2.004-1.572c0.101-0.006,0.199-0.008,0.299-0.008c0.137-0.007,0.262-0.002,0.372,0.007 c-0.019-0.929,0.031-2.675,0.053-3.485l0.01-0.381c0-3.568,3.559-6.494,8.12-6.691c0.041-0.011,0.08-0.015,0.128-0.014 c0.004,0.001,0.099,0,0.128,0c0.068-0.002,0.021,0,0.027,0c0.04,0,0.08,0.005,0.118,0.014c4.558,0.2,8.114,3.125,8.114,6.691 l0.01,0.381c0.023,0.82,0.073,2.599,0.054,3.486c0.121-0.011,0.25-0.016,0.396-0.007c0.082,0.006,0.175,0.002,0.27,0.007 c1,0.067,1.824,0.714,2.009,1.572c0.007,0.034,0.011,0.07,0.011,0.105c0,0.814-0.467,2.941-1.087,4.099 c-0.286,0.534-0.689,0.761-1.044,0.962c-0.141,0.079-0.289,0.161-0.437,0.273c-0.132,0.099-0.159,0.188-0.229,0.479 c-0.274,1.121-0.945,2.169-2.116,3.314c-0.179,0.176-0.801,0.688-1.617,1.278c0.002,0.675,0.074,1.074,0.146,1.228 c0.133,0.284,0.33,0.462,0.585,0.526c0.275,0.098,5.556,2.047,6.479,2.438c0.166,0.064,0.318,0.126,0.439,0.179 c0.062,0.023,0.139,0.052,0.196,0.068c1.624,0.491,2.466,1.496,2.818,3.361l0.222,4.296c0.007,0.138-0.043,0.271-0.137,0.37 C51.373,65.943,51.241,66,51.104,66z M21.892,65h28.687l-0.187-3.703c-0.276-1.438-0.851-2.14-2.114-2.521 c-0.072-0.021-0.173-0.058-0.288-0.101c-0.134-0.059-0.273-0.114-0.436-0.178c-0.916-0.387-6.344-2.391-6.399-2.411 c-0.494-0.122-0.937-0.502-1.196-1.056c-0.176-0.376-0.256-1.021-0.238-1.919c0.003-0.158,0.081-0.306,0.21-0.397 c0.893-0.636,1.562-1.187,1.705-1.328c1.032-1.009,1.616-1.905,1.84-2.82c0.086-0.355,0.18-0.74,0.604-1.059 c0.186-0.14,0.37-0.245,0.546-0.345c0.304-0.172,0.505-0.285,0.654-0.563c0.534-0.996,0.944-2.903,0.968-3.569 c-0.115-0.395-0.56-0.701-1.082-0.736c-0.072-0.004-0.15-0.006-0.232-0.006c-0.234-0.012-0.389,0.014-0.514,0.033 c-0.188,0.031-0.45,0.072-0.671-0.131c-0.227-0.209-0.206-0.505-0.196-0.632c0.044-0.614-0.019-2.871-0.043-3.721 c-0.006-0.227-0.01-0.377-0.01-0.409c0-3.052-3.184-5.554-7.249-5.695c-0.02-0.001-0.04-0.003-0.059-0.006 c-0.011,0-0.02,0.001-0.025,0.001c-0.018,0.002-0.035,0.004-0.053,0.005c-4.065,0.142-7.249,2.644-7.249,5.695 c0,0.032-0.004,0.183-0.01,0.409c-0.024,0.85-0.087,3.106-0.043,3.721c0.009,0.127,0.031,0.423-0.196,0.632 c-0.221,0.202-0.483,0.161-0.671,0.131c-0.125-0.02-0.278-0.037-0.49-0.034c-0.105,0.001-0.185,0.003-0.262,0.007 c-0.517,0.035-0.961,0.342-1.076,0.736c0.024,0.674,0.453,2.609,0.968,3.569c0.149,0.278,0.35,0.392,0.654,0.563 c0.177,0.1,0.36,0.205,0.546,0.344c0.425,0.319,0.518,0.704,0.601,1.044c0.227,0.93,0.812,1.826,1.843,2.836 c0.116,0.113,0.728,0.604,1.617,1.224c0.141,0.099,0.221,0.262,0.213,0.433c-0.065,1.457-0.119,1.739-0.136,1.832 c-0.125,0.65-0.751,1.085-1.317,1.228l-5.214,1.894c-0.621,0.165-1.125,0.372-1.539,0.628c-1.209,0.746-1.71,1.278-2.117,2.779 C22.072,61.997,21.958,63.206,21.892,65z"/></g><g><path fill="#f1bc19" d="M29.75,56c0,0,0.813,0.594,1.906,1.813"/><path fill="#472b29" d="M31.656,58.063c-0.068,0-0.137-0.028-0.186-0.083c-1.06-1.182-1.86-1.771-1.868-1.777 c-0.111-0.082-0.136-0.238-0.054-0.35c0.081-0.112,0.237-0.136,0.349-0.055c0.034,0.025,0.846,0.624,1.945,1.848 c0.092,0.103,0.083,0.261-0.019,0.354C31.775,58.041,31.716,58.063,31.656,58.063z"/></g><g><path fill="#f1bc19" d="M33.063,59.625c0,0,2.125,2.844,3,5.625"/><path fill="#472b29" d="M36.063,65.5c-0.106,0-0.205-0.068-0.238-0.175c-0.853-2.71-2.941-5.522-2.962-5.551 c-0.083-0.11-0.06-0.267,0.051-0.35c0.109-0.082,0.267-0.062,0.35,0.051c0.088,0.117,2.161,2.909,3.038,5.699 c0.042,0.132-0.032,0.272-0.163,0.313C36.113,65.496,36.087,65.5,36.063,65.5z"/></g><g><path fill="#f1bc19" d="M42.031,56.344c0,0-4.625,6.125-5.5,8.906"/><path fill="#472b29" d="M36.531,65.5c-0.025,0-0.05-0.004-0.075-0.012c-0.131-0.041-0.205-0.182-0.163-0.313 c0.877-2.79,5.349-8.73,5.539-8.981c0.083-0.111,0.24-0.132,0.351-0.049c0.11,0.083,0.132,0.239,0.049,0.35 c-0.046,0.062-4.609,6.123-5.461,8.831C36.736,65.432,36.638,65.5,36.531,65.5z"/></g></g><g><path fill="#8889b9" d="M55.522,71.918c0,0.987-2.358,5.215-5.266,5.215s-5.266-4.227-5.266-5.215 s2.358-1.787,5.266-1.787S55.522,70.931,55.522,71.918z"/><path fill="#7477af" d="M54.847,72.319c0,0.854-2.055,4.51-4.591,4.51c-2.535,0-4.591-3.656-4.591-4.51 c0-0.854,2.055-1.546,4.591-1.546C52.792,70.773,54.847,71.465,54.847,72.319z"/><path fill="#d6a078" d="M42.583,77.458H58.09C58.036,76.344,57.99,75.5,57.99,75.5c-0.156-1.069-0.494-1.696-1.29-2.006 c-0.035-0.013-0.081-0.035-0.133-0.061c-0.06-0.034-0.137-0.074-0.226-0.119c-0.482-0.263-3.708-1.628-3.708-1.628 c-0.236-0.078-0.39-0.295-0.479-0.54c-0.147-0.404-0.121-2.276-0.121-2.276h-3.502c0,0-0.037,1.915-0.087,2.251 c-0.039,0.264-0.259,0.487-0.496,0.565l-3.11,1.287c-0.387,0.18-0.576,0.302-0.852,0.454c-1.409,0.773-1.401,3.726-1.394,3.785 C42.59,77.254,42.587,77.348,42.583,77.458z"/><path fill="#edbc94" d="M57.166,63.984c0.063-1.015,0.253-2.03,0.444-3.045v-1.205c-0.381-1.522-1.078-3.298-2.347-4.377 c-1.461-1.195-3.374-1.782-5.283-1.752l-0.784,0.022c-0.806,0.059-1.602,0.228-2.352,0.508l-0.497,0.205 c-0.591,0.267-1.147,0.606-1.65,1.017c-1.269,1.078-1.966,2.854-2.347,4.377v1.205c0.19,1.015,0.381,2.03,0.444,3.045 c-1.966-0.127-2.537,1.649-0.824,2.728c0.698,0.444,1.436,0.015,1.582,0.225c0.927,1.334,1.457,1.792,2.121,2.175 c1.276,0.735,2.886,0.873,3.265,0.896c0.003,0,0.005-0.002,0.008-0.002c0.907,0.112,1.983,0.026,1.993,0.006 c0,0,1.891-0.061,3.348-0.9c0.665-0.382,1.194-0.841,2.122-2.175c0.146-0.21,0.885,0.219,1.582-0.225 C59.703,65.633,59.132,63.857,57.166,63.984z"/><path fill="#512c2b" d="M50.178,64.847c-0.309,0-0.609,0.158-0.802,0.422c-0.019,0.026-0.017,0.067,0.006,0.089l0,0 c0.023,0.023,0.057,0.02,0.077-0.006c0.157-0.21,0.42-0.33,0.72-0.33c0.3,0,0.563,0.12,0.72,0.33 c0.011,0.014,0.026,0.022,0.041,0.022c0.013,0,0.025-0.005,0.036-0.015c0.023-0.023,0.025-0.063,0.006-0.089 C50.787,65.005,50.487,64.847,50.178,64.847z" opacity=".42"/><path fill="#512c2b" d="M53.441 66.499c.031-.03.036-.085.011-.122l0 0c-.025-.037-.072-.044-.104-.013-.696.654-1.851 1.029-3.169 1.029-1.319 0-2.474-.375-3.17-1.03-.014-.013-.03-.019-.046-.019-.022 0-.043.011-.058.032-.026.037-.021.092.011.123.785.757 2.005 1.209 3.263 1.209C51.436 67.708 52.655 67.256 53.441 66.499zM52.788 60.627c-.583-.337-1.307-.432-1.95-.259L52.788 60.627zM51.915 61.813c-.16 0-.302.088-.4.227.03-.013.063-.02.098-.02.153 0 .278.135.278.303 0 .167-.124.303-.278.303-.095 0-.179-.052-.229-.132.007.359.242.648.531.648.294 0 .532-.297.532-.664S52.209 61.813 51.915 61.813zM49.517 60.366c-.651-.172-1.374-.073-1.95.263L49.517 60.366zM48.625 61.813c-.16 0-.302.088-.4.227.03-.013.063-.02.098-.02.153 0 .278.135.278.303 0 .167-.124.303-.278.303-.095 0-.179-.052-.229-.132.007.359.242.648.531.648.294 0 .532-.297.532-.664S48.919 61.813 48.625 61.813z"/><path fill="#f8ab97" d="M44.849 65.367c.53.276 2.039.496 2.044-.427.005-.922-1.574-.976-2.154-.72C43.973 64.559 44.189 65.022 44.849 65.367zM55.507 65.367c-.529.276-2.039.496-2.044-.427-.005-.922 1.574-.976 2.154-.72C56.383 64.559 56.167 65.022 55.507 65.367z"/><path fill="#d3a47d" d="M57.973,66.174l-0.594-0.088l0.113-0.765l-0.461,0.12l-0.151-0.58l0.9-0.234 c0.096-0.028,0.2-0.001,0.276,0.066c0.075,0.067,0.111,0.168,0.097,0.268L57.973,66.174z"/><path fill="#472b29" d="M56.509,67.116c-0.019,0-0.037-0.002-0.056-0.007c-0.12-0.03-0.193-0.153-0.162-0.273 l0.758-2.953c0.03-0.121,0.152-0.191,0.274-0.162c0.12,0.03,0.193,0.153,0.162,0.273l-0.758,2.953 C56.701,67.049,56.61,67.116,56.509,67.116z"/><g><path fill="#d3a47d" d="M42.119,66.219l-0.18-1.212c-0.015-0.1,0.021-0.2,0.096-0.267 c0.075-0.066,0.179-0.095,0.276-0.067l0.9,0.233l-0.15,0.58L42.6,65.367l0.113,0.764L42.119,66.219z"/><path fill="#472b29" d="M43.583,67.137c-0.089,0-0.17-0.061-0.194-0.15l-0.758-2.953 c-0.027-0.107,0.037-0.216,0.144-0.243c0.111-0.029,0.216,0.038,0.244,0.144l0.758,2.953c0.027,0.107-0.037,0.216-0.144,0.243 C43.616,67.135,43.599,67.137,43.583,67.137z"/></g><g><path fill="#512c2b" d="M47.573 63.622A.12.12 0 1 0 47.573 63.861999999999995.12.12 0 1 0 47.573 63.622zM47.97 64.556A.12.12 0 1 0 47.97 64.796.12.12 0 1 0 47.97 64.556zM48.538 63.946000000000005A.12.12 0 1 0 48.538 64.186.12.12 0 1 0 48.538 63.946000000000005z" opacity=".16"/><g><path fill="#512c2b" d="M52.651 63.622A.12.12 0 1 0 52.651 63.861999999999995.12.12 0 1 0 52.651 63.622zM52.255 64.556A.12.12 0 1 0 52.255 64.796.12.12 0 1 0 52.255 64.556zM51.686 63.946000000000005A.12.12 0 1 0 51.686 64.186.12.12 0 1 0 51.686 63.946000000000005z" opacity=".16"/></g></g><g><path fill="#f1bc19" d="M46.736,72.187c1.15,0.875,2.364,2.451,3.619,2.451c1.234,0,2.427-1.522,3.56-2.405 c-0.263-0.113-0.507-0.217-0.711-0.304c-0.907,0.66-1.862,1.878-2.849,1.878c-1.006,0-1.979-1.267-2.902-1.916L46.736,72.187z"/></g><g><path fill="#472b29" d="M50.045,70.134c-0.932,0-1.753-0.05-1.812-0.054c-0.11-0.007-0.194-0.102-0.188-0.212 c0.007-0.109,0.096-0.219,0.212-0.187c0.025,0.002,2.498,0.15,3.728-0.067c0.116-0.024,0.213,0.054,0.232,0.162 c0.02,0.109-0.053,0.213-0.162,0.232C51.508,70.105,50.746,70.134,50.045,70.134z"/></g><g><path fill="#c06134" d="M44.978,53.548c0.358-0.402,0.76-0.76,1.162-1.028c0.983-0.626,2.28-1.341,3.442-1.296 c1.618,0.048,3.421,0.792,4.622,1.88c0.218,0.197,0.367,0.42,0.522,0.652c0.138,0.208,0.193,0.311,0.392,0.4 c0.386,0.173,0.841,0.234,1.246,0.413c0.729,0.324,1.359,0.695,1.77,1.396c0.625,1.067,0.771,2.36,0.788,3.575 c0.006,0.43,0.119,0.831,0.073,1.271c-0.088,0.847-0.288,1.72-0.829,2.385c-0.284,0.349-1.059,1.184-1.244,0.302 c-0.241-1.149-0.052-2.318-0.994-3.155c-1.207-1.073-1.922-3.039-1.385-4.693c-1.207,0.894-3.352,1.162-4.827,1.207 c-1.475,0.089-3.934-0.358-4.962-1.52c0.313,1.162,0.715,2.011,0.492,3.308c-0.158,0.947-1.36,3.808-2.132,5.113 c-0.129,0.217-0.437,0.237-0.589,0.036c-0.962-1.265-1.851-2.772-1.972-4.389c-0.089-2.235,1.743-3.889,3.576-4.872 C44.129,54.531,44.844,53.727,44.978,53.548z"/></g><g><path fill="#8889b9" d="M42.582,77.458h15.503c-0.053-1.109-0.097-1.958-0.097-1.958c-0.156-1.069-0.494-1.696-1.29-2.006 c-0.035-0.013-0.081-0.035-0.133-0.061c-0.06-0.034-0.137-0.074-0.226-0.119c-0.282-0.154-1.5-0.684-2.465-1.098 c-1.119,0.853-2.298,2.381-3.519,2.381c-1.242,0-2.441-1.584-3.577-2.428l-1.941,0.803c-0.387,0.18-0.576,0.302-0.852,0.454 c-1.409,0.773-1.401,3.726-1.394,3.785C42.588,77.251,42.585,77.345,42.582,77.458z"/></g><g><path fill="#472b29" d="M58.118,78.666H42.57c-0.134,0-0.263-0.054-0.357-0.15c-0.094-0.096-0.146-0.226-0.143-0.359 c0.008-0.398,0.016-0.767,0.024-0.873c-0.003-0.006-0.055-3.25,1.652-4.188c0.162-0.088,0.558-0.283,0.868-0.434 c-0.083-0.253-0.125-0.466-0.125-0.637c0-0.779,0.723-1.47,1.912-1.91c-0.342-0.13-0.668-0.284-0.979-0.463 c-0.694-0.399-1.254-0.871-2.17-2.162c-0.019,0.003-0.039,0.006-0.06,0.008c-0.346,0.037-0.923,0.105-1.494-0.258 c-1.001-0.631-1.472-1.588-1.197-2.437c0.148-0.458,0.545-0.923,1.244-1.123c-1.041-1.485-1.595-2.842-1.692-4.133 c-0.11-2.757,2.271-4.494,3.759-5.307c0.17-0.191,0.658-0.744,0.765-0.887c0.415-0.47,0.85-0.854,1.285-1.144 c1.055-0.672,2.413-1.419,3.738-1.381c1.707,0.051,3.647,0.84,4.938,2.01c0.267,0.241,0.445,0.509,0.603,0.745 c0.131,0.198,0.132,0.198,0.18,0.221c0.171,0.077,0.357,0.127,0.544,0.179c0.236,0.066,0.475,0.135,0.7,0.234 c0.745,0.33,1.502,0.753,1.999,1.6c0.738,1.258,0.842,2.782,0.857,3.82c0.002,0.156,0.021,0.309,0.039,0.46 c0.031,0.259,0.065,0.553,0.032,0.87c-0.076,0.736-0.256,1.812-0.938,2.648l-0.073,0.091c-0.01,0.014-0.021,0.027-0.033,0.042 c0.565,0.222,0.894,0.632,1.025,1.036c0.276,0.853-0.202,1.816-1.217,2.455c-0.568,0.362-1.146,0.294-1.491,0.257 c-0.021-0.002-0.041-0.005-0.06-0.008c-0.916,1.291-1.476,1.763-2.169,2.162c-0.243,0.14-0.492,0.263-0.752,0.369 c1.383,0.433,2.238,1.168,2.238,2.004c0,0.172-0.042,0.386-0.125,0.64c0.302,0.141,0.622,0.295,0.822,0.392l0.183,0.088 c1.15,0.448,1.447,1.46,1.583,2.391c0.004,0.045,0.068,1.205,0.132,2.607c0.006,0.137-0.043,0.27-0.138,0.369 C58.385,78.61,58.254,78.666,58.118,78.666z M43.081,77.666h14.513c-0.055-1.151-0.103-2.03-0.103-2.031 c-0.155-1.042-0.487-1.378-0.973-1.567c-0.015-0.006-0.102-0.047-0.233-0.109c-0.297-0.144-0.863-0.416-1.227-0.577 c-0.251-0.111-0.365-0.404-0.256-0.656c0.173-0.398,0.219-0.627,0.219-0.699c0-0.33-0.877-1.086-2.906-1.336 c-0.242-0.029-0.427-0.229-0.438-0.474c-0.004-0.085-0.002-0.121-0.001-0.161c-0.006-0.246,0.168-0.541,0.411-0.585 c0.475-0.086,1.195-0.25,1.949-0.685c0.609-0.351,1.08-0.761,1.96-2.026c0.228-0.33,0.604-0.289,0.881-0.254 c0.267,0.029,0.571,0.063,0.843-0.108c0.702-0.441,0.907-0.972,0.8-1.302c-0.114-0.354-0.573-0.549-1.208-0.508 c-0.141,0.01-0.284-0.044-0.386-0.146c-0.102-0.102-0.155-0.242-0.145-0.387c0.01-0.15,0.094-0.344,0.218-0.431 c0.095-0.066,0.213-0.129,0.329-0.136c0.103-0.064,0.287-0.297,0.369-0.4l0.082-0.102c0.39-0.479,0.619-1.152,0.719-2.12 c0.022-0.207-0.003-0.422-0.03-0.649c-0.022-0.187-0.043-0.372-0.045-0.563c-0.014-1.002-0.108-2.286-0.72-3.328 c-0.333-0.569-0.857-0.888-1.542-1.191c-0.181-0.08-0.374-0.132-0.563-0.186c-0.236-0.065-0.47-0.133-0.685-0.229 c-0.315-0.141-0.44-0.331-0.572-0.531c-0.168-0.253-0.298-0.448-0.472-0.606c-1.126-1.02-2.814-1.706-4.301-1.75 c-1.072-0.052-2.307,0.676-3.159,1.219c-0.356,0.236-0.724,0.563-1.057,0.938c-0.113,0.152-0.849,0.983-0.849,0.983 c-0.04,0.044-0.086,0.081-0.138,0.108c-1.276,0.684-3.403,2.166-3.313,4.412c0.091,1.214,0.694,2.551,1.843,4.068 c0.175,0.068,0.303,0.233,0.32,0.429l-0.489,0.042l0.491-0.028c0.016,0.146-0.032,0.308-0.134,0.415 c-0.102,0.106-0.246,0.192-0.392,0.168c-0.64-0.041-1.118,0.16-1.236,0.526c-0.13,0.4,0.177,0.904,0.78,1.284 c0.273,0.173,0.577,0.138,0.846,0.109c0.275-0.035,0.653-0.076,0.881,0.254c0.88,1.266,1.351,1.676,1.96,2.026 c0.716,0.412,1.537,0.675,2.441,0.779c0.257,0.03,0.449,0.252,0.442,0.511c0,0.012,0.004,0.029,0,0.13 c-0.009,0.245-0.196,0.447-0.439,0.477c-2.007,0.242-2.875,1.007-2.875,1.344c0,0.071,0.045,0.296,0.214,0.688 c0.106,0.247-0.001,0.533-0.243,0.649c-0.001,0-0.963,0.461-1.234,0.609c-1.007,0.553-1.149,2.886-1.136,3.322 C43.088,77.378,43.084,77.508,43.081,77.666z"/></g><g><path fill="#f1bc19" d="M55.277,72.258c0,0-0.43,0.91-1.421,2.214"/><path fill="#472b29" d="M53.856,74.722c-0.053,0-0.106-0.017-0.151-0.051c-0.11-0.084-0.131-0.24-0.048-0.351 c0.96-1.264,1.39-2.16,1.394-2.17c0.06-0.125,0.208-0.178,0.333-0.118c0.125,0.059,0.178,0.208,0.119,0.332 c-0.018,0.038-0.453,0.949-1.448,2.259C54.006,74.688,53.931,74.722,53.856,74.722z"/></g><g><path fill="#f1bc19" d="M45.356,72.883c0,0,0.43,0.91,1.421,2.214"/><path fill="#472b29" d="M46.777,75.347c-0.075,0-0.15-0.034-0.199-0.099c-0.995-1.31-1.43-2.221-1.448-2.259 c-0.059-0.124-0.005-0.273,0.119-0.332c0.123-0.06,0.273-0.007,0.333,0.118c0.004,0.01,0.434,0.906,1.394,2.17 c0.083,0.11,0.062,0.267-0.048,0.351C46.883,75.33,46.83,75.347,46.777,75.347z"/></g><g><path fill="#f1bc19" d="M46.814,72.299c0,0,0.632,0.742,1.466,1.43"/><path fill="#472b29" d="M48.28,73.979c-0.056,0-0.112-0.019-0.159-0.058c-0.84-0.693-1.47-1.429-1.497-1.46 c-0.089-0.105-0.077-0.263,0.028-0.353c0.104-0.089,0.262-0.076,0.353,0.028c0.006,0.007,0.629,0.734,1.434,1.399 c0.106,0.088,0.122,0.245,0.034,0.352C48.423,73.948,48.352,73.979,48.28,73.979z"/></g><g><path fill="#472b29" d="M50.399,75.044c-0.626,0-1.155-0.272-1.425-0.497c-0.105-0.089-0.12-0.245-0.032-0.352 c0.087-0.106,0.246-0.12,0.352-0.033c0.041,0.034,1,0.806,2.075,0.069c1.209-0.827,2.196-1.909,2.206-1.92 c0.093-0.103,0.252-0.108,0.353-0.018c0.102,0.093,0.11,0.251,0.017,0.354c-0.042,0.046-1.034,1.135-2.294,1.996 C51.222,74.937,50.792,75.044,50.399,75.044z"/></g><g><path fill="#472b29" d="M42.655,64.583c-0.047,0-0.094-0.013-0.136-0.04c-0.116-0.076-0.148-0.23-0.073-0.347 c0.022-0.034,2.221-3.429,2.42-5.06c0.201-1.645-0.094-3.309-0.322-3.667c-0.069-0.107-0.044-0.25,0.056-0.33 c0.1-0.08,0.244-0.071,0.334,0.021c0.539,0.551,4.579,2.939,9.491,0.268c0.093-0.051,0.209-0.037,0.288,0.035 s0.103,0.187,0.06,0.285c-0.501,1.145,0.331,3.435,0.733,3.874c0.065,0.07,0.133,0.14,0.202,0.211 c0.428,0.438,0.961,0.984,1.152,2.168c0.204,1.263,0.369,1.931,0.371,1.938c0.033,0.134-0.048,0.27-0.182,0.303 c-0.137,0.036-0.271-0.048-0.303-0.182c-0.007-0.027-0.171-0.692-0.379-1.979c-0.166-1.027-0.598-1.47-1.017-1.898 c-0.073-0.075-0.145-0.148-0.213-0.223c-0.47-0.513-1.19-2.447-0.983-3.831c-4.086,1.977-7.479,0.725-8.916-0.137 c0.175,0.795,0.271,2,0.124,3.204c-0.213,1.745-2.404,5.129-2.497,5.272C42.816,64.543,42.736,64.583,42.655,64.583z"/></g></g><g><path fill="#fdfcef" d="M26.5,71.5c0,0,1.567,0,3.5,0s3.5-1.567,3.5-3.5c0-1.781-1.335-3.234-3.055-3.455 C30.473,64.366,30.5,64.187,30.5,64c0-1.933-1.567-3.5-3.5-3.5c-1.032,0-1.95,0.455-2.59,1.165 c-0.384-1.808-1.987-3.165-3.91-3.165c-2.209,0-4,1.791-4,4c0,0.191,0.03,0.374,0.056,0.558C16.128,62.714,15.592,62.5,15,62.5 c-1.228,0-2.245,0.887-2.455,2.055C12.366,64.527,12.187,64.5,12,64.5c-1.933,0-3.5,1.567-3.5,3.5s1.567,3.5,3.5,3.5s7.5,0,7.5,0 V72h7V71.5z"/><path fill="#472b29" d="M28.25 67C28.112 67 28 66.888 28 66.75c0-1.223.995-2.218 2.218-2.218.034.009.737-.001 1.244.136.133.036.212.173.176.306-.036.134-.173.213-.306.176-.444-.12-1.1-.12-1.113-.118-.948 0-1.719.771-1.719 1.718C28.5 66.888 28.388 67 28.25 67zM21.5 71A.5.5 0 1 0 21.5 72 .5.5 0 1 0 21.5 71z"/><path fill="#472b29" d="M30,72h-3.5c-0.276,0-0.5-0.224-0.5-0.5s0.224-0.5,0.5-0.5H30c1.654,0,3-1.346,3-3 c0-1.496-1.125-2.768-2.618-2.959c-0.134-0.018-0.255-0.088-0.336-0.196s-0.115-0.244-0.094-0.377C29.975,64.314,30,64.16,30,64 c0-1.654-1.346-3-3-3c-0.85,0-1.638,0.355-2.219,1c-0.125,0.139-0.321,0.198-0.5,0.148c-0.182-0.049-0.321-0.195-0.36-0.379 C23.58,60.165,22.141,59,20.5,59c-1.93,0-3.5,1.57-3.5,3.5c0,0.143,0.021,0.28,0.041,0.418c0.029,0.203-0.063,0.438-0.242,0.54 c-0.179,0.102-0.396,0.118-0.556-0.01C15.878,63.155,15.449,63,15,63c-0.966,0-1.792,0.691-1.963,1.644 c-0.048,0.267-0.296,0.446-0.569,0.405C12.314,65.025,12.16,65,12,65c-1.654,0-3,1.346-3,3s1.346,3,3,3h7.5 c0.276,0,0.5,0.224,0.5,0.5S19.776,72,19.5,72H12c-2.206,0-4-1.794-4-4s1.794-4,4-4c0.059,0,0.116,0.002,0.174,0.006 C12.588,62.82,13.711,62,15,62c0.349,0,0.689,0.061,1.011,0.18C16.176,59.847,18.126,58,20.5,58c1.831,0,3.466,1.127,4.153,2.774 C25.333,60.276,26.155,60,27,60c2.206,0,4,1.794,4,4c0,0.048-0.001,0.095-0.004,0.142C32.739,64.59,34,66.169,34,68 C34,70.206,32.206,72,30,72z"/><path fill="#472b29" d="M24.5,71c-0.159,0-0.841,0-1,0c-0.276,0-0.5,0.224-0.5,0.5c0,0.276,0.224,0.5,0.5,0.5 c0.159,0,0.841,0,1,0c0.276,0,0.5-0.224,0.5-0.5C25,71.224,24.776,71,24.5,71z"/></g></svg>