<?xml version="1.0" encoding="UTF-8"?>
<svg xmlns="http://www.w3.org/2000/svg" xmlns:xlink="http://www.w3.org/1999/xlink" width="100pt" height="100pt" viewBox="0 0 100 100" version="1.1">
<g id="surface22645930">
<path style=" stroke:none;fill-rule:nonzero;fill:rgb(100%,100%,100%);fill-opacity:1;" d="M 50 14 C 30.128906 14 14 30.128906 14 50 C 14 69.871094 30.128906 86 50 86 C 69.871094 86 86 69.871094 86 50 C 86 30.128906 69.871094 14 50 14 Z M 50 16 C 68.789062 16 84 31.210938 84 50 C 84 68.789062 68.789062 84 50 84 C 31.210938 84 16 68.789062 16 50 C 16 31.210938 31.210938 16 50 16 Z M 50 19 C 32.886719 19 19 32.886719 19 50 C 19 67.113281 32.886719 81 50 81 C 67.113281 81 81 67.113281 81 50 C 81 40.90625 77.078125 32.71875 70.835938 27.046875 C 70.703125 26.921875 70.515625 26.875 70.339844 26.929688 C 70.167969 26.984375 70.035156 27.128906 70 27.304688 C 69.960938 27.484375 70.027344 27.667969 70.164062 27.789062 C 76.207031 33.273438 80 41.191406 80 50 C 80 66.574219 66.574219 80 50 80 C 33.425781 80 20 66.574219 20 50 C 20 33.425781 33.425781 20 50 20 C 53.628906 20 57.109375 20.644531 60.328125 21.828125 C 60.496094 21.886719 60.683594 21.855469 60.820312 21.738281 C 60.957031 21.625 61.023438 21.445312 60.992188 21.269531 C 60.960938 21.09375 60.839844 20.949219 60.671875 20.886719 C 57.34375 19.667969 53.75 19 50 19 Z M 63.480469 22.140625 C 63.25 22.144531 63.050781 22.308594 63.003906 22.535156 C 62.957031 22.761719 63.070312 22.992188 63.277344 23.089844 C 63.945312 23.421875 64.605469 23.78125 65.246094 24.15625 C 65.398438 24.253906 65.59375 24.257812 65.753906 24.167969 C 65.910156 24.082031 66.007812 23.914062 66.007812 23.734375 C 66.007812 23.554688 65.910156 23.386719 65.753906 23.296875 C 65.089844 22.90625 64.414062 22.539062 63.722656 22.195312 C 63.648438 22.15625 63.566406 22.136719 63.480469 22.140625 Z M 67.507812 24.511719 C 67.492188 24.511719 67.472656 24.511719 67.457031 24.515625 C 67.246094 24.53125 67.066406 24.675781 67.011719 24.882812 C 66.957031 25.089844 67.035156 25.304688 67.214844 25.425781 C 67.546875 25.660156 67.875 25.898438 68.195312 26.144531 C 68.335938 26.253906 68.527344 26.28125 68.691406 26.210938 C 68.855469 26.144531 68.972656 25.992188 68.996094 25.8125 C 69.019531 25.636719 68.945312 25.460938 68.804688 25.351562 C 68.472656 25.097656 68.128906 24.847656 67.785156 24.605469 C 67.707031 24.546875 67.609375 24.515625 67.507812 24.511719 Z M 64.375 34 C 63.476562 34 62.601562 34.414062 62.601562 34.414062 L 29.75 47.714844 C 29.703125 47.730469 29.339844 47.851562 28.941406 48.117188 C 28.515625 48.402344 28 48.890625 28 49.628906 C 28 50.414062 28.480469 50.964844 28.902344 51.269531 C 29.328125 51.574219 29.75 51.699219 29.75 51.699219 C 29.753906 51.699219 29.757812 51.699219 29.761719 51.699219 L 37.363281 53.761719 C 37.441406 53.980469 38.300781 56.382812 39.246094 59.027344 C 39.738281 60.40625 40.238281 61.792969 40.617188 62.847656 C 40.804688 63.371094 40.964844 63.816406 41.078125 64.136719 C 41.136719 64.292969 41.179688 64.421875 41.214844 64.515625 C 41.25 64.605469 41.253906 64.628906 41.28125 64.691406 C 41.480469 65.183594 41.664062 65.46875 41.839844 65.652344 C 41.925781 65.746094 42.015625 65.8125 42.101562 65.859375 C 42.121094 65.867188 42.140625 65.875 42.160156 65.882812 C 42.164062 65.886719 42.167969 65.886719 42.171875 65.890625 C 42.171875 65.890625 42.175781 65.890625 42.179688 65.894531 C 42.195312 65.898438 42.207031 65.90625 42.222656 65.910156 C 42.238281 65.914062 42.25 65.914062 42.269531 65.921875 C 42.429688 65.976562 42.59375 66.003906 42.742188 65.996094 C 43.226562 65.972656 43.566406 65.707031 43.566406 65.707031 C 43.578125 65.699219 43.585938 65.6875 43.597656 65.679688 L 48.550781 61.105469 L 56.039062 67.441406 C 56.039062 67.441406 56.222656 67.605469 56.503906 67.738281 C 56.789062 67.871094 57.203125 68 57.726562 68 C 58.699219 68 59.355469 67.566406 59.703125 67.121094 C 60.054688 66.679688 60.132812 66.214844 60.132812 66.214844 L 60.132812 66.222656 C 60.132812 66.222656 61.582031 58.726562 63.03125 51.199219 C 63.757812 47.433594 64.488281 43.660156 65.035156 40.808594 C 65.308594 39.386719 65.539062 38.191406 65.699219 37.347656 C 65.78125 36.921875 65.847656 36.585938 65.890625 36.351562 C 65.914062 36.234375 65.929688 36.140625 65.941406 36.078125 C 65.957031 36.011719 65.957031 36.015625 65.964844 35.945312 C 65.984375 35.804688 66 35.652344 66 35.5 C 66 35.054688 65.800781 34.644531 65.492188 34.386719 C 65.1875 34.125 64.789062 34 64.375 34 Z M 64.375 35 C 64.585938 35 64.75 35.0625 64.851562 35.144531 C 64.949219 35.230469 65 35.320312 65 35.5 C 65 35.589844 64.992188 35.699219 64.976562 35.804688 C 64.984375 35.753906 64.972656 35.832031 64.960938 35.894531 C 64.945312 35.957031 64.929688 36.050781 64.910156 36.164062 C 64.863281 36.398438 64.800781 36.734375 64.71875 37.15625 C 64.558594 38.003906 64.328125 39.195312 64.054688 40.621094 C 63.507812 43.46875 62.777344 47.242188 62.054688 51.007812 C 60.601562 58.539062 59.152344 66.03125 59.152344 66.03125 C 59.152344 66.035156 59.152344 66.039062 59.152344 66.039062 C 59.152344 66.039062 59.113281 66.257812 58.921875 66.503906 C 58.726562 66.75 58.425781 67 57.726562 67 C 57.363281 67 57.101562 66.914062 56.933594 66.835938 C 56.765625 66.757812 56.722656 66.707031 56.722656 66.707031 C 56.714844 66.703125 56.710938 66.695312 56.703125 66.691406 L 44.621094 56.464844 L 59.542969 42.273438 L 59.503906 42.304688 C 59.832031 42.054688 60 41.667969 60 41.285156 C 60 41.285156 60 41.285156 60 41.28125 C 60 41.015625 59.914062 40.742188 59.742188 40.511719 C 59.496094 40.183594 59.121094 40.003906 58.738281 40 C 58.460938 40 58.183594 40.089844 57.957031 40.265625 L 57.996094 40.238281 L 37.746094 52.769531 L 38 52.914062 C 37.960938 52.894531 37.921875 52.878906 37.882812 52.867188 L 30.027344 50.734375 L 30.023438 50.734375 C 30.015625 50.730469 29.757812 50.652344 29.488281 50.457031 C 29.214844 50.261719 29 50.019531 29 49.625 C 29 49.378906 29.203125 49.144531 29.496094 48.949219 C 29.789062 48.753906 30.09375 48.652344 30.09375 48.652344 C 30.101562 48.648438 30.113281 48.644531 30.125 48.640625 L 62.988281 35.335938 C 62.992188 35.335938 62.996094 35.332031 63.003906 35.328125 C 63.003906 35.328125 63.816406 35 64.375 35 Z M 58.734375 41 C 58.808594 41 58.878906 41.03125 58.941406 41.109375 C 58.980469 41.160156 59 41.222656 59 41.285156 C 59 41.375 58.960938 41.460938 58.890625 41.515625 C 58.878906 41.527344 58.863281 41.535156 58.851562 41.546875 L 43.527344 56.125 C 43.445312 56.199219 43.394531 56.300781 43.378906 56.410156 L 43.375 56.410156 L 42.109375 64.042969 C 42.082031 63.96875 42.054688 63.902344 42.019531 63.796875 C 41.902344 63.480469 41.742188 63.035156 41.554688 62.507812 C 41.175781 61.453125 40.679688 60.066406 40.1875 58.6875 C 39.265625 56.117188 38.476562 53.90625 38.355469 53.570312 L 58.523438 41.089844 C 58.539062 41.078125 58.550781 41.070312 58.566406 41.058594 C 58.621094 41.015625 58.679688 41 58.734375 41 Z M 44.214844 57.433594 L 47.78125 60.453125 L 42.984375 64.886719 Z M 44.214844 57.433594 "/>
</g>
</svg>
