<svg xmlns="http://www.w3.org/2000/svg" viewBox="0 0 100 100" width="100px" height="100px"><path fill="#c7ede6" d="M87.215,56.71C88.35,54.555,89,52.105,89,49.5c0-6.621-4.159-12.257-10.001-14.478 C78.999,35.015,79,35.008,79,35c0-11.598-9.402-21-21-21c-9.784,0-17.981,6.701-20.313,15.757C36.211,29.272,34.638,29,33,29 c-7.692,0-14.023,5.793-14.89,13.252C12.906,43.353,9,47.969,9,53.5C9,59.851,14.149,65,20.5,65c0.177,0,0.352-0.012,0.526-0.022 C21.022,65.153,21,65.324,21,65.5C21,76.822,30.178,86,41.5,86c6.437,0,12.175-2.972,15.934-7.614C59.612,80.611,62.64,82,66,82 c4.65,0,8.674-2.65,10.666-6.518C77.718,75.817,78.837,76,80,76c6.075,0,11-4.925,11-11C91,61.689,89.53,58.727,87.215,56.71z"/><path fill="#fdfcef" d="M64.125,35.5c0,0-3.64,0-6.125,0s-4.5-2.015-4.5-4.5c0-2.333,1.782-4.229,4.055-4.455 C57.533,26.364,57.5,26.187,57.5,26c0-2.485,2.015-4.5,4.5-4.5c1.438,0,2.703,0.686,3.527,1.736 C65.667,20.6,67.829,18.5,70.5,18.5c2.761,0,5,2.239,5,5c0,0.446-0.077,0.87-0.187,1.282c0.642-0.777,1.6-1.282,2.687-1.282 c1.781,0,3.234,1.335,3.455,3.055C81.636,26.533,81.813,26.5,82,26.5c2.485,0,4.5,2.015,4.5,4.5s-2.015,4.5-4.5,4.5s-9.5,0-9.5,0 h-5.375V36h-3V35.5z"/><path fill="#472b29" d="M70.5,18c3.033,0,5.5,2.467,5.5,5.5c0,0.016,0,0.031,0,0.047C76.602,23.192,77.29,23,78,23 c1.831,0,3.411,1.261,3.858,3.005C81.905,26.002,81.952,26,82,26c2.757,0,5,2.243,5,5s-2.243,5-5,5H67.125 c-0.276,0-0.5-0.224-0.5-0.5s0.224-0.5,0.5-0.5H82c2.206,0,4-1.794,4-4s-1.794-4-4-4c-0.117,0-0.23,0.017-0.343,0.032 l-0.141,0.019c-0.021,0.003-0.041,0.004-0.062,0.004c-0.246,0-0.462-0.185-0.495-0.437C80.768,25.125,79.496,24,78,24 c-0.885,0-1.723,0.401-2.301,1.1c-0.098,0.118-0.241,0.182-0.386,0.182c-0.078,0-0.156-0.018-0.228-0.056 c-0.209-0.107-0.314-0.346-0.254-0.573C74.946,24.218,75,23.852,75,23.5c0-2.481-2.019-4.5-4.5-4.5 c-2.381,0-4.347,1.872-4.474,4.263c-0.011,0.208-0.15,0.387-0.349,0.45c-0.05,0.016-0.101,0.024-0.152,0.024 c-0.15,0-0.296-0.069-0.392-0.192C64.362,22.563,63.221,22,62,22c-2.206,0-4,1.794-4,4c0,0.117,0.017,0.23,0.032,0.343 l0.019,0.141c0.016,0.134-0.022,0.268-0.106,0.373c-0.084,0.105-0.207,0.172-0.34,0.185C55.549,27.247,54,28.949,54,31 c0,2.206,1.794,4,4,4h6.125c0.276,0,0.5,0.224,0.5,0.5s-0.224,0.5-0.5,0.5H58c-2.757,0-5-2.243-5-5 c0-2.397,1.689-4.413,4.003-4.877C57.001,26.082,57,26.041,57,26c0-2.757,2.243-5,5-5c1.176,0,2.293,0.416,3.183,1.164 C65.781,19.76,67.945,18,70.5,18L70.5,18z"/><path fill="#472b29" d="M72,25c1.403,0,2.609,0.999,2.913,2.341C75.28,27.119,75.699,27,76.125,27 c1.202,0,2.198,0.897,2.353,2.068C78.681,29.022,78.874,29,79.063,29c1.529,0,2.811,1.2,2.918,2.732 C81.99,31.87,81.886,31.99,81.749,32c-0.006,0-0.012,0-0.018,0c-0.13,0-0.24-0.101-0.249-0.232 c-0.089-1.271-1.151-2.268-2.419-2.268c-0.229,0-0.47,0.042-0.738,0.127c-0.022,0.007-0.045,0.01-0.067,0.01 c-0.055,0-0.11-0.02-0.156-0.054C78.038,29.537,78,29.455,78,29.375c0-1.034-0.841-1.875-1.875-1.875 c-0.447,0-0.885,0.168-1.231,0.473c-0.047,0.041-0.106,0.063-0.165,0.063c-0.032,0-0.063-0.006-0.093-0.019 c-0.088-0.035-0.148-0.117-0.155-0.212C74.377,26.512,73.288,25.5,72,25.5c-0.208,0-0.425,0.034-0.682,0.107 c-0.023,0.007-0.047,0.01-0.07,0.01c-0.109,0-0.207-0.073-0.239-0.182c-0.038-0.133,0.039-0.271,0.172-0.309 C71.483,25.04,71.744,25,72,25L72,25z"/><path fill="#472b29" d="M58.117,26.5c1.326,0,2.508,0.897,2.874,2.182c0.038,0.133-0.039,0.271-0.172,0.309 C60.795,28.997,60.772,29,60.75,29c-0.109,0-0.209-0.072-0.24-0.182C60.205,27.748,59.221,27,58.117,27 c-0.117,0-0.23,0.014-0.342,0.029c-0.012,0.002-0.023,0.003-0.035,0.003c-0.121,0-0.229-0.092-0.246-0.217 c-0.019-0.137,0.077-0.263,0.214-0.281C57.842,26.516,57.978,26.5,58.117,26.5L58.117,26.5z"/><path fill="#a1a1ca" d="M68.625,75h-31.25C33.854,75,31,72.146,31,68.625v-31.25C31,33.854,33.854,31,37.375,31h31.25 C72.146,31,75,33.854,75,37.375v31.25C75,72.146,72.146,75,68.625,75z"/><path fill="#472b29" d="M68.625,75.7h-31.25c-3.901,0-7.075-3.174-7.075-7.075v-31.25c0-3.901,3.174-7.075,7.075-7.075 h31.25c3.901,0,7.075,3.174,7.075,7.075v31.25C75.7,72.526,72.526,75.7,68.625,75.7z M37.375,31.7 c-3.129,0-5.675,2.546-5.675,5.675v31.25c0,3.129,2.546,5.675,5.675,5.675h31.25c3.129,0,5.675-2.546,5.675-5.675v-31.25 c0-3.129-2.546-5.675-5.675-5.675H37.375z"/><path fill="#fff" d="M20.405,42H10.5c-0.276,0-0.5-0.224-0.5-0.5s0.224-0.5,0.5-0.5h9.905c0.276,0,0.5,0.224,0.5,0.5 S20.682,42,20.405,42z"/><path fill="#fff" d="M23.5,42h-1c-0.276,0-0.5-0.224-0.5-0.5s0.224-0.5,0.5-0.5h1c0.276,0,0.5,0.224,0.5,0.5 S23.777,42,23.5,42z"/><path fill="#fff" d="M28.491,44H19.5c-0.276,0-0.5-0.224-0.5-0.5s0.224-0.5,0.5-0.5h8.991c0.276,0,0.5,0.224,0.5,0.5 S28.767,44,28.491,44z"/><path fill="#fff" d="M17.5,44h-1c-0.276,0-0.5-0.224-0.5-0.5s0.224-0.5,0.5-0.5h1c0.276,0,0.5,0.224,0.5,0.5 S17.777,44,17.5,44z"/><path fill="#fff" d="M14.5,44h-2c-0.276,0-0.5-0.224-0.5-0.5s0.224-0.5,0.5-0.5h2c0.276,0,0.5,0.224,0.5,0.5 S14.777,44,14.5,44z"/><path fill="#fff" d="M20.5,46h-2c-0.276,0-0.5-0.224-0.5-0.5s0.224-0.5,0.5-0.5h2c0.276,0,0.5,0.224,0.5,0.5 S20.776,46,20.5,46z"/><path fill="#fff" d="M23.5,37c-0.177,0-0.823,0-1,0c-0.276,0-0.5,0.224-0.5,0.5c0,0.276,0.224,0.5,0.5,0.5 c0.177,0,0.823,0,1,0c0.276,0,0.5-0.224,0.5-0.5C24,37.224,23.776,37,23.5,37z"/><path fill="#fff" d="M23.5,39c-0.177,0-4.823,0-5,0c-0.276,0-0.5,0.224-0.5,0.5c0,0.276,0.224,0.5,0.5,0.5 c0.177,0,4.823,0,5,0c0.276,0,0.5-0.224,0.5-0.5C24,39.224,23.776,39,23.5,39z"/><path fill="#fff" d="M28.5,41c-0.177,0-2.823,0-3,0c-0.276,0-0.5,0.224-0.5,0.5c0,0.276,0.224,0.5,0.5,0.5 c0.177,0,2.823,0,3,0c0.276,0,0.5-0.224,0.5-0.5C29,41.224,28.776,41,28.5,41z"/><path fill="#fff" d="M87.5,64h-10c-0.276,0-0.5-0.224-0.5-0.5s0.224-0.5,0.5-0.5h10c0.276,0,0.5,0.224,0.5,0.5 S87.776,64,87.5,64z"/><path fill="#fff" d="M91.5,64h-2c-0.276,0-0.5-0.224-0.5-0.5s0.224-0.5,0.5-0.5h2c0.276,0,0.5,0.224,0.5,0.5 S91.776,64,91.5,64z"/><path fill="#fff" d="M96.5,66h-10c-0.276,0-0.5-0.224-0.5-0.5s0.224-0.5,0.5-0.5h10c0.276,0,0.5,0.224,0.5,0.5 S96.777,66,96.5,66z"/><path fill="#fff" d="M84.5,66h-1c-0.276,0-0.5-0.224-0.5-0.5s0.224-0.5,0.5-0.5h1c0.276,0,0.5,0.224,0.5,0.5 S84.776,66,84.5,66z"/><path fill="#fff" d="M81.47,66H79.5c-0.276,0-0.5-0.224-0.5-0.5s0.224-0.5,0.5-0.5h1.97c0.276,0,0.5,0.224,0.5,0.5 S81.746,66,81.47,66z"/><path fill="#fff" d="M90.5,62h-5c-0.276,0-0.5-0.224-0.5-0.5s0.224-0.5,0.5-0.5h5c0.276,0,0.5,0.224,0.5,0.5 S90.777,62,90.5,62z"/><path fill="#fff" d="M87.5,68h-2c-0.276,0-0.5-0.224-0.5-0.5s0.224-0.5,0.5-0.5h2c0.276,0,0.5,0.224,0.5,0.5 S87.776,68,87.5,68z"/><path fill="#edf7f5" d="M66.501,71H39.499C37.014,71,35,68.986,35,66.501V38.499C35,36.014,37.014,34,39.499,34h27.003 C68.986,34,71,36.014,71,38.499v28.003C71,68.986,68.986,71,66.501,71z"/><path fill="#fabf82" d="M65.337,71c-0.297-0.77-0.82-1.631-1.807-2.32c-0.491-0.343-6.792-2.526-6.792-2.526 c-0.401-0.106-0.623-0.431-0.695-0.792c-0.202-1.024-0.178-3.489-0.173-3.929c0.001-0.035-0.031-0.061-0.071-0.061h-0.238h-5.842 h-0.238c-0.04,0-0.071,0.027-0.071,0.061c0.004,0.436,0.025,2.85-0.173,3.929c-0.067,0.363-0.294,0.686-0.695,0.792l-5.15,1.771 c-0.515,0.141-1.011,0.343-1.446,0.624c-1.096,0.708-1.672,1.632-1.992,2.451H65.337z"/><path fill="#472b29" d="M58.5,35h-11c-0.276,0-0.5-0.224-0.5-0.5s0.224-0.5,0.5-0.5h11c0.276,0,0.5,0.224,0.5,0.5 S58.776,35,58.5,35z"/><path fill="#472b29" d="M35.5,45c-0.276,0-0.5-0.224-0.5-0.5v-6.423C35,35.829,36.829,34,39.077,34H43.5 c0.276,0,0.5,0.224,0.5,0.5S43.776,35,43.5,35h-4.423C37.381,35,36,36.38,36,38.077V44.5C36,44.776,35.776,45,35.5,45z"/><path fill="#ee3e54" d="M65.444,71c-0.296-0.79-0.823-1.679-1.826-2.389c-0.493-0.349-1.061-0.605-1.663-0.772l-0.633-0.169 c0.004-0.001,0.009-0.002,0.012-0.004l-3.301-1.073c-1.675,0.451-3.471,0.698-5.344,0.698c-1.873,0-3.67-0.248-5.344-0.698 l-3.301,1.073c0.004,0.001,0.009,0.002,0.013,0.004l-0.649,0.173c-0.518,0.143-1.015,0.348-1.451,0.634 c-1.114,0.729-1.695,1.683-2.014,2.522H65.444z"/><g><path fill="#472b29" d="M39.955,71c0.32-0.819,0.896-1.744,1.993-2.452c0.435-0.281,0.931-0.483,1.446-0.624l5.15-1.771 c0.401-0.106,0.628-0.429,0.695-0.792c0.198-1.079,0.177-3.493,0.173-3.929c-0.001-0.035,0.031-0.061,0.07-0.061h0.238h5.842H55.8 v0c0.04,0,0.071,0.026,0.071,0.061c-0.005,0.44-0.029,2.904,0.173,3.929c0.072,0.362,0.294,0.686,0.695,0.792 c0,0,6.301,2.182,6.792,2.526c0.987,0.69,1.51,1.551,1.807,2.321h0.779c-0.312-0.931-0.914-2.036-2.166-2.911 c-0.5-0.349-4.583-1.79-6.972-2.618l-0.026-0.009l-0.026-0.007c-0.031-0.009-0.127-0.034-0.166-0.232 c-0.143-0.724-0.176-2.428-0.159-3.782c0.002-0.21-0.078-0.408-0.228-0.557c-0.149-0.15-0.358-0.236-0.573-0.236h-0.238H49.72 h-0.238c-0.215,0-0.425,0.086-0.575,0.236c-0.149,0.15-0.231,0.347-0.228,0.557c0.015,1.329-0.021,3.024-0.161,3.791 c-0.034,0.188-0.133,0.214-0.165,0.223l-0.026,0.007l-0.025,0.009l-5.129,1.763c-0.617,0.171-1.164,0.409-1.628,0.709 c-1.37,0.885-2.029,2.074-2.367,3.057H39.955z"/></g><g><path fill="#472b29" d="M70.5,56c-0.276,0-0.5-0.224-0.5-0.5V38.077C70,36.38,68.921,35,67.594,35H64.5 c-0.276,0-0.5-0.224-0.5-0.5s0.224-0.5,0.5-0.5h3.094C69.472,34,71,35.829,71,38.077V55.5C71,55.776,70.776,56,70.5,56z"/></g><g><path fill="#fddbbc" d="M62.626,53.715c0.112-0.38,0.206-0.753,0.34-1.124c0.174-0.485,0.051-0.796-0.493-1.096 c-0.025-0.014-0.045-0.03-0.067-0.046c-0.087-0.014-0.171-0.025-0.241-0.033c-0.489-0.057-1.358-0.082-1.611-0.586 c-0.286-0.571-0.144-1.177-0.07-1.78c0.081-0.663-0.171-1.302-0.173-1.964c-0.045-0.065-0.078-0.142-0.087-0.234 c-0.1-0.976-0.388-1.909-0.772-2.812c-1.352-1.772-3.878-2.967-6.768-2.967c-4.31,0-7.818,2.657-7.818,5.922 c0,0.155,0.01,0.307,0.026,0.459c-0.042,0.59-0.099,1.116-0.072,1.763c0.024,0.572-0.06,0.996-0.004,1.751 c0.031,0.425-0.165,0.151-0.852,0.185c-0.088,0-0.173,0.001-0.256,0.007c-0.754,0.05-1.364,0.53-1.494,1.124 c0.092,0.056,0.166,0.146,0.2,0.279c0.275,1.103,0.237,2.378,0.792,3.403c0.31,0.572,0.795,0.652,1.293,1.021 c0.276,0.205,0.329,0.436,0.404,0.742c0.28,1.132,1.055,2.095,1.906,2.917c0.431,0.416,0.893,0.79,1.359,1.169 c0.387,0.314,0.793,0.677,1.273,0.864c0.16,0.062,0.26,0.174,0.308,0.3c0.318,0.169,0.767,0.406,0.767,0.402 c1.535,0.61,3.008,0.662,4.562-0.03c0,0.006,0,0.012,0,0.017c0.008-0.005,0.756-0.362,1.062-0.53 c0.024-0.033,0.052-0.065,0.089-0.096c0.471-0.394,0.992-0.722,1.477-1.098c0.398-0.31,0.725-0.652,1.033-1.024 c-0.071-0.161,0.086-0.022,0.233-0.191c0.689-0.791,1.336-2.037,1.448-3.051c0.006-0.052,0.044-0.09,0.072-0.127 c-0.089-0.281,0.132-0.435,0.539-0.446c0.368-0.009,0.586-0.421,0.868-0.619C62.109,55.387,62.393,54.502,62.626,53.715z"/></g><g opacity=".8"><path fill="#8e7469" d="M60.762,53.049c0.009-0.129,0.011-0.258-0.004-0.386l0.975,0.187l-0.354,1.75l-0.393-0.071 l0.279-1.383L60.762,53.049z"/></g><g><path fill="#472b29" d="M62.079,51.176c-0.335-0.084-0.691-0.092-1.068-0.138c0-0.04-0.096,0.043-0.096,0.003 c-0.238-0.023-0.364-0.301-0.368-0.591c-0.007-0.585-0.081-1.227-0.028-1.841c0.015-0.554-0.085-0.907-0.193-1.299 c0.017-0.161,0.027-0.323,0.027-0.487c0-3.356-3.507-6.087-7.818-6.087s-7.818,2.731-7.818,6.087c0,0.159,0.01,0.316,0.026,0.472 c-0.042,0.607-0.099,1.148-0.072,1.811c0.024,0.588-0.06,1.024-0.004,1.799c0.031,0.437-0.165,0.156-0.852,0.19 c-0.088,0-0.173,0.001-0.256,0.007c-0.935,0.064-1.65,0.806-1.501,1.609c0.172,0.93,0.378,1.856,0.611,2.775 c0.231,0.909,0.685,1.653,1.788,1.759c0.142,1.182,0.395,1.783,1.15,2.715c1.024,1.266,2.239,2.346,3.707,3.133 c0.152,0.082,1.054,0.575,1.054,0.569c1.535,0.627,3.008,0.68,4.562-0.03c0,0.006,0,0.012,0,0.018 c0.01-0.006,0.978-0.482,1.161-0.603c0.737-0.489,1.488-0.978,2.136-1.563c1.285-1.159,2.498-2.388,2.624-4.241 c1.09-0.097,1.541-0.831,1.774-1.718c0.228-0.87,0.393-1.755,0.577-2.634C63.379,52.044,62.965,51.397,62.079,51.176z M44.455,56.606c-0.546,0.014-0.908-0.199-1.099-0.802c-0.262-0.827-0.653-2.553-0.658-2.568c-0.413-1.258,0.367-1.817,1.757-1.553 v0.731c-0.007,0-0.014,0.607,0.001,0.61L44.455,56.606L44.455,56.606z M60.248,57.469c-0.003,0.326-0.058,0.695-0.223,0.972 c-1.524,2.549-3.668,4.403-6.741,5.139c-1.066,0.255-2.065-0.111-2.992-0.551c-1.943-0.92-3.497-2.271-4.685-3.991 c-0.389-0.564-0.597-1.169-0.567-1.861c0.04-0.915,0.01-1.832,0.01-2.749c0-0.113,0.009-0.226-0.001-0.337 c-0.228-2.516,0.301-7.176,0.301-7.268c0-3.029,3.225-5.494,7.189-5.494s7.318,2.464,7.318,5.494c0,0.062,0.025,0.135,0.023,0.197 c0.272,0.257,0.071,2.705,0.353,3.94c0.031,0.14,0.026,0.288,0.026,0.432C60.259,53.418,60.268,55.444,60.248,57.469z M62.691,52.678c-0.202,1.055-0.448,2.105-0.748,3.139c-0.169,0.584-0.488,0.76-1.092,0.816v-3.601 c0.001-0.001,0.003-0.001,0.004-0.001c-0.001-0.012-0.003-0.022-0.003-0.034v-0.76c-0.004-0.002-0.009-0.004-0.013-0.007v-0.607 c0.325,0,0.627-0.02,0.927,0.004C62.37,51.676,62.799,52.11,62.691,52.678z"/></g><g opacity=".8"><path fill="#8e7469" d="M44.597,53.363c-0.01-0.135-0.011-0.271,0.004-0.406l-1.024,0.196l0.371,1.839l0.414-0.075 l-0.294-1.454L44.597,53.363z"/></g><g><path fill="#472b29" d="M52.605,56.591c0.518,0,1.02-0.224,1.344-0.598c0.032-0.038,0.028-0.094-0.01-0.127l0,0 c-0.038-0.032-0.095-0.028-0.128,0.009c-0.264,0.297-0.703,0.468-1.205,0.468c-0.503,0-0.942-0.171-1.206-0.468 c-0.018-0.02-0.043-0.03-0.069-0.03c-0.021,0-0.042,0.007-0.059,0.022c-0.038,0.033-0.042,0.089-0.01,0.127 C51.585,56.367,52.087,56.591,52.605,56.591z"/></g><g><path fill="#472b29" d="M50.952,49.674l0.329-0.624c-1.39-0.322-2.99-0.271-4.31,0.135l0.414,0.608 C48.47,49.438,49.805,49.394,50.952,49.674z"/><path fill="#472b29" d="M57.911,49.674l0.329-0.624c-1.39-0.322-2.99-0.271-4.31,0.135l0.414,0.608 C55.429,49.438,56.764,49.394,57.911,49.674z"/></g><g><path fill="#472b29" d="M48.952,50.554c-0.334,0-0.627,0.219-0.796,0.548c0.042-0.013,0.086-0.022,0.132-0.022 c0.274,0,0.496,0.245,0.496,0.547c0,0.302-0.222,0.547-0.496,0.547c-0.089,0-0.173-0.028-0.245-0.075 c0.117,0.496,0.48,0.857,0.909,0.857c0.524,0,0.95-0.538,0.95-1.201C49.901,51.092,49.477,50.554,48.952,50.554z"/><path fill="#472b29" d="M56.217,50.554c-0.285,0-0.54,0.159-0.714,0.411c0.054-0.022,0.113-0.037,0.174-0.037 c0.274,0,0.496,0.245,0.496,0.547c0,0.302-0.222,0.547-0.496,0.547c-0.17,0-0.319-0.095-0.409-0.238 c0.012,0.65,0.432,1.172,0.948,1.172c0.524,0,0.95-0.538,0.95-1.201C57.167,51.092,56.742,50.554,56.217,50.554z"/></g><g><path fill="#472b29" d="M56.62,57.982c0.039-0.031,0.045-0.088,0.013-0.126l0,0c-0.031-0.038-0.089-0.045-0.128-0.014 c-0.856,0.674-2.278,1.061-3.9,1.061c-1.623,0-3.044-0.387-3.901-1.061c-0.017-0.013-0.037-0.02-0.057-0.02 c-0.026,0-0.053,0.012-0.071,0.033c-0.031,0.038-0.026,0.095,0.013,0.127c0.967,0.781,2.468,1.247,4.015,1.247 C54.152,59.229,55.653,58.763,56.62,57.982z"/></g><g><path fill="#472b29" d="M52.626,67.474c-1.764,0-3.83-0.284-5.669-0.778c-0.097-0.026-0.155-0.126-0.129-0.222 c0.026-0.096,0.126-0.152,0.225-0.127c1.809,0.486,3.841,0.765,5.573,0.765c0.68,0,1.367-0.034,2.043-0.101 c0.105-0.011,0.19,0.064,0.2,0.163c0.01,0.099-0.063,0.188-0.164,0.198C54.018,67.439,53.319,67.474,52.626,67.474z"/></g><g><path fill="#472b29" d="M56.016,67.198c-0.088,0-0.165-0.063-0.18-0.152c-0.016-0.098,0.051-0.192,0.151-0.208 c0.138-0.022,0.276-0.046,0.412-0.072c0.125-0.023,0.25-0.048,0.376-0.074c0.097-0.015,0.195,0.043,0.216,0.141 c0.02,0.098-0.044,0.193-0.143,0.213c-0.126,0.025-0.253,0.05-0.381,0.075c-0.14,0.026-0.28,0.051-0.421,0.075 C56.036,67.197,56.025,67.198,56.016,67.198z"/></g><g><path fill="#512c2b" d="M53.463,61.388c0.045,0,0.084-0.052,0.084-0.114s-0.038-0.114-0.084-0.114h-1.882 c-0.045,0-0.084,0.052-0.084,0.114s0.038,0.114,0.084,0.114H53.463z"/></g><g><path fill="#512c2b" d="M43.357,43.285c0.27-0.717,1.215-0.772,1.215-0.772s-0.807-1.016-0.538-1.48 c0.269-0.464,3.158-3.755,10.178-3.026c7.02,0.729,7.891,5.236,7.891,5.236l-1.428,8.234c0,0-2.801-8.168-14.118-6.625 c0,0,0.493,1.038-1.898,5.164L43.357,43.285L43.357,43.285z"/></g><g><path fill="#472b29" d="M43.435,71l2.62-3.962c0.034-0.05,0.019-0.117-0.031-0.15c-0.051-0.032-0.119-0.018-0.152,0.032 L43.173,71H43.435z"/><path fill="#472b29" d="M47.12,68.926c-0.051-0.032-0.119-0.018-0.152,0.032L45.617,71h0.262l1.272-1.923 C47.185,69.027,47.17,68.959,47.12,68.926z"/><path fill="#472b29" d="M44.653,71l2.502-3.782c0.034-0.05,0.019-0.117-0.031-0.15c-0.051-0.033-0.119-0.019-0.152,0.032 L44.391,71H44.653z"/><path fill="#472b29" d="M41.001,71l2.208-3.339c0.034-0.05,0.019-0.117-0.031-0.151c-0.05-0.033-0.119-0.018-0.152,0.032 L40.739,71H41.001z"/><path fill="#472b29" d="M42.208,71l2.502-3.782c0.034-0.05,0.019-0.117-0.031-0.15s-0.119-0.019-0.152,0.032L41.946,71 H42.208z"/></g><g><path fill="#472b29" d="M67.022,72H38.978C36.784,72,35,70.171,35,67.923V50.5c0-0.276,0.224-0.5,0.5-0.5s0.5,0.224,0.5,0.5 v17.423C36,69.62,37.336,71,38.978,71h28.045C68.664,71,70,69.62,70,67.923V61.5c0-0.276,0.224-0.5,0.5-0.5s0.5,0.224,0.5,0.5 v6.423C71,70.171,69.216,72,67.022,72z"/></g><g><path fill="#fdfcef" d="M20.5,67.5c0,0-1.567,0-3.5,0s-3.5-1.567-3.5-3.5c0-1.781,1.335-3.234,3.055-3.455 C16.527,60.366,16.5,60.187,16.5,60c0-1.933,1.567-3.5,3.5-3.5c1.032,0,1.95,0.455,2.59,1.165c0.384-1.808,1.987-3.165,3.91-3.165 c2.209,0,4,1.791,4,4c0,0.191-0.03,0.374-0.056,0.558C30.872,58.714,31.408,58.5,32,58.5c1.228,0,2.245,0.887,2.455,2.055 C34.634,60.527,34.813,60.5,35,60.5c1.933,0,3.5,1.567,3.5,3.5s-1.567,3.5-3.5,3.5s-7.5,0-7.5,0V68h-7V67.5z"/><path fill="#472b29" d="M18.75,63c0.138,0,0.25-0.112,0.25-0.25c0-1.223-0.995-2.218-2.218-2.218 c-0.034,0.009-0.737-0.001-1.244,0.136c-0.133,0.036-0.212,0.173-0.176,0.306c0.036,0.134,0.173,0.213,0.306,0.176 c0.444-0.12,1.1-0.12,1.113-0.118c0.948,0,1.719,0.771,1.719,1.718C18.5,62.888,18.612,63,18.75,63z"/><circle cx="25.5" cy="67.5" r=".5" fill="#472b29"/><path fill="#472b29" d="M17,68h3.5c0.276,0,0.5-0.224,0.5-0.5S20.776,67,20.5,67H17c-1.654,0-3-1.346-3-3 c0-1.496,1.125-2.768,2.618-2.959c0.134-0.018,0.255-0.088,0.336-0.196s0.115-0.244,0.094-0.377C17.025,60.314,17,60.16,17,60 c0-1.654,1.346-3,3-3c0.85,0,1.638,0.355,2.219,1c0.125,0.139,0.321,0.198,0.5,0.148c0.182-0.049,0.321-0.195,0.36-0.379 C23.42,56.165,24.859,55,26.5,55c1.93,0,3.5,1.57,3.5,3.5c0,0.143-0.021,0.28-0.041,0.418c-0.029,0.203,0.063,0.438,0.242,0.54 c0.179,0.102,0.396,0.118,0.556-0.01C31.122,59.155,31.551,59,32,59c0.966,0,1.792,0.691,1.963,1.644 c0.048,0.267,0.296,0.446,0.569,0.405C34.686,61.025,34.84,61,35,61c1.654,0,3,1.346,3,3s-1.346,3-3,3h-7.5 c-0.276,0-0.5,0.224-0.5,0.5s0.224,0.5,0.5,0.5H35c2.206,0,4-1.794,4-4s-1.794-4-4-4c-0.059,0-0.116,0.002-0.174,0.006 C34.412,58.82,33.289,58,32,58c-0.349,0-0.689,0.061-1.011,0.18C30.824,55.847,28.874,54,26.5,54 c-1.831,0-3.466,1.127-4.153,2.774C21.667,56.276,20.845,56,20,56c-2.206,0-4,1.794-4,4c0,0.048,0.001,0.095,0.004,0.142 C14.261,60.59,13,62.169,13,64C13,66.206,14.794,68,17,68z"/><path fill="#472b29" d="M22.5,67c0.159,0,0.841,0,1,0c0.276,0,0.5,0.224,0.5,0.5c0,0.276-0.224,0.5-0.5,0.5 c-0.159,0-0.841,0-1,0c-0.276,0-0.5-0.224-0.5-0.5C22,67.224,22.224,67,22.5,67z"/></g></svg>