<svg xmlns="http://www.w3.org/2000/svg" viewBox="0 0 100 100" width="100px" height="100px"><path fill="#c7ede6" d="M88.515,55.664c0.299-0.614,0.563-1.259,0.792-1.935c2.622-7.739-1.343-17.008-9.693-19.245c-0.903-11.338-8.87-19.115-17.867-20.442c-10.298-1.519-19.733,5.023-22.872,15.422c-3.784-1.34-7.471-1.177-10.945,0.853c-1.576,0.729-3.018,1.805-4.312,3.22c-1.9,2.077-3.134,4.7-3.637,7.465c-0.745,0.117-1.477,0.235-2.167,0.482c-4.023,1.443-6.562,4.413-7.258,8.886c-0.434,2.785,0.441,5.564,0.929,6.687c1.927,4.436,6.396,6.952,10.936,6.286c0.226-0.033,0.554,0.069,0.749,0.232c0.24,7.091,3.683,13.362,8.848,16.944c8.287,5.748,18.949,3.977,25.675-3.905c2.882,2.948,6.313,4.38,10.342,3.86c4.006-0.517,7.117-2.728,9.387-6.322c1.048,0.282,2.043,0.689,3.071,0.801c4.025,0.44,7.294-1.161,9.692-4.78c0.918-1.385,1.786-3.181,1.786-6.328C91.971,60.601,90.682,57.646,88.515,55.664z"/><path fill="#fdfcef" d="M76.669,49.063c0,0,11.643,0,11.714,0c2.689,0,4.868-2.18,4.868-4.869c0-2.346-1.659-4.303-3.868-4.765c0.025-0.205,0.043-0.413,0.043-0.625c0-2.785-2.257-5.042-5.042-5.042c-1.644,0-3.1,0.791-4.02,2.008c-0.235-3.1-3.004-5.491-6.244-5.095c-2.369,0.29-4.328,2.121-4.764,4.467c-0.14,0.752-0.125,1.483,0.014,2.168c-0.635-0.684-1.539-1.115-2.546-1.115c-1.843,0-3.347,1.435-3.466,3.248c-0.837-0.185-1.747-0.173-2.706,0.187c-1.832,0.688-3.137,2.413-3.214,4.369c-0.108,2.778,2.111,5.064,4.864,5.064c0.209,0,0.944,0,1.114,0h10.109"/><path fill="#472b29" d="M88.382,49.563H76.669c-0.276,0-0.5-0.224-0.5-0.5s0.224-0.5,0.5-0.5h11.713c2.409,0,4.369-1.96,4.369-4.368c0-2.058-1.459-3.855-3.47-4.275c-0.255-0.053-0.426-0.292-0.394-0.551c0.023-0.186,0.039-0.373,0.039-0.564c0-2.505-2.038-4.542-4.542-4.542c-1.433,0-2.752,0.659-3.622,1.81c-0.125,0.166-0.338,0.237-0.54,0.178c-0.199-0.059-0.342-0.234-0.357-0.441c-0.104-1.371-0.775-2.659-1.842-3.533C76.945,31.392,75.58,31,74.18,31.171c-2.156,0.264-3.938,1.934-4.333,4.062c-0.124,0.665-0.119,1.33,0.012,1.978c0.045,0.22-0.062,0.442-0.261,0.544c-0.199,0.104-0.442,0.061-0.595-0.104c-0.571-0.616-1.346-0.955-2.18-0.955c-1.562,0-2.864,1.222-2.966,2.78c-0.01,0.146-0.082,0.28-0.199,0.368c-0.116,0.087-0.266,0.117-0.408,0.088c-0.837-0.186-1.629-0.132-2.422,0.166c-1.661,0.625-2.822,2.2-2.889,3.921c-0.047,1.201,0.385,2.339,1.216,3.203s1.95,1.341,3.148,1.341h11.223c0.276,0,0.5,0.224,0.5,0.5s-0.224,0.5-0.5,0.5H62.302c-1.474,0-2.848-0.585-3.869-1.647c-1.021-1.062-1.552-2.46-1.495-3.936c0.083-2.117,1.504-4.054,3.537-4.817c0.797-0.299,1.621-0.399,2.457-0.298c0.376-1.815,1.99-3.169,3.89-3.169c0.681,0,1.347,0.179,1.934,0.506c0-0.382,0.035-0.767,0.106-1.15c0.475-2.554,2.611-4.557,5.195-4.872c1.675-0.202,3.307,0.265,4.598,1.322c0.999,0.819,1.708,1.941,2.03,3.178c1.008-0.91,2.309-1.417,3.697-1.417c3.056,0,5.542,2.486,5.542,5.542c0,0.083-0.002,0.165-0.007,0.246c2.245,0.671,3.832,2.767,3.832,5.145C93.751,47.155,91.343,49.563,88.382,49.563z"/><path fill="#fdfcef" d="M73.847,38.338c-1.801-0.118-3.351,1.126-3.462,2.778c-0.014,0.205-0.005,0.407,0.025,0.604c-0.347-0.392-0.862-0.659-1.452-0.697c-1.08-0.071-2.013,0.643-2.149,1.613c-0.197-0.054-0.401-0.09-0.614-0.104c-1.576-0.103-2.932,0.985-3.029,2.431"/><path fill="#472b29" d="M63.167,45.212c-0.006,0-0.012,0-0.017-0.001c-0.138-0.009-0.242-0.128-0.233-0.266c0.106-1.581,1.566-2.782,3.295-2.663c0.135,0.008,0.269,0.025,0.406,0.052c0.274-0.964,1.261-1.639,2.357-1.561c0.423,0.026,0.819,0.158,1.158,0.379c0.001-0.018,0.002-0.035,0.003-0.053c0.12-1.787,1.787-3.136,3.728-3.011c0.138,0.009,0.242,0.128,0.233,0.266c-0.009,0.137-0.113,0.253-0.266,0.232c-1.667-0.095-3.095,1.033-3.196,2.546c-0.012,0.183-0.004,0.367,0.023,0.55c0.017,0.109-0.041,0.217-0.141,0.264c-0.101,0.048-0.219,0.022-0.293-0.061c-0.322-0.363-0.777-0.581-1.281-0.614c-0.944-0.04-1.767,0.553-1.885,1.397c-0.01,0.071-0.05,0.135-0.109,0.174s-0.132,0.053-0.203,0.033c-0.195-0.052-0.38-0.083-0.565-0.096c-1.417-0.079-2.675,0.893-2.764,2.198C63.407,45.111,63.297,45.212,63.167,45.212z"/><path fill="#fdfcef" d="M90.354,40c-1.692-0.798-3.649-0.233-4.371,1.262c-0.09,0.186-0.156,0.377-0.2,0.571"/><path fill="#472b29" d="M85.783,42.083c-0.019,0-0.037-0.002-0.056-0.007c-0.134-0.03-0.218-0.165-0.188-0.299c0.05-0.217,0.124-0.427,0.219-0.624c0.78-1.614,2.89-2.232,4.703-1.379c0.125,0.06,0.179,0.208,0.12,0.333c-0.059,0.126-0.208,0.177-0.333,0.12c-1.568-0.741-3.379-0.226-4.04,1.144c-0.079,0.164-0.14,0.338-0.182,0.518C86,42.004,85.897,42.083,85.783,42.083z"/><path fill="#fff" d="M18.468 47.735H8.479c-.276 0-.5-.224-.5-.5s.224-.5.5-.5h9.989c.276 0 .5.224.5.5S18.745 47.735 18.468 47.735zM21.337 47.735h-1.44c-.276 0-.5-.224-.5-.5s.224-.5.5-.5h1.44c.276 0 .5.224.5.5S21.614 47.735 21.337 47.735zM25.375 47.735H22.84c-.276 0-.5-.224-.5-.5s.224-.5.5-.5h2.536c.276 0 .5.224.5.5S25.652 47.735 25.375 47.735zM25.375 49.592h-9.577c-.276 0-.5-.224-.5-.5s.224-.5.5-.5h9.577c.276 0 .5.224.5.5S25.652 49.592 25.375 49.592zM14.074 49.592h-.578c-.276 0-.5-.224-.5-.5s.224-.5.5-.5h.578c.276 0 .5.224.5.5S14.351 49.592 14.074 49.592zM11.707 49.592h-1.45c-.276 0-.5-.224-.5-.5s.224-.5.5-.5h1.45c.276 0 .5.224.5.5S11.983 49.592 11.707 49.592zM20.806 45.877h-5.007c-.276 0-.5-.224-.5-.5s.224-.5.5-.5h5.007c.276 0 .5.224.5.5S21.082 45.877 20.806 45.877zM20.806 44.02h-1.252c-.276 0-.5-.224-.5-.5s.224-.5.5-.5h1.252c.276 0 .5.224.5.5S21.082 44.02 20.806 44.02zM17.55 51.45h-1.751c-.276 0-.5-.224-.5-.5s.224-.5.5-.5h1.751c.276 0 .5.224.5.5S17.827 51.45 17.55 51.45zM71.428 21.566h-9.989c-.276 0-.5-.224-.5-.5s.224-.5.5-.5h9.989c.276 0 .5.224.5.5S71.705 21.566 71.428 21.566zM74.297 21.566h-1.44c-.276 0-.5-.224-.5-.5s.224-.5.5-.5h1.44c.276 0 .5.224.5.5S74.574 21.566 74.297 21.566zM78.335 21.566H75.8c-.276 0-.5-.224-.5-.5s.224-.5.5-.5h2.536c.276 0 .5.224.5.5S78.612 21.566 78.335 21.566zM76.318 17.851h-9.577c-.276 0-.5-.224-.5-.5s.224-.5.5-.5h9.577c.276 0 .5.224.5.5S76.594 17.851 76.318 17.851zM65.017 17.851h-.578c-.276 0-.5-.224-.5-.5s.224-.5.5-.5h.578c.276 0 .5.224.5.5S65.293 17.851 65.017 17.851zM62.649 17.851h-1.45c-.276 0-.5-.224-.5-.5s.224-.5.5-.5h1.45c.276 0 .5.224.5.5S62.926 17.851 62.649 17.851zM73.765 19.709h-5.007c-.276 0-.5-.224-.5-.5s.224-.5.5-.5h5.007c.276 0 .5.224.5.5S74.042 19.709 73.765 19.709z"/><path fill="#fff" d="M73.765 17.851h-1.252c-.276 0-.5-.224-.5-.5s.224-.5.5-.5h1.252c.276 0 .5.224.5.5S74.042 17.851 73.765 17.851zM67.309 19.709h-1.751c-.276 0-.5-.224-.5-.5s.224-.5.5-.5h1.751c.276 0 .5.224.5.5S67.585 19.709 67.309 19.709z"/><path fill="#cbc9bc" d="M68.783,67.642H36.34c-2.639,0-4.799-2.159-4.799-4.799V49.397c0-2.639,2.159-4.799,4.799-4.799h32.443c2.639,0,4.799,2.159,4.799,4.799v13.446C73.582,65.483,71.422,67.642,68.783,67.642z"/><path fill="#472b29" d="M68.783,68.342H36.34c-3.032,0-5.499-2.467-5.499-5.499V49.398c0-3.032,2.467-5.499,5.499-5.499h32.443c3.032,0,5.499,2.467,5.499,5.499v13.445C74.282,65.876,71.815,68.342,68.783,68.342z M36.34,45.299c-2.26,0-4.099,1.839-4.099,4.099v13.445c0,2.26,1.838,4.099,4.099,4.099h32.443c2.26,0,4.098-1.839,4.098-4.099V49.398c0-2.26-1.838-4.099-4.098-4.099H36.34z"/><path fill="#e5e3d0" d="M58.454,64.296H42.4c-1.069,0-1.944-0.875-1.944-1.944V61.69c0-1.069,0.875-1.944,1.944-1.944h20.324c1.069,0,1.944,0.875,1.944,1.944v0.663c0,1.069-0.875,1.944-1.944,1.944"/><path fill="#472b29" d="M62.723,64.622c-0.18,0-0.325-0.146-0.325-0.325s0.146-0.325,0.325-0.325c0.893,0,1.619-0.727,1.619-1.619V61.69c0-0.893-0.726-1.619-1.619-1.619H42.399c-0.893,0-1.619,0.727-1.619,1.619v0.662c0,0.893,0.726,1.619,1.619,1.619h16.055c0.18,0,0.325,0.146,0.325,0.325s-0.146,0.325-0.325,0.325H42.399c-1.251,0-2.269-1.019-2.269-2.27V61.69c0-1.251,1.018-2.27,2.269-2.27h20.324c1.251,0,2.269,1.019,2.269,2.27v0.662C64.992,63.603,63.974,64.622,62.723,64.622z"/><path fill="#472b29" d="M59.979,64.622h-0.18c-0.18,0-0.325-0.146-0.325-0.325s0.146-0.325,0.325-0.325h0.18c0.18,0,0.325,0.146,0.325,0.325S60.159,64.622,59.979,64.622z"/><path fill="#e5e3d0" d="M38.019,51.652h-1.31c-0.89,0-1.619-0.728-1.619-1.619v-1.31c0-0.89,0.728-1.619,1.619-1.619h1.31c0.89,0,1.619,0.728,1.619,1.619v1.31C39.638,50.924,38.91,51.652,38.019,51.652z"/><path fill="#472b29" d="M38.02,51.978h-1.31c-1.072,0-1.944-0.872-1.944-1.944v-1.31c0-1.072,0.872-1.944,1.944-1.944h1.31c1.072,0,1.944,0.872,1.944,1.944v1.31C39.963,51.106,39.091,51.978,38.02,51.978z M36.709,47.43c-0.713,0-1.293,0.58-1.293,1.294v1.31c0,0.714,0.58,1.294,1.293,1.294h1.31c0.713,0,1.293-0.58,1.293-1.294v-1.31c0-0.714-0.58-1.294-1.293-1.294H36.709z"/><path fill="#e5e3d0" d="M44.123,51.652h-1.31c-0.89,0-1.619-0.728-1.619-1.619v-1.31c0-0.89,0.728-1.619,1.619-1.619h1.31c0.89,0,1.619,0.728,1.619,1.619v1.31C45.742,50.924,45.013,51.652,44.123,51.652z"/><path fill="#472b29" d="M44.123,51.978h-1.31c-1.072,0-1.944-0.872-1.944-1.944v-1.31c0-1.072,0.872-1.944,1.944-1.944h1.31c1.072,0,1.944,0.872,1.944,1.944v1.31C46.067,51.106,45.195,51.978,44.123,51.978z M42.813,47.43c-0.713,0-1.293,0.58-1.293,1.294v1.31c0,0.714,0.58,1.294,1.293,1.294h1.31c0.713,0,1.293-0.58,1.293-1.294v-1.31c0-0.714-0.58-1.294-1.293-1.294H42.813z"/><path fill="#e5e3d0" d="M50.227,51.652h-1.31c-0.89,0-1.619-0.728-1.619-1.619v-1.31c0-0.89,0.728-1.619,1.619-1.619h1.31c0.89,0,1.619,0.728,1.619,1.619v1.31C51.846,50.924,51.117,51.652,50.227,51.652z"/><path fill="#472b29" d="M50.227,51.978h-1.31c-1.072,0-1.944-0.872-1.944-1.944v-1.31c0-1.072,0.872-1.944,1.944-1.944h1.31c1.072,0,1.944,0.872,1.944,1.944v1.31C52.171,51.106,51.299,51.978,50.227,51.978z M48.917,47.43c-0.713,0-1.293,0.58-1.293,1.294v1.31c0,0.714,0.58,1.294,1.293,1.294h1.31c0.713,0,1.293-0.58,1.293-1.294v-1.31c0-0.714-0.58-1.294-1.293-1.294H48.917z"/><path fill="#e5e3d0" d="M56.331,51.652h-1.31c-0.89,0-1.619-0.728-1.619-1.619v-1.31c0-0.89,0.728-1.619,1.619-1.619h1.31c0.89,0,1.619,0.728,1.619,1.619v1.31C57.949,50.924,57.221,51.652,56.331,51.652z"/><path fill="#472b29" d="M56.331,51.978h-1.31c-1.072,0-1.944-0.872-1.944-1.944v-1.31c0-1.072,0.872-1.944,1.944-1.944h1.31c1.072,0,1.944,0.872,1.944,1.944v1.31C58.274,51.106,57.402,51.978,56.331,51.978z M55.021,47.43c-0.713,0-1.293,0.58-1.293,1.294v1.31c0,0.714,0.58,1.294,1.293,1.294h1.31c0.713,0,1.293-0.58,1.293-1.294v-1.31c0-0.714-0.58-1.294-1.293-1.294H55.021z"/><path fill="#e5e3d0" d="M62.434,51.652h-1.31c-0.89,0-1.619-0.728-1.619-1.619v-1.31c0-0.89,0.728-1.619,1.619-1.619h1.31c0.89,0,1.619,0.728,1.619,1.619v1.31C64.053,50.924,63.325,51.652,62.434,51.652z"/><path fill="#472b29" d="M62.435,51.978h-1.31c-1.072,0-1.944-0.872-1.944-1.944v-1.31c0-1.072,0.872-1.944,1.944-1.944h1.31c1.072,0,1.944,0.872,1.944,1.944v1.31C64.378,51.106,63.506,51.978,62.435,51.978z M61.125,47.43c-0.713,0-1.293,0.58-1.293,1.294v1.31c0,0.714,0.58,1.294,1.293,1.294h1.31c0.713,0,1.293-0.58,1.293-1.294v-1.31c0-0.714-0.58-1.294-1.293-1.294H61.125z"/><path fill="#e5e3d0" d="M68.538,51.652h-1.31c-0.89,0-1.619-0.728-1.619-1.619v-1.31c0-0.89,0.728-1.619,1.619-1.619h1.31c0.89,0,1.619,0.728,1.619,1.619v1.31C70.157,50.924,69.428,51.652,68.538,51.652z"/><path fill="#472b29" d="M68.538,51.978h-1.31c-1.072,0-1.944-0.872-1.944-1.944v-1.31c0-1.072,0.872-1.944,1.944-1.944h1.31c1.072,0,1.944,0.872,1.944,1.944v1.31C70.482,51.106,69.61,51.978,68.538,51.978z M67.228,47.43c-0.713,0-1.293,0.58-1.293,1.294v1.31c0,0.714,0.58,1.294,1.293,1.294h1.31c0.713,0,1.293-0.58,1.293-1.294v-1.31c0-0.714-0.58-1.294-1.293-1.294H67.228z"/><path fill="#e5e3d0" d="M38.019,57.279h-1.31c-0.89,0-1.619-0.728-1.619-1.619v-1.31c0-0.89,0.728-1.619,1.619-1.619h1.31c0.89,0,1.619,0.728,1.619,1.619v1.31C39.638,56.551,38.91,57.279,38.019,57.279z"/><path fill="#472b29" d="M38.02,57.605h-1.31c-1.072,0-1.944-0.872-1.944-1.944v-1.31c0-1.072,0.872-1.944,1.944-1.944h1.31c1.072,0,1.944,0.872,1.944,1.944v1.31C39.963,56.733,39.091,57.605,38.02,57.605z M36.709,53.057c-0.713,0-1.293,0.58-1.293,1.294v1.31c0,0.714,0.58,1.294,1.293,1.294h1.31c0.713,0,1.293-0.58,1.293-1.294v-1.31c0-0.714-0.58-1.294-1.293-1.294H36.709z"/><path fill="#e5e3d0" d="M44.123,57.279h-1.31c-0.89,0-1.619-0.728-1.619-1.619v-1.31c0-0.89,0.728-1.619,1.619-1.619h1.31c0.89,0,1.619,0.728,1.619,1.619v1.31C45.742,56.551,45.013,57.279,44.123,57.279z"/><path fill="#472b29" d="M44.123,57.605h-1.31c-1.072,0-1.944-0.872-1.944-1.944v-1.31c0-1.072,0.872-1.944,1.944-1.944h1.31c1.072,0,1.944,0.872,1.944,1.944v1.31C46.067,56.733,45.195,57.605,44.123,57.605z M42.813,53.057c-0.713,0-1.293,0.58-1.293,1.294v1.31c0,0.714,0.58,1.294,1.293,1.294h1.31c0.713,0,1.293-0.58,1.293-1.294v-1.31c0-0.714-0.58-1.294-1.293-1.294H42.813z"/><path fill="#e5e3d0" d="M50.227,57.279h-1.31c-0.89,0-1.619-0.728-1.619-1.619v-1.31c0-0.89,0.728-1.619,1.619-1.619h1.31c0.89,0,1.619,0.728,1.619,1.619v1.31C51.846,56.551,51.117,57.279,50.227,57.279z"/><path fill="#472b29" d="M50.227,57.605h-1.31c-1.072,0-1.944-0.872-1.944-1.944v-1.31c0-1.072,0.872-1.944,1.944-1.944h1.31c1.072,0,1.944,0.872,1.944,1.944v1.31C52.171,56.733,51.299,57.605,50.227,57.605z M48.917,53.057c-0.713,0-1.293,0.58-1.293,1.294v1.31c0,0.714,0.58,1.294,1.293,1.294h1.31c0.713,0,1.293-0.58,1.293-1.294v-1.31c0-0.714-0.58-1.294-1.293-1.294H48.917z"/><path fill="#e5e3d0" d="M56.331,57.279h-1.31c-0.89,0-1.619-0.728-1.619-1.619v-1.31c0-0.89,0.728-1.619,1.619-1.619h1.31c0.89,0,1.619,0.728,1.619,1.619v1.31C57.949,56.551,57.221,57.279,56.331,57.279z"/><path fill="#472b29" d="M56.331,57.605h-1.31c-1.072,0-1.944-0.872-1.944-1.944v-1.31c0-1.072,0.872-1.944,1.944-1.944h1.31c1.072,0,1.944,0.872,1.944,1.944v1.31C58.274,56.733,57.402,57.605,56.331,57.605z M55.021,53.057c-0.713,0-1.293,0.58-1.293,1.294v1.31c0,0.714,0.58,1.294,1.293,1.294h1.31c0.713,0,1.293-0.58,1.293-1.294v-1.31c0-0.714-0.58-1.294-1.293-1.294H55.021z"/><path fill="#e5e3d0" d="M62.434,57.279h-1.31c-0.89,0-1.619-0.728-1.619-1.619v-1.31c0-0.89,0.728-1.619,1.619-1.619h1.31c0.89,0,1.619,0.728,1.619,1.619v1.31C64.053,56.551,63.325,57.279,62.434,57.279z"/><path fill="#472b29" d="M62.435,57.605h-1.31c-1.072,0-1.944-0.872-1.944-1.944v-1.31c0-1.072,0.872-1.944,1.944-1.944h1.31c1.072,0,1.944,0.872,1.944,1.944v1.31C64.378,56.733,63.506,57.605,62.435,57.605z M61.125,53.057c-0.713,0-1.293,0.58-1.293,1.294v1.31c0,0.714,0.58,1.294,1.293,1.294h1.31c0.713,0,1.293-0.58,1.293-1.294v-1.31c0-0.714-0.58-1.294-1.293-1.294H61.125z"/><path fill="#e5e3d0" d="M68.538,57.279h-1.31c-0.89,0-1.619-0.728-1.619-1.619v-1.31c0-0.89,0.728-1.619,1.619-1.619h1.31c0.89,0,1.619,0.728,1.619,1.619v1.31C70.157,56.551,69.428,57.279,68.538,57.279z"/><path fill="#472b29" d="M68.538 57.605h-1.31c-1.072 0-1.944-.872-1.944-1.944v-1.31c0-1.072.872-1.944 1.944-1.944h1.31c1.072 0 1.944.872 1.944 1.944v1.31C70.482 56.733 69.61 57.605 68.538 57.605zM67.228 53.057c-.713 0-1.293.58-1.293 1.294v1.31c0 .714.58 1.294 1.293 1.294h1.31c.713 0 1.293-.58 1.293-1.294v-1.31c0-.714-.58-1.294-1.293-1.294H67.228zM43.054 44.822c-.106 0-.213-.034-.304-.104-3.157-2.425-3.077-4.911-2.748-6.178.609-2.343 2.812-4.062 4.505-4.313 2.269-.33 3.606.459 4.685 1.097.976.575 1.682.993 2.833.547 1.619-.624 3.16-2.618 2.826-4.749-.338-2.166-2.468-3.794-4.957-3.794-.008 0-.019 0-.021 0-.275 0-.499-.223-.5-.498-.001-.284.25-.494.521-.502 2.978 0 5.531 1.991 5.945 4.64.41 2.623-1.474 5.072-3.454 5.837-1.604.618-2.671-.011-3.702-.62-1.041-.614-2.117-1.249-4.031-.967-1.383.204-3.193 1.689-3.683 3.574-.467 1.799.359 3.574 2.39 5.134.219.168.26.482.092.701C43.353 44.754 43.205 44.822 43.054 44.822z"/><path fill="#fdfcef" d="M39.131,71.82c1.876,0,3.502,0,3.526,0c2.101,0,3.805-1.667,3.805-3.724c0-1.794-1.297-3.292-3.023-3.645c0.02-0.157,0.033-0.316,0.033-0.478c0-2.13-1.764-3.857-3.941-3.857c-1.285,0-2.423,0.605-3.142,1.536c-0.184-2.371-2.348-4.2-4.88-3.897c-1.851,0.222-3.383,1.622-3.723,3.417c-0.109,0.576-0.098,1.134,0.011,1.659c-0.496-0.523-1.203-0.853-1.99-0.853c-1.44,0-2.616,1.097-2.709,2.484c-0.654-0.142-1.365-0.132-2.115,0.143c-1.432,0.526-2.452,1.846-2.512,3.342c-0.085,2.125,1.65,3.873,3.802,3.873c0.163,0,0.738,0,0.87,0h7.901 M32.68,71.82h0.358"/><path fill="#472b29" d="M42.656,72.32h-3.525c-0.276,0-0.5-0.224-0.5-0.5s0.224-0.5,0.5-0.5h3.525c1.822,0,3.305-1.446,3.305-3.224c0-1.518-1.103-2.844-2.623-3.154c-0.256-0.053-0.428-0.293-0.396-0.552c0.017-0.137,0.029-0.275,0.029-0.417c0-1.852-1.543-3.357-3.441-3.357c-1.086,0-2.087,0.489-2.747,1.342c-0.126,0.164-0.341,0.231-0.539,0.174c-0.198-0.06-0.339-0.234-0.355-0.44c-0.079-1.015-0.563-1.936-1.363-2.592c-0.825-0.676-1.876-0.977-2.958-0.848c-1.639,0.195-2.992,1.435-3.292,3.015c-0.093,0.49-0.09,0.982,0.01,1.463c0.045,0.219-0.06,0.441-0.258,0.545c-0.198,0.103-0.44,0.063-0.595-0.1c-0.426-0.449-1.004-0.696-1.627-0.696c-1.164,0-2.134,0.887-2.209,2.018c-0.01,0.146-0.082,0.279-0.198,0.366s-0.263,0.121-0.407,0.089c-0.636-0.138-1.236-0.097-1.836,0.124c-1.256,0.461-2.134,1.624-2.185,2.892c-0.035,0.871,0.281,1.7,0.891,2.334c0.631,0.657,1.488,1.02,2.412,1.02h8.771c0.276,0,0.5,0.224,0.5,0.5s-0.224,0.5-0.5,0.5h-8.771c-1.181,0-2.323-0.483-3.133-1.327c-0.799-0.832-1.214-1.921-1.168-3.065c0.066-1.668,1.207-3.192,2.839-3.792c0.608-0.222,1.235-0.301,1.872-0.243c0.344-1.39,1.624-2.414,3.124-2.414c0.49,0,0.971,0.112,1.406,0.32c0.009-0.239,0.037-0.479,0.082-0.72c0.38-2.003,2.089-3.573,4.156-3.819c1.355-0.166,2.674,0.216,3.711,1.067c0.744,0.61,1.272,1.402,1.54,2.29c0.788-0.645,1.778-1.001,2.83-1.001c2.449,0,4.441,1.955,4.441,4.357c0,0.033,0,0.067-0.001,0.101c1.757,0.552,2.991,2.18,2.991,4.022C46.961,70.425,45.03,72.32,42.656,72.32z M33.038,72.32H32.68c-0.276,0-0.5-0.224-0.5-0.5s0.224-0.5,0.5-0.5h0.358c0.276,0,0.5,0.224,0.5,0.5S33.314,72.32,33.038,72.32z"/><path fill="#472b29" d="M40.956 66.54c-.018 0-.036-.002-.055-.006-.135-.03-.219-.164-.189-.299.037-.165.094-.325.169-.478.602-1.219 2.264-1.673 3.708-1.002.125.058.18.206.122.331-.058.126-.207.181-.332.122-1.197-.553-2.565-.207-3.049.771-.058.117-.102.239-.129.365C41.173 66.46 41.07 66.54 40.956 66.54zM35.818 72.32h-1.103c-.276 0-.5-.224-.5-.5s.224-.5.5-.5h1.103c.276 0 .5.224.5.5S36.094 72.32 35.818 72.32z"/></svg>